<?xml version="1.0" encoding="UTF-8" standalone="no"?>
<!DOCTYPE svg PUBLIC "-//W3C//DTD SVG 1.1//EN" "http://www.w3.org/Graphics/SVG/1.1/DTD/svg11.dtd">
<svg version="1.1" xmlns="http://www.w3.org/2000/svg" xmlns:xlink="http://www.w3.org/1999/xlink" preserveAspectRatio="xMidYMid meet" viewBox="0 0 640 640" width="640" height="640"><defs><path d="M66.27 287.01C40.72 242.76 33.93 191.22 47.16 141.87C60.38 92.52 92.04 51.26 136.29 25.72C180.53 0.17 232.08 -6.64 281.45 6.61C330.8 19.83 372.06 51.48 397.6 95.73C401.28 102.11 399.1 110.26 392.72 113.95C386.32 117.62 378.19 115.43 374.51 109.06C352.52 70.98 317.02 43.74 274.54 32.36C232.08 20.98 187.71 26.82 149.62 48.82C111.54 70.8 84.3 106.3 72.92 148.77C61.54 191.24 67.38 235.6 89.37 273.68C93.05 280.05 90.87 288.21 84.49 291.89C82.39 293.1 80.09 293.67 77.83 293.67C73.22 293.67 68.74 291.28 66.27 287.01Z" id="b3PZYi5Yg"></path><path d="M122.99 306.24C118.13 304.94 79.23 294.52 74.37 293.22C67.25 291.31 63.03 284 64.94 276.89C66.84 269.78 74.14 265.54 81.27 267.47C84.16 268.24 98.58 272.1 124.56 279.06L361.58 142.23C368.54 116.26 372.4 101.83 373.18 98.95C375.08 91.84 382.36 87.59 389.51 89.52C396.62 91.43 400.84 98.74 398.93 105.85C397.63 110.71 387.21 149.6 385.9 154.46C384.99 157.88 382.75 160.79 379.69 162.56C355.04 176.8 157.76 290.68 133.11 304.92C131.06 306.09 128.76 306.7 126.44 306.7C125.28 306.7 124.12 306.55 122.99 306.24Z" id="a5nRxpP45"></path><path d="M202.95 66.77L204.26 66.85L205.56 66.94L206.86 67.07L208.17 67.22L209.47 67.4L210.77 67.6L212.07 67.83L213.37 68.08L214.67 68.36L215.96 68.67L217.25 69L218.54 69.36L219.81 69.74L221.07 70.15L222.33 70.58L223.57 71.03L224.79 71.5L226.01 72L227.21 72.52L228.4 73.06L229.58 73.63L230.75 74.22L231.9 74.83L233.04 75.46L234.16 76.11L235.27 76.79L236.37 77.48L237.45 78.2L238.52 78.94L239.57 79.7L240.6 80.48L241.62 81.28L242.63 82.09L243.62 82.93L244.59 83.79L245.55 84.67L246.48 85.57L247.41 86.49L248.31 87.42L249.2 88.38L250.07 89.35L250.92 90.34L251.75 91.35L252.57 92.38L253.36 93.42L254.14 94.49L254.9 95.57L255.63 96.67L256.35 97.78L257.05 98.91L257.73 100.06L258.38 101.22L259.01 102.39L259.62 103.57L260.2 104.76L260.76 105.95L261.29 107.16L261.8 108.37L262.28 109.59L262.74 110.81L263.17 112.05L263.58 113.29L263.96 114.53L264.32 115.78L264.65 117.04L264.96 118.3L265.24 119.57L265.5 120.84L265.73 122.12L265.94 123.4L266.12 124.68L266.28 125.97L266.41 127.25L266.52 128.55L266.6 129.84L266.65 131.14L266.68 132.44L266.69 133.74L266.66 135.04L266.62 136.34L266.54 137.64L266.44 138.95L266.32 140.25L266.17 141.55L265.99 142.85L265.79 144.16L265.56 145.46L265.31 146.75L265.03 148.05L264.72 149.34L264.39 150.63L264.03 151.92L263.65 153.19L263.24 154.46L262.81 155.71L262.36 156.95L261.89 158.17L261.39 159.39L260.87 160.59L260.32 161.78L259.76 162.96L259.17 164.13L258.56 165.28L257.93 166.42L257.27 167.54L256.6 168.65L255.9 169.75L255.19 170.83L254.45 171.9L253.69 172.95L252.91 173.98L252.11 175L251.29 176.01L250.45 177L249.59 177.97L248.71 178.92L247.82 179.86L246.9 180.79L245.96 181.69L245.01 182.58L244.04 183.45L243.04 184.3L242.03 185.13L241.01 185.95L239.96 186.74L238.9 187.52L237.82 188.27L236.72 189.01L235.61 189.73L234.47 190.43L233.33 191.11L232.55 191.55L231.78 191.97L231 192.39L230.21 192.8L229.43 193.19L228.63 193.58L227.84 193.95L227.04 194.31L226.23 194.67L225.43 195.01L224.62 195.34L223.81 195.66L222.99 195.96L222.17 196.26L221.35 196.55L220.52 196.82L219.7 197.08L218.87 197.34L218.03 197.58L217.2 197.81L216.36 198.03L215.52 198.24L214.68 198.43L213.83 198.62L212.98 198.79L212.14 198.96L211.29 199.11L210.43 199.25L209.58 199.38L208.72 199.5L207.87 199.6L207.01 199.7L206.15 199.79L205.29 199.86L204.43 199.92L203.56 199.97L202.7 200.01L201.84 200.04L200.97 200.06L200.1 200.06L199.67 200.06L199.24 200.06L198.8 200.05L198.37 200.04L197.93 200.03L197.5 200.01L197.06 199.99L196.63 199.97L196.19 199.95L195.76 199.92L195.32 199.89L194.89 199.86L194.45 199.82L194.02 199.78L193.58 199.74L193.15 199.7L192.71 199.65L192.28 199.6L191.84 199.55L191.41 199.49L190.97 199.43L190.54 199.37L190.11 199.31L189.67 199.24L189.24 199.17L188.8 199.09L188.37 199.02L187.93 198.94L187.5 198.86L187.07 198.77L186.63 198.68L186.2 198.59L185.77 198.5L185.34 198.4L184.9 198.31L184.47 198.2L184.04 198.1L183.61 197.99L183.18 197.88L182.75 197.77L181.46 197.41L180.19 197.03L178.93 196.62L177.67 196.19L176.43 195.74L175.21 195.26L173.99 194.77L172.79 194.25L171.6 193.7L170.42 193.14L169.25 192.55L168.1 191.94L166.96 191.31L165.84 190.65L164.73 189.98L163.63 189.28L162.55 188.56L161.48 187.83L160.43 187.07L159.4 186.29L158.38 185.49L157.37 184.67L156.38 183.83L155.41 182.97L154.45 182.09L153.52 181.2L152.59 180.28L151.69 179.34L150.8 178.39L149.93 177.42L149.08 176.42L148.25 175.41L147.43 174.39L146.64 173.34L145.86 172.28L145.1 171.2L144.37 170.1L143.65 168.99L142.95 167.85L142.27 166.71L141.62 165.55L140.99 164.38L140.38 163.2L139.8 162.01L139.24 160.81L138.71 159.61L138.2 158.4L137.72 157.18L137.26 155.95L136.83 154.72L136.42 153.48L136.04 152.24L135.68 150.98L135.35 149.73L135.04 148.47L134.76 147.2L134.5 145.93L134.27 144.65L134.06 143.37L133.88 142.09L133.72 140.8L133.59 139.51L133.48 138.22L133.4 136.93L133.35 135.63L133.32 134.33L133.31 133.03L133.34 131.73L133.38 130.43L133.46 129.12L133.56 127.82L133.68 126.52L133.83 125.21L134.01 123.91L134.21 122.61L134.44 121.31L134.69 120.01L134.97 118.72L135.28 117.42L135.61 116.13L135.97 114.85L136.35 113.57L136.76 112.31L137.19 111.06L137.64 109.82L138.11 108.59L138.61 107.38L139.13 106.17L139.68 104.98L140.24 103.8L140.83 102.64L141.44 101.49L142.07 100.35L142.73 99.23L143.4 98.12L144.1 97.02L144.81 95.94L145.55 94.87L146.31 93.82L147.09 92.78L147.89 91.76L148.71 90.76L149.55 89.77L150.41 88.8L151.29 87.84L152.18 86.9L153.1 85.98L154.04 85.08L154.99 84.19L155.96 83.32L156.96 82.47L157.97 81.64L158.99 80.82L160.04 80.03L161.1 79.25L162.18 78.49L163.28 77.75L164.39 77.04L165.53 76.34L166.67 75.66L167.83 75.01L169 74.37L170.18 73.77L171.37 73.19L172.57 72.63L173.77 72.1L174.98 71.59L176.2 71.11L177.42 70.65L178.66 70.22L179.9 69.81L181.14 69.42L182.39 69.07L183.65 68.73L184.91 68.43L186.18 68.14L187.45 67.89L188.73 67.65L190.01 67.45L191.29 67.26L192.58 67.11L193.87 66.98L195.16 66.87L196.45 66.79L197.75 66.74L199.05 66.71L200.35 66.7L201.65 66.72L202.95 66.77ZM198.9 93.39L198.38 93.41L197.86 93.44L197.34 93.47L196.83 93.5L196.31 93.55L195.79 93.6L195.28 93.66L194.77 93.72L194.25 93.79L193.74 93.87L193.23 93.95L192.72 94.05L192.21 94.14L191.7 94.25L191.2 94.36L190.69 94.48L190.19 94.6L189.69 94.73L189.18 94.87L188.68 95.02L188.19 95.17L187.69 95.33L187.19 95.49L186.7 95.66L186.21 95.84L185.72 96.03L185.23 96.22L184.75 96.42L184.26 96.62L183.78 96.83L183.3 97.05L182.82 97.27L182.35 97.5L181.88 97.74L181.4 97.99L180.94 98.24L180.47 98.49L180.01 98.76L179.32 99.16L178.64 99.58L177.97 100.01L177.31 100.46L176.66 100.91L176.03 101.38L175.4 101.85L174.78 102.34L174.18 102.84L173.58 103.35L173 103.87L172.42 104.41L171.86 104.95L171.31 105.5L170.77 106.06L170.25 106.64L169.73 107.22L169.23 107.81L168.74 108.42L168.26 109.03L167.79 109.65L167.33 110.28L166.89 110.92L166.46 111.57L166.04 112.23L165.64 112.89L165.25 113.57L164.87 114.25L164.5 114.94L164.15 115.64L163.81 116.34L163.48 117.06L163.17 117.78L162.87 118.51L162.59 119.25L162.32 119.99L162.06 120.74L161.82 121.5L161.59 122.26L161.37 123.03L161.17 123.81L160.99 124.58L160.82 125.36L160.67 126.14L160.53 126.92L160.41 127.7L160.3 128.48L160.21 129.26L160.14 130.04L160.08 130.83L160.04 131.61L160.01 132.39L159.99 133.17L160 133.95L160.01 134.73L160.05 135.51L160.09 136.28L160.16 137.06L160.24 137.83L160.33 138.6L160.44 139.37L160.56 140.14L160.7 140.91L160.86 141.67L161.03 142.43L161.21 143.19L161.41 143.94L161.63 144.69L161.86 145.44L162.1 146.18L162.36 146.92L162.64 147.66L162.93 148.39L163.23 149.12L163.55 149.84L163.89 150.56L164.23 151.27L164.6 151.98L164.98 152.68L165.37 153.38L165.78 154.06L166.2 154.74L166.63 155.41L167.07 156.07L167.52 156.72L167.99 157.36L168.47 157.98L168.96 158.6L169.45 159.21L169.97 159.8L170.49 160.38L171.02 160.96L171.56 161.52L172.11 162.07L172.68 162.61L173.25 163.13L173.83 163.65L174.43 164.15L175.03 164.64L175.64 165.12L176.26 165.59L176.89 166.05L177.53 166.49L178.18 166.92L178.84 167.34L179.51 167.74L180.18 168.13L180.86 168.51L181.55 168.88L182.25 169.23L182.96 169.57L183.67 169.9L184.4 170.21L185.12 170.51L185.86 170.79L186.61 171.06L187.36 171.32L188.11 171.56L188.88 171.79L189.65 172.01L190.42 172.21L191.2 172.39L191.97 172.56L192.75 172.71L193.53 172.85L194.31 172.97L195.09 173.08L195.87 173.17L196.65 173.24L197.44 173.3L198.22 173.34L199 173.37L199.78 173.39L200.56 173.38L201.34 173.37L202.12 173.33L202.89 173.29L203.67 173.22L204.44 173.14L205.21 173.05L205.98 172.94L206.75 172.82L207.52 172.68L208.28 172.52L209.04 172.35L209.8 172.17L210.55 171.97L211.3 171.75L212.05 171.52L212.8 171.28L213.54 171.02L214.27 170.74L215 170.45L215.73 170.15L216.45 169.83L217.17 169.49L217.89 169.15L218.59 168.78L219.3 168.4L219.99 168.01L220.68 167.6L221.36 167.18L222.03 166.75L222.69 166.31L223.34 165.86L223.97 165.39L224.6 164.91L225.22 164.43L225.82 163.93L226.42 163.42L227 162.89L227.58 162.36L228.14 161.82L228.69 161.27L229.23 160.7L229.75 160.13L230.27 159.55L230.77 158.95L231.26 158.35L231.74 157.74L232.21 157.12L232.67 156.49L233.11 155.85L233.54 155.2L233.96 154.54L234.36 153.88L234.75 153.2L235.13 152.52L235.5 151.83L235.85 151.13L236.19 150.42L236.52 149.71L236.83 148.99L237.13 148.26L237.41 147.52L237.68 146.78L237.94 146.03L238.18 145.27L238.41 144.5L238.63 143.73L238.83 142.96L239.01 142.18L239.18 141.41L239.33 140.63L239.47 139.85L239.59 139.07L239.7 138.29L239.79 137.5L239.86 136.72L239.92 135.94L239.96 135.16L239.99 134.38L240.01 133.6L240 132.82L239.99 132.04L239.95 131.26L239.91 130.48L239.84 129.71L239.76 128.93L239.67 128.16L239.56 127.39L239.44 126.63L239.3 125.86L239.14 125.1L238.97 124.34L238.79 123.58L238.59 122.83L238.37 122.08L238.14 121.33L237.9 120.58L237.64 119.84L237.36 119.11L237.07 118.38L236.77 117.65L236.45 116.93L236.11 116.21L235.77 115.5L235.4 114.79L235.02 114.09L234.63 113.39L234.22 112.7L233.8 112.02L233.37 111.36L232.93 110.7L232.48 110.05L232.01 109.41L231.53 108.78L231.04 108.17L230.55 107.56L230.03 106.97L229.51 106.38L228.98 105.81L228.44 105.25L227.89 104.7L227.32 104.16L226.75 103.63L226.17 103.12L225.57 102.61L224.97 102.12L224.36 101.64L223.74 101.18L223.11 100.72L222.47 100.28L221.82 99.85L221.16 99.43L220.49 99.03L219.82 98.63L219.14 98.25L218.45 97.89L217.75 97.54L217.04 97.2L216.33 96.87L215.6 96.56L214.88 96.26L214.14 95.97L213.39 95.7L212.64 95.45L211.89 95.2L211.12 94.98L210.35 94.76L210.09 94.69L209.83 94.63L209.58 94.56L209.32 94.5L209.06 94.44L208.8 94.38L208.54 94.32L208.28 94.26L208.02 94.21L207.76 94.16L207.5 94.1L207.24 94.06L206.98 94.01L206.72 93.96L206.46 93.92L206.2 93.88L205.94 93.84L205.68 93.8L205.42 93.76L205.16 93.72L204.89 93.69L204.63 93.66L204.37 93.63L204.11 93.6L203.85 93.57L203.59 93.55L203.33 93.53L203.07 93.5L202.81 93.48L202.54 93.47L202.28 93.45L202.02 93.44L201.76 93.42L201.5 93.41L201.24 93.4L200.98 93.39L200.72 93.39L200.46 93.38L200.2 93.38L199.93 93.38L199.42 93.38L198.9 93.39Z" id="f2jxN5hOyc"></path><path d="M315.49 93.52L316.71 93.69L317.92 93.94L319.1 94.26L320.27 94.65L321.41 95.11L322.52 95.64L323.6 96.23L324.65 96.9L325.65 97.63L326.61 98.43L327.53 99.3L328.39 100.23L329.2 101.22L329.96 102.27L330.65 103.39L330.66 103.4L331.28 104.56L331.82 105.74L332.27 106.94L332.64 108.15L332.93 109.38L333.14 110.61L333.27 111.85L333.32 113.09L333.3 114.32L333.2 115.55L333.03 116.77L332.79 117.97L332.47 119.16L332.08 120.32L331.62 121.46L331.09 122.57L330.49 123.65L329.82 124.7L329.09 125.7L328.29 126.66L327.42 127.58L326.49 128.44L325.5 129.26L324.45 130.01L323.33 130.7L322.95 130.91L322.57 131.12L322.19 131.31L321.8 131.5L321.41 131.67L321.02 131.84L320.63 132L320.24 132.15L319.84 132.29L319.44 132.42L319.04 132.55L318.64 132.66L318.24 132.77L317.84 132.86L317.43 132.95L317.03 133.03L316.62 133.1L316.22 133.17L315.81 133.22L315.4 133.27L315 133.3L314.59 133.33L314.18 133.35L313.77 133.37L313.37 133.37L312.54 133.35L311.71 133.3L310.89 133.22L310.07 133.1L309.26 132.95L308.46 132.76L307.66 132.55L306.87 132.3L306.1 132.01L305.33 131.7L304.58 131.36L303.85 130.98L303.12 130.57L302.42 130.13L301.73 129.67L301.06 129.17L300.4 128.64L299.77 128.08L299.16 127.5L298.58 126.88L298.01 126.24L297.47 125.57L296.96 124.87L296.47 124.14L296.02 123.38L295.4 122.22L294.86 121.04L294.41 119.84L294.04 118.63L293.75 117.4L293.53 116.17L293.4 114.93L293.35 113.69L293.37 112.45L293.47 111.22L293.64 110.01L293.88 108.8L294.2 107.62L294.59 106.45L295.05 105.31L295.58 104.2L296.18 103.12L296.85 102.07L297.58 101.07L298.38 100.11L299.25 99.19L300.17 98.33L301.17 97.52L302.22 96.76L303.33 96.07L304.49 95.45L305.68 94.92L306.88 94.47L308.09 94.1L309.32 93.8L310.55 93.59L311.79 93.46L313.03 93.41L314.27 93.43L315.49 93.52ZM317.57 108.24L316.61 107.59L315.57 107.11L314.46 106.82L313.32 106.72L312.76 106.74L312.19 106.82L311.63 106.94L311.08 107.11L310.54 107.33L310.01 107.6L308.6 108.7L307.55 110.08L306.9 111.65L306.67 113.34L306.88 115.06L307.55 116.71L319.11 110.05L307.57 116.72L308.66 118.13L310.03 119.17L311.61 119.82L313.3 120.05L315.01 119.84L316.65 119.17L318.07 118.07L319.12 116.69L319.77 115.12L320 113.43L319.79 111.71L319.11 110.07L319.11 110.06L319.11 110.06L319.11 110.06L319.11 110.05L318.41 109.06L317.57 108.24Z" id="a1priJV1m4"></path><path d="M409.27 320.2L410.54 320.41L411.77 320.69L412.98 321.05L414.16 321.49L415.3 321.99L416.4 322.56L417.46 323.2L418.47 323.9L419.44 324.65L420.36 325.47L421.23 326.34L422.05 327.26L422.8 328.23L423.5 329.24L424.14 330.3L424.71 331.4L425.21 332.54L425.65 333.72L426.01 334.92L426.29 336.16L426.5 337.43L426.62 338.72L426.67 340.03L426.62 341.34L426.5 342.63L426.29 343.9L426.01 345.14L425.65 346.34L425.21 347.52L424.71 348.66L424.14 349.76L423.5 350.82L422.8 351.83L422.05 352.8L421.23 353.72L420.36 354.59L419.44 355.41L418.47 356.16L417.46 356.86L416.4 357.5L415.3 358.07L414.16 358.57L412.98 359.01L411.77 359.37L410.54 359.65L409.27 359.86L407.98 359.99L406.67 360.03L405.35 359.99L404.06 359.86L402.8 359.65L401.56 359.37L400.35 359.01L399.18 358.57L398.04 358.07L396.94 357.5L395.88 356.86L394.86 356.16L393.89 355.41L392.97 354.59L392.1 353.72L391.29 352.8L390.53 351.83L389.83 350.82L389.2 349.76L388.62 348.66L388.12 347.52L387.69 346.34L387.33 345.14L387.04 343.9L386.84 342.63L386.71 341.34L386.67 340.03L386.71 338.72L386.84 337.43L387.04 336.16L387.33 334.92L387.69 333.72L388.12 332.54L388.62 331.4L389.2 330.3L389.83 329.24L390.53 328.23L391.29 327.26L392.1 326.34L392.97 325.47L393.89 324.65L394.86 323.9L395.88 323.2L396.94 322.56L398.04 321.99L399.18 321.49L400.35 321.05L401.56 320.69L402.8 320.41L404.06 320.2L405.35 320.07L406.67 320.03L407.98 320.07L409.27 320.2ZM404.07 333.89L402.94 334.5L401.95 335.32L401.14 336.3L400.52 337.44L400.14 338.69L400 340.03L400.14 341.37L400.52 342.62L401.14 343.76L401.95 344.74L402.94 345.56L404.07 346.17L405.32 346.56L406.67 346.7L408.01 346.56L409.26 346.17L410.39 345.56L411.38 344.74L412.19 343.76L412.81 342.62L413.2 341.37L413.33 340.03L413.2 338.69L412.81 337.44L412.19 336.3L411.38 335.32L410.39 334.5L409.26 333.89L408.01 333.5L406.67 333.36L405.32 333.5L404.07 333.89Z" id="c3CS3RFvFX"></path><path d="M229.27 473.52L230.54 473.73L231.77 474.01L232.98 474.37L234.16 474.8L235.3 475.31L236.4 475.88L237.46 476.52L238.47 477.21L239.44 477.97L240.36 478.79L241.23 479.65L242.05 480.58L242.8 481.54L243.5 482.56L244.14 483.62L244.71 484.72L245.21 485.86L245.65 487.03L246.01 488.24L246.29 489.48L246.5 490.74L246.62 492.03L246.67 493.35L246.62 494.66L246.5 495.95L246.29 497.22L246.01 498.45L245.65 499.66L245.21 500.84L244.71 501.98L244.14 503.08L243.5 504.14L242.8 505.15L242.05 506.12L241.23 507.04L240.36 507.91L239.44 508.72L238.47 509.48L237.46 510.18L236.4 510.82L235.3 511.39L234.16 511.89L232.98 512.32L231.77 512.69L230.54 512.97L229.27 513.18L227.98 513.3L226.67 513.35L225.35 513.3L224.06 513.18L222.8 512.97L221.56 512.69L220.35 512.32L219.18 511.89L218.04 511.39L216.94 510.82L215.88 510.18L214.86 509.48L213.89 508.72L212.97 507.91L212.1 507.04L211.29 506.12L210.53 505.15L209.83 504.14L209.2 503.08L208.62 501.98L208.12 500.84L207.69 499.66L207.33 498.45L207.04 497.22L206.84 495.95L206.71 494.66L206.67 493.35L206.71 492.03L206.84 490.74L207.04 489.48L207.33 488.24L207.69 487.03L208.12 485.86L208.62 484.72L209.2 483.62L209.83 482.56L210.53 481.54L211.29 480.58L212.1 479.65L212.97 478.79L213.89 477.97L214.86 477.21L215.88 476.52L216.94 475.88L218.04 475.31L219.18 474.8L220.35 474.37L221.56 474.01L222.8 473.73L224.06 473.52L225.35 473.39L226.67 473.35L227.98 473.39L229.27 473.52ZM224.07 487.21L222.94 487.82L221.95 488.64L221.14 489.62L220.52 490.75L220.14 492.01L220 493.35L220.14 494.69L220.52 495.94L221.14 497.07L221.95 498.06L222.94 498.87L224.07 499.49L225.32 499.88L226.67 500.01L228.01 499.88L229.26 499.49L230.39 498.87L231.38 498.06L232.19 497.07L232.81 495.94L233.2 494.69L233.33 493.35L233.2 492.01L232.81 490.75L232.19 489.62L231.38 488.64L230.39 487.82L229.26 487.21L228.01 486.82L226.67 486.68L225.32 486.82L224.07 487.21Z" id="f3asm3TY18"></path><path d="M100 393.36C100 354.51 108.36 313.31 122.36 283.13C125.47 276.44 133.39 273.55 140.07 276.64C146.75 279.74 149.65 287.67 146.56 294.35C134.1 321.19 126.67 358.2 126.67 393.36C126.67 514.65 225.36 613.34 346.67 613.34C467.98 613.34 566.67 514.65 566.67 393.36C566.67 275.67 474.65 179.15 357.19 173.63C349.84 173.28 344.15 167.04 344.5 159.68C344.85 152.33 351.22 146.85 358.44 146.99C490.16 153.19 593.33 261.4 593.33 393.36C593.33 529.36 482.68 640 346.67 640C210.65 640 100 529.36 100 393.36Z" id="aowQvvqWk"></path><path d="M572.01 378.44C485.2 330.13 415.85 257.66 371.46 168.87C368.16 162.29 370.83 154.28 377.42 150.99C384.02 147.68 392.02 150.36 395.31 156.95C437.29 240.91 502.88 309.45 584.97 355.15C591.41 358.73 593.72 366.85 590.14 373.28C587.7 377.66 583.16 380.13 578.48 380.13C576.28 380.13 574.06 379.59 572.01 378.44Z" id="j108NHz1BC"></path><path d="M326.43 638.09C304.06 626.49 287.83 609.05 279.49 587.67C270.22 563.95 271.37 537.69 282.8 511.74C299.13 474.67 333.95 443.59 378.31 426.45C455.77 396.52 537.51 420.11 560.51 479.01C563.29 486.13 565.16 493.6 566.04 501.23C566.89 508.54 561.66 515.16 554.34 516.01C547.12 516.89 540.4 511.64 539.56 504.32C538.93 498.96 537.62 493.71 535.67 488.71C518 443.45 451.71 426.69 387.92 451.31C350.68 465.71 320.5 492.31 307.21 522.49C298.69 541.81 297.7 561 304.33 577.97C310.29 593.24 322.17 605.84 338.7 614.42C345.24 617.81 347.79 625.87 344.4 632.4C342.02 636.97 337.38 639.59 332.55 639.59C330.49 639.59 328.39 639.11 326.43 638.09Z" id="dfeVwzmp9"></path><path d="M110.04 434.24C103.23 431.45 99.97 423.65 102.77 416.84C105.57 410.04 113.37 406.76 120.17 409.58C137.04 416.51 154.93 420.02 173.33 420.02C250.53 420.02 313.33 357.22 313.33 280.04C313.33 251.58 304.85 224.2 288.8 200.85C284.64 194.78 286.17 186.48 292.24 182.31C298.31 178.15 306.61 179.68 310.78 185.75C329.9 213.56 340 246.17 340 280.04C340 371.93 265.23 446.69 173.33 446.69C151.44 446.69 130.14 442.5 110.04 434.24Z" id="a7K9QaFWU9"></path><path d="M323.99 476.13C317.81 469.12 268.4 413.03 262.22 406.02C257.36 400.49 257.88 392.07 263.41 387.2C268.93 382.33 277.36 382.87 282.23 388.39C288.41 395.4 337.83 451.49 344 458.5C348.87 464.03 348.34 472.45 342.81 477.32C340.28 479.55 337.14 480.65 334 480.65C330.31 480.65 326.63 479.12 323.99 476.13Z" id="g18RAkcrrr"></path><path d="M504.48 453.46C497.31 451.8 492.84 444.63 494.51 437.45C496.91 427.1 516.11 344.26 518.52 333.9C520.18 326.73 527.32 322.26 534.52 323.93C541.69 325.59 546.16 332.76 544.49 339.93C542.09 350.29 522.88 433.13 520.48 443.48C519.06 449.64 513.57 453.8 507.51 453.8C506.51 453.8 505.49 453.69 504.48 453.46Z" id="aGwRnGAHK"></path><path d="M302.94 226.34C301.53 219.12 306.24 212.12 313.48 210.71C322.65 208.93 396.05 194.64 405.23 192.85C412.44 191.42 419.45 196.15 420.86 203.39C422.27 210.62 417.55 217.61 410.32 219.02C401.14 220.81 327.74 235.1 318.57 236.88C317.71 237.05 316.86 237.13 316.01 237.13C309.75 237.13 304.17 232.72 302.94 226.34Z" id="d6eQDcQVqm"></path><path d="M13.33 640C5.97 640 0 634.03 0 626.67C0 619.31 5.97 613.34 13.33 613.34C16.67 613.34 43.33 613.34 46.67 613.34C54.03 613.34 60 619.31 60 626.67C60 634.03 54.03 640 46.67 640C40 640 16.67 640 13.33 640Z" id="b2qAQZ84TE"></path><path d="M100 640C92.64 640 86.67 634.03 86.67 626.67C86.67 619.31 92.64 613.34 100 613.34C142.67 613.34 484 613.34 526.67 613.34C534.03 613.34 540 619.31 540 626.67C540 634.03 534.03 640 526.67 640C441.33 640 142.67 640 100 640Z" id="b47LvFMQQk"></path><path d="M580 640C572.64 640 566.67 634.03 566.67 626.67C566.67 619.31 572.64 613.34 580 613.34C584.67 613.34 622 613.34 626.67 613.34C634.03 613.34 640 619.31 640 626.67C640 634.03 634.03 640 626.67 640C617.33 640 584.67 640 580 640Z" id="b2w5l3bsM4"></path><path d="M118.16 291.86C117.4 284.54 122.72 277.99 130.05 277.23C137.48 276.4 143.93 281.8 144.68 289.12C147.03 311.81 166.04 328.92 188.89 328.92C213.39 328.92 233.33 308.98 233.33 284.48C233.33 270.31 226.48 256.86 214.99 248.51C209.04 244.18 207.72 235.84 212.06 229.88C216.38 223.93 224.72 222.61 230.68 226.95C249.04 240.29 260 261.8 260 284.48C260 323.68 228.1 355.58 188.89 355.58C152.32 355.58 121.91 328.19 118.16 291.86Z" id="b62Yr6WJ5X"></path><path d="M439.71 493.58L441.13 493.65L442.55 493.74L443.95 493.86L445.35 494.01L446.74 494.19L448.12 494.4L449.49 494.64L450.84 494.9L452.19 495.19L453.53 495.51L454.85 495.86L456.16 496.24L457.46 496.64L458.75 497.07L460.02 497.53L461.28 498.02L462.52 498.53L463.75 499.08L464.96 499.65L466.16 500.24L467.34 500.87L468.5 501.52L469.64 502.2L470.77 502.91L471.66 503.5L472.54 504.11L473.41 504.73L474.25 505.37L475.08 506.02L475.9 506.68L476.69 507.36L477.47 508.06L478.24 508.76L478.98 509.49L479.71 510.22L480.42 510.97L481.12 511.73L481.8 512.51L482.45 513.29L483.09 514.09L483.72 514.91L484.32 515.73L484.91 516.57L485.48 517.41L486.02 518.27L486.55 519.14L487.07 520.03L487.56 520.92L488.03 521.82L488.49 522.74L488.92 523.66L489.34 524.59L489.73 525.54L490.11 526.49L490.46 527.45L490.8 528.43L491.11 529.41L491.41 530.4L491.68 531.39L491.94 532.4L492.17 533.42L492.38 534.44L492.57 535.47L492.74 536.51L493.05 538.85L493.24 541.2L493.33 543.55L493.32 545.89L493.2 548.23L492.98 550.57L492.66 552.89L492.24 555.2L491.73 557.5L491.12 559.79L490.42 562.06L489.62 564.3L488.74 566.53L487.77 568.73L486.71 570.9L485.57 573.05L484.34 575.16L483.03 577.24L481.65 579.29L480.18 581.3L478.64 583.27L477.02 585.2L475.33 587.08L473.57 588.92L471.74 590.7L469.84 592.44L467.87 594.13L465.84 595.76L463.74 597.33L461.59 598.84L459.37 600.29L457.1 601.68L454.76 603L452.38 604.26L449.94 605.44L447.45 606.55L444.91 607.59L442.32 608.55L439.68 609.43L437 610.22L436.47 610.37L435.95 610.51L435.42 610.65L434.9 610.78L434.37 610.91L433.85 611.04L433.32 611.16L432.8 611.28L432.27 611.4L431.75 611.51L431.23 611.62L430.7 611.72L430.18 611.82L429.65 611.92L429.13 612.01L428.61 612.1L428.08 612.19L427.56 612.27L427.04 612.35L426.51 612.42L425.99 612.49L425.47 612.56L424.95 612.62L424.43 612.68L423.91 612.74L423.39 612.79L422.87 612.84L422.35 612.89L421.83 612.93L421.31 612.97L420.8 613L420.28 613.03L419.76 613.06L419.25 613.08L418.73 613.1L418.22 613.12L417.71 613.13L417.19 613.14L416.68 613.15L416.17 613.15L415.25 613.14L414.32 613.12L413.41 613.09L412.49 613.05L411.58 613L410.67 612.93L409.76 612.86L408.86 612.77L407.96 612.67L407.06 612.55L406.17 612.43L405.28 612.29L404.4 612.15L403.52 611.99L402.64 611.82L401.77 611.63L400.91 611.44L400.05 611.23L399.19 611.01L398.34 610.78L397.49 610.54L396.65 610.29L395.82 610.03L394.99 609.75L394.16 609.46L393.34 609.16L392.53 608.85L391.72 608.53L390.92 608.2L390.13 607.85L389.34 607.5L388.56 607.13L387.79 606.75L387.02 606.36L386.26 605.96L385.51 605.54L384.76 605.12L384.02 604.68L383.29 604.23L382.57 603.77L381.67 603.18L380.79 602.58L379.93 601.96L379.08 601.32L378.25 600.67L377.44 600L376.64 599.32L375.86 598.63L375.1 597.92L374.35 597.2L373.62 596.46L372.91 595.71L372.21 594.95L371.54 594.18L370.88 593.39L370.24 592.59L369.62 591.78L369.01 590.95L368.43 590.12L367.86 589.27L367.31 588.41L366.78 587.54L366.27 586.66L365.77 585.76L365.3 584.86L364.85 583.95L364.41 583.02L364 582.09L363.6 581.14L363.23 580.19L362.87 579.23L362.54 578.26L362.22 577.27L361.93 576.28L361.65 575.29L361.4 574.28L361.17 573.26L360.95 572.24L360.76 571.21L360.59 570.17L360.29 567.82L360.09 565.48L360 563.13L360.02 560.79L360.14 558.45L360.36 556.11L360.67 553.79L361.09 551.48L361.61 549.18L362.22 546.89L362.92 544.63L363.71 542.38L364.59 540.15L365.57 537.95L366.62 535.78L367.77 533.63L368.99 531.52L370.3 529.44L371.69 527.39L373.15 525.38L374.7 523.41L376.31 521.49L378 519.6L379.77 517.77L381.6 515.98L383.5 514.24L385.46 512.56L387.5 510.93L389.59 509.35L391.75 507.84L393.96 506.39L396.24 505L398.57 503.68L400.96 502.43L403.4 501.24L405.89 500.13L408.43 499.1L411.02 498.14L413.65 497.26L416.33 496.46L417.81 496.06L419.29 495.69L420.77 495.35L422.24 495.04L423.72 494.76L425.19 494.51L426.66 494.29L428.13 494.09L429.59 493.93L431.05 493.79L432.51 493.69L433.96 493.61L435.41 493.56L436.85 493.54L438.28 493.55L439.71 493.58ZM436.57 520.19L436.24 520.19L435.91 520.2L435.57 520.21L435.24 520.22L434.9 520.24L434.57 520.26L434.23 520.28L433.89 520.3L433.55 520.33L433.22 520.36L432.88 520.39L432.54 520.42L432.2 520.45L431.85 520.49L431.51 520.53L431.17 520.57L430.83 520.62L430.48 520.67L430.14 520.72L429.79 520.77L429.45 520.82L429.1 520.88L428.76 520.94L428.41 521L428.06 521.07L427.72 521.14L427.37 521.2L427.02 521.28L426.67 521.35L426.32 521.43L425.97 521.51L425.62 521.59L425.27 521.67L424.92 521.76L424.57 521.85L424.22 521.94L423.87 522.04L423.52 522.13L421.84 522.63L420.19 523.18L418.56 523.78L416.95 524.43L415.38 525.12L413.83 525.85L412.31 526.63L410.82 527.45L409.36 528.31L407.93 529.2L406.54 530.14L405.19 531.1L403.87 532.11L402.59 533.14L401.35 534.2L400.15 535.29L398.99 536.41L397.88 537.56L396.81 538.73L395.79 539.92L394.81 541.13L393.88 542.37L393.01 543.62L392.18 544.88L391.4 546.17L390.68 547.46L390.02 548.77L389.41 550.09L388.86 551.41L388.36 552.75L387.93 554.09L387.56 555.43L387.25 556.78L387 558.12L386.82 559.47L386.71 560.81L386.67 562.15L386.69 563.49L386.78 564.82L386.95 566.14L387.05 566.73L387.16 567.32L387.28 567.89L387.42 568.44L387.57 568.99L387.73 569.52L387.9 570.05L388.09 570.56L388.28 571.05L388.49 571.54L388.7 572.02L388.92 572.48L389.15 572.94L389.39 573.38L389.64 573.81L389.89 574.23L390.16 574.64L390.42 575.04L390.7 575.43L390.97 575.81L391.26 576.18L391.55 576.54L391.84 576.88L392.14 577.22L392.44 577.55L392.74 577.87L393.04 578.18L393.35 578.48L393.66 578.77L393.97 579.05L394.28 579.32L394.59 579.59L394.9 579.84L395.21 580.08L395.52 580.32L395.82 580.55L396.13 580.77L396.43 580.98L396.73 581.18L397.02 581.37L397.67 581.78L398.32 582.16L398.99 582.53L399.67 582.89L400.37 583.22L401.07 583.54L401.78 583.85L402.51 584.14L403.25 584.41L404 584.66L404.75 584.9L405.52 585.13L406.3 585.33L407.08 585.52L407.88 585.69L408.68 585.85L409.49 585.99L410.31 586.11L411.14 586.22L411.98 586.31L412.82 586.38L413.67 586.44L414.53 586.48L415.39 586.5L416.26 586.5L417.13 586.49L418.01 586.46L418.9 586.42L419.79 586.36L420.68 586.28L421.58 586.18L422.48 586.07L423.39 585.94L424.3 585.79L425.21 585.63L426.13 585.45L427.04 585.25L427.96 585.03L428.89 584.8L429.81 584.55L431.49 584.05L433.14 583.5L434.77 582.9L436.38 582.26L437.96 581.57L439.51 580.83L441.03 580.05L442.52 579.24L443.98 578.38L445.4 577.48L446.79 576.55L448.15 575.58L449.46 574.58L450.74 573.55L451.98 572.48L453.18 571.39L454.34 570.27L455.45 569.12L456.52 567.95L457.55 566.76L458.52 565.55L459.45 564.32L460.33 563.07L461.15 561.8L461.93 560.52L462.65 559.22L463.31 557.91L463.92 556.6L464.48 555.27L464.97 553.94L465.4 552.6L465.77 551.25L466.08 549.91L466.33 548.56L466.51 547.21L466.62 545.87L466.67 544.53L466.65 543.19L466.55 541.86L466.39 540.54L466.39 540.54L466.29 539.94L466.18 539.36L466.05 538.79L465.91 538.24L465.76 537.69L465.6 537.16L465.43 536.63L465.24 536.12L465.05 535.63L464.85 535.14L464.63 534.66L464.41 534.2L464.18 533.75L463.94 533.3L463.69 532.87L463.44 532.45L463.18 532.04L462.91 531.64L462.64 531.25L462.36 530.87L462.07 530.51L461.79 530.15L461.49 529.8L461.2 529.46L460.9 529.13L460.59 528.81L460.29 528.5L459.98 528.2L459.67 527.91L459.36 527.63L459.05 527.36L458.74 527.1L458.43 526.84L458.12 526.6L457.82 526.36L457.51 526.14L457.21 525.92L456.9 525.71L456.6 525.5L456.31 525.31L455.91 525.06L455.51 524.81L455.1 524.57L454.69 524.34L454.27 524.11L453.85 523.89L453.42 523.68L452.99 523.47L452.56 523.27L452.12 523.08L451.67 522.89L451.23 522.7L450.77 522.53L450.32 522.36L449.86 522.19L449.39 522.04L448.92 521.89L448.45 521.74L447.98 521.6L447.5 521.47L447.01 521.35L446.53 521.23L446.04 521.11L445.54 521.01L445.04 520.91L444.54 520.81L444.04 520.73L443.53 520.65L443.02 520.57L442.51 520.5L441.99 520.44L441.48 520.39L440.95 520.34L440.43 520.3L439.9 520.26L439.37 520.23L438.84 520.21L438.31 520.19L437.77 520.18L437.23 520.18L436.9 520.18L436.57 520.19Z" id="bf2eWvwSD"></path></defs><g><g><g><use xlink:href="#b3PZYi5Yg" opacity="1" fill="#ff8d00" fill-opacity="1"></use><g><use xlink:href="#b3PZYi5Yg" opacity="1" fill-opacity="0" stroke="#000000" stroke-width="1" stroke-opacity="0"></use></g></g><g><use xlink:href="#a5nRxpP45" opacity="1" fill="#ff8d00" fill-opacity="1"></use><g><use xlink:href="#a5nRxpP45" opacity="1" fill-opacity="0" stroke="#000000" stroke-width="1" stroke-opacity="0"></use></g></g><g><use xlink:href="#f2jxN5hOyc" opacity="1" fill="#ff8d00" fill-opacity="1"></use><g><use xlink:href="#f2jxN5hOyc" opacity="1" fill-opacity="0" stroke="#000000" stroke-width="1" stroke-opacity="0"></use></g></g><g><use xlink:href="#a1priJV1m4" opacity="1" fill="#ff8d00" fill-opacity="1"></use><g><use xlink:href="#a1priJV1m4" opacity="1" fill-opacity="0" stroke="#000000" stroke-width="1" stroke-opacity="0"></use></g></g><g><use xlink:href="#c3CS3RFvFX" opacity="1" fill="#ff8d00" fill-opacity="1"></use><g><use xlink:href="#c3CS3RFvFX" opacity="1" fill-opacity="0" stroke="#000000" stroke-width="1" stroke-opacity="0"></use></g></g><g><use xlink:href="#f3asm3TY18" opacity="1" fill="#ff8d00" fill-opacity="1"></use><g><use xlink:href="#f3asm3TY18" opacity="1" fill-opacity="0" stroke="#000000" stroke-width="1" stroke-opacity="0"></use></g></g><g><use xlink:href="#aowQvvqWk" opacity="1" fill="#ff8d00" fill-opacity="1"></use><g><use xlink:href="#aowQvvqWk" opacity="1" fill-opacity="0" stroke="#000000" stroke-width="1" stroke-opacity="0"></use></g></g><g><use xlink:href="#j108NHz1BC" opacity="1" fill="#ff8d00" fill-opacity="1"></use><g><use xlink:href="#j108NHz1BC" opacity="1" fill-opacity="0" stroke="#000000" stroke-width="1" stroke-opacity="0"></use></g></g><g><use xlink:href="#dfeVwzmp9" opacity="1" fill="#ff8d00" fill-opacity="1"></use><g><use xlink:href="#dfeVwzmp9" opacity="1" fill-opacity="0" stroke="#000000" stroke-width="1" stroke-opacity="0"></use></g></g><g><use xlink:href="#a7K9QaFWU9" opacity="1" fill="#ff8d00" fill-opacity="1"></use><g><use xlink:href="#a7K9QaFWU9" opacity="1" fill-opacity="0" stroke="#000000" stroke-width="1" stroke-opacity="0"></use></g></g><g><use xlink:href="#g18RAkcrrr" opacity="1" fill="#ff8d00" fill-opacity="1"></use><g><use xlink:href="#g18RAkcrrr" opacity="1" fill-opacity="0" stroke="#000000" stroke-width="1" stroke-opacity="0"></use></g></g><g><use xlink:href="#aGwRnGAHK" opacity="1" fill="#ff8d00" fill-opacity="1"></use><g><use xlink:href="#aGwRnGAHK" opacity="1" fill-opacity="0" stroke="#000000" stroke-width="1" stroke-opacity="0"></use></g></g><g><use xlink:href="#d6eQDcQVqm" opacity="1" fill="#ff8d00" fill-opacity="1"></use><g><use xlink:href="#d6eQDcQVqm" opacity="1" fill-opacity="0" stroke="#000000" stroke-width="1" stroke-opacity="0"></use></g></g><g><use xlink:href="#b2qAQZ84TE" opacity="1" fill="#ff8d00" fill-opacity="1"></use><g><use xlink:href="#b2qAQZ84TE" opacity="1" fill-opacity="0" stroke="#000000" stroke-width="1" stroke-opacity="0"></use></g></g><g><use xlink:href="#b47LvFMQQk" opacity="1" fill="#ff8d00" fill-opacity="1"></use><g><use xlink:href="#b47LvFMQQk" opacity="1" fill-opacity="0" stroke="#000000" stroke-width="1" stroke-opacity="0"></use></g></g><g><use xlink:href="#b2w5l3bsM4" opacity="1" fill="#ff8d00" fill-opacity="1"></use><g><use xlink:href="#b2w5l3bsM4" opacity="1" fill-opacity="0" stroke="#000000" stroke-width="1" stroke-opacity="0"></use></g></g><g><use xlink:href="#b62Yr6WJ5X" opacity="1" fill="#ff8d00" fill-opacity="1"></use><g><use xlink:href="#b62Yr6WJ5X" opacity="1" fill-opacity="0" stroke="#000000" stroke-width="1" stroke-opacity="0"></use></g></g><g><use xlink:href="#bf2eWvwSD" opacity="1" fill="#ff8d00" fill-opacity="1"></use><g><use xlink:href="#bf2eWvwSD" opacity="1" fill-opacity="0" stroke="#000000" stroke-width="1" stroke-opacity="0"></use></g></g></g></g></svg>