<?xml version="1.0" encoding="UTF-8" standalone="no"?>
<!DOCTYPE svg PUBLIC "-//W3C//DTD SVG 1.1//EN" "http://www.w3.org/Graphics/SVG/1.1/DTD/svg11.dtd">
<svg version="1.1" xmlns="http://www.w3.org/2000/svg" xmlns:xlink="http://www.w3.org/1999/xlink" preserveAspectRatio="xMidYMid meet" viewBox="-0.9999999999998153 -0.9999999999998863 643.9999999999999 641.8813056379822" width="640" height="637.88"><defs><path d="M346.09 429.74C339.93 425.73 338.2 417.49 342.22 411.35C346.23 405.2 354.49 403.47 360.65 407.48C369.49 413.24 402.27 419.18 439.8 418.89C447.05 418.51 453.17 424.71 453.24 432.05C453.31 439.39 447.41 445.39 440.05 445.46C438.96 445.47 437.86 445.48 436.75 445.48C403.12 445.48 362.91 440.69 346.09 429.74Z" id="aGQiecvvZ"></path><path d="M200.1 445.46C192.74 445.39 186.84 439.25 186.91 431.91C186.98 424.61 192.92 418.61 200.22 418.61C200.26 418.61 200.31 418.61 200.35 418.61C237.93 418.61 270.65 413.1 279.5 407.34C285.67 403.33 293.92 405.13 297.93 411.28C301.95 417.42 300.22 425.69 294.06 429.7C277.25 440.66 237.03 445.48 203.4 445.48C202.29 445.48 201.19 445.47 200.1 445.46Z" id="fmgL3GScF"></path><path d="M293.44 245.85C286.09 245.85 280.12 239.9 280.12 232.56C280.12 229.24 280.12 202.66 280.12 199.34C280.12 192 286.09 186.05 293.44 186.05C300.8 186.05 306.76 192 306.76 199.34C306.76 200.67 306.76 207.31 306.76 219.27L333.39 219.27L333.39 26.58L306.76 26.58C306.76 90.37 306.76 125.8 306.76 132.89C306.76 140.23 300.8 146.18 293.44 146.18C286.09 146.18 280.12 140.23 280.12 132.89C280.12 120.93 280.12 25.25 280.12 13.29C280.12 5.95 286.09 0 293.44 0C298.77 0 341.38 0 346.71 0C354.06 0 360.03 5.95 360.03 13.29C360.03 35.22 360.03 210.63 360.03 232.56C360.03 239.9 354.06 245.85 346.71 245.85C336.06 245.85 298.77 245.85 293.44 245.85Z" id="afXg1H8n"></path><path d="M323.95 372.24L325.85 372.42L327.73 372.67L329.58 372.99L331.4 373.38L333.2 373.83L334.96 374.35L336.69 374.93L338.38 375.57L340.04 376.27L341.67 377.03L343.26 377.85L344.8 378.73L346.31 379.66L347.77 380.64L349.19 381.68L350.57 382.77L351.9 383.9L353.18 385.09L354.41 386.33L355.6 387.6L356.73 388.93L357.81 390.3L358.83 391.7L359.8 393.15L360.71 394.64L361.56 396.17L362.35 397.73L363.08 399.33L363.74 400.96L364.35 402.63L364.88 404.32L365.35 406.05L365.75 407.8L366.08 409.58L366.35 411.39L366.53 413.22L366.65 415.07L366.68 416.95L366.68 451.83L366.67 452.38L366.64 452.92L366.59 453.46L366.51 453.99L366.41 454.51L366.3 455.03L366.16 455.53L366.01 456.03L365.83 456.52L365.64 457.01L365.43 457.48L365.2 457.94L364.95 458.39L364.69 458.83L364.41 459.26L364.11 459.68L363.8 460.09L363.48 460.48L363.14 460.86L362.78 461.23L362.42 461.58L362.03 461.92L361.64 462.25L361.23 462.56L360.81 462.85L360.38 463.13L359.94 463.39L359.49 463.64L359.02 463.87L358.55 464.08L358.07 464.27L357.58 464.44L357.08 464.6L356.57 464.74L356.05 464.85L355.53 464.95L355 465.02L354.46 465.08L353.92 465.11L353.37 465.12L286.78 465.12L286.23 465.11L285.69 465.08L285.15 465.02L284.62 464.95L284.1 464.85L283.58 464.74L283.07 464.6L282.57 464.44L282.08 464.27L281.6 464.08L281.13 463.87L280.66 463.64L280.21 463.39L279.77 463.13L279.34 462.85L278.92 462.56L278.51 462.25L278.12 461.92L277.73 461.58L277.37 461.23L277.01 460.86L276.67 460.48L276.35 460.09L276.04 459.68L275.74 459.26L275.46 458.83L275.2 458.39L274.95 457.94L274.72 457.48L274.51 457.01L274.32 456.52L274.14 456.03L273.99 455.53L273.85 455.03L273.74 454.51L273.64 453.99L273.56 453.46L273.51 452.92L273.48 452.38L273.47 451.83L273.47 416.95L273.5 415.07L273.62 413.22L273.81 411.39L274.07 409.58L274.4 407.8L274.8 406.05L275.27 404.32L275.8 402.63L276.41 400.96L277.07 399.33L277.8 397.73L278.59 396.17L279.44 394.64L280.35 393.15L281.32 391.7L282.34 390.3L283.42 388.93L284.55 387.6L285.74 386.33L286.97 385.09L288.25 383.9L289.58 382.77L290.96 381.68L292.38 380.64L293.84 379.66L295.35 378.73L296.9 377.85L298.48 377.03L300.11 376.27L301.77 375.57L303.46 374.93L305.19 374.35L306.95 373.83L308.75 373.38L310.57 372.99L312.42 372.67L314.3 372.42L316.2 372.24L318.13 372.13L320.08 372.1L322.02 372.13L323.95 372.24ZM317.65 398.79L316.47 398.93L315.32 399.13L314.21 399.38L313.12 399.69L312.07 400.04L311.05 400.45L310.07 400.9L309.13 401.4L308.22 401.94L307.35 402.53L306.53 403.17L305.75 403.84L305.01 404.56L304.32 405.31L303.67 406.1L303.08 406.93L302.53 407.8L302.04 408.7L301.59 409.63L301.21 410.59L300.87 411.58L300.6 412.6L300.38 413.65L300.23 414.73L300.13 415.83L300.1 416.95L300.1 438.54L340.05 438.54L340.05 416.95L340.02 415.83L339.92 414.73L339.77 413.65L339.55 412.6L339.28 411.58L338.94 410.59L338.56 409.63L338.11 408.7L337.62 407.8L337.07 406.93L336.48 406.1L335.83 405.31L335.14 404.56L334.4 403.84L333.62 403.17L332.8 402.53L331.93 401.94L331.02 401.4L330.08 400.9L329.1 400.45L328.08 400.04L327.03 399.69L325.94 399.38L324.83 399.13L323.68 398.93L322.5 398.79L321.3 398.71L320.08 398.68L318.85 398.71L317.65 398.79Z" id="a2aTtFRxaa"></path><path d="M208.21 531.59L208.87 531.63L209.53 531.67L210.19 531.73L210.84 531.8L211.49 531.88L212.14 531.98L212.79 532.09L213.43 532.21L214.06 532.34L214.7 532.48L215.33 532.64L215.96 532.81L216.58 532.99L217.2 533.19L217.81 533.39L218.42 533.61L219.03 533.84L219.63 534.08L220.22 534.33L220.82 534.6L221.4 534.88L221.98 535.16L222.56 535.46L223.12 535.78L223.69 536.1L224.25 536.43L224.8 536.78L225.34 537.13L225.88 537.5L226.41 537.88L226.94 538.27L227.46 538.67L227.97 539.08L228.48 539.5L228.97 539.94L229.46 540.38L229.95 540.84L230.42 541.3L230.89 541.78L231.34 542.26L231.79 542.75L232.22 543.24L232.65 543.75L233.06 544.26L233.46 544.78L233.85 545.3L234.23 545.83L234.6 546.37L234.95 546.91L235.3 547.46L235.64 548.02L235.96 548.58L236.27 549.15L236.57 549.72L236.86 550.3L237.14 550.89L237.4 551.48L237.65 552.07L237.9 552.67L238.13 553.27L238.35 553.88L238.55 554.5L238.75 555.11L238.93 555.73L239.1 556.36L239.26 556.99L239.4 557.62L239.53 558.26L239.65 558.9L239.76 559.54L239.86 560.19L239.94 560.84L240.01 561.49L240.07 562.15L240.12 562.8L240.15 563.46L240.17 564.13L240.17 564.79L240.17 565.46L240.15 566.12L240.12 566.78L240.07 567.44L240.01 568.09L239.94 568.74L239.86 569.39L239.76 570.04L239.65 570.68L239.53 571.32L239.4 571.96L239.26 572.59L239.1 573.22L238.93 573.85L238.75 574.47L238.55 575.09L238.35 575.7L238.13 576.31L237.9 576.91L237.66 577.51L237.4 578.1L237.14 578.69L236.86 579.28L236.57 579.86L236.27 580.43L235.96 581L235.64 581.56L235.3 582.12L234.96 582.67L234.6 583.21L234.23 583.75L233.85 584.28L233.46 584.8L233.06 585.32L232.65 585.83L232.22 586.34L231.79 586.83L231.34 587.32L230.89 587.81L230.42 588.28L230.42 588.28L229.94 588.75L229.46 589.2L228.97 589.65L228.47 590.08L227.97 590.5L227.46 590.91L226.94 591.32L226.41 591.71L225.88 592.08L225.34 592.45L224.79 592.81L224.24 593.15L223.69 593.49L223.12 593.81L222.55 594.12L221.98 594.42L221.4 594.71L220.81 594.98L220.22 595.25L219.63 595.5L219.03 595.74L218.42 595.97L217.81 596.19L217.2 596.4L216.58 596.59L215.96 596.77L215.33 596.94L214.7 597.1L214.06 597.24L213.43 597.38L212.78 597.5L212.14 597.6L211.49 597.7L210.84 597.78L210.19 597.85L209.53 597.91L208.87 597.96L208.21 597.99L207.55 598.01L206.88 598.01L206.22 598.01L205.55 597.99L204.89 597.96L204.23 597.91L203.57 597.85L202.92 597.78L202.27 597.7L201.62 597.6L200.98 597.5L200.34 597.38L199.7 597.24L199.06 597.1L198.43 596.94L197.81 596.77L197.18 596.59L196.56 596.39L195.95 596.19L195.34 595.97L194.73 595.74L194.13 595.5L193.54 595.25L192.95 594.98L192.36 594.71L191.78 594.42L191.21 594.12L190.64 593.81L190.07 593.48L189.52 593.15L188.97 592.8L188.42 592.45L187.88 592.08L187.35 591.7L186.82 591.31L186.3 590.91L185.79 590.5L185.29 590.08L184.79 589.64L184.3 589.2L183.81 588.75L183.34 588.28L182.87 587.81L182.42 587.32L181.97 586.84L181.54 586.34L181.12 585.83L180.7 585.32L180.3 584.81L179.91 584.28L179.53 583.75L179.16 583.21L178.81 582.67L178.46 582.12L178.13 581.56L177.8 581L177.49 580.43L177.19 579.86L176.9 579.28L176.63 578.7L176.36 578.11L176.11 577.51L175.87 576.91L175.64 576.31L175.42 575.7L175.21 575.09L175.02 574.47L174.83 573.85L174.66 573.22L174.51 572.59L174.36 571.96L174.23 571.32L174.11 570.68L174 570.04L173.9 569.39L173.82 568.74L173.75 568.09L173.69 567.44L173.65 566.78L173.61 566.12L173.6 565.46L173.59 564.79L173.6 564.13L173.61 563.46L173.65 562.8L173.69 562.15L173.75 561.49L173.82 560.84L173.9 560.19L174 559.54L174.11 558.9L174.23 558.26L174.36 557.62L174.51 556.99L174.66 556.36L174.83 555.73L175.02 555.11L175.21 554.49L175.42 553.88L175.64 553.27L175.87 552.67L176.11 552.07L176.36 551.48L176.63 550.89L176.9 550.3L177.19 549.72L177.49 549.15L177.8 548.58L178.13 548.02L178.46 547.46L178.81 546.91L179.17 546.37L179.53 545.83L179.91 545.3L180.3 544.77L180.71 544.26L181.12 543.74L181.54 543.24L181.98 542.74L182.42 542.25L182.88 541.77L183.34 541.3L183.82 540.83L184.3 540.38L184.79 539.93L185.29 539.5L185.79 539.08L186.31 538.67L186.82 538.27L187.35 537.88L187.88 537.5L188.42 537.13L188.97 536.78L189.52 536.43L190.08 536.1L190.64 535.77L191.21 535.46L191.78 535.16L192.36 534.88L192.95 534.6L193.54 534.33L194.13 534.08L194.73 533.84L195.34 533.61L195.95 533.39L196.56 533.19L197.18 532.99L197.81 532.81L198.43 532.64L199.06 532.48L199.7 532.34L200.34 532.21L200.98 532.09L201.62 531.98L202.27 531.88L202.92 531.8L203.57 531.73L204.23 531.67L204.89 531.63L205.55 531.59L206.22 531.57L206.88 531.57L207.55 531.57L208.21 531.59ZM205.95 558.21L205.39 558.32L204.78 558.48L204.14 558.73L203.48 559.07L202.82 559.52L202.18 560.09L201.6 560.74L201.15 561.4L200.81 562.05L200.56 562.69L200.39 563.3L200.29 563.86L200.24 564.36L200.22 564.79L200.24 565.22L200.29 565.72L200.39 566.28L200.56 566.89L200.81 567.53L201.15 568.18L201.6 568.84L202.17 569.49L202.82 570.06L203.48 570.51L204.14 570.85L204.78 571.1L205.39 571.27L205.95 571.37L206.45 571.42L206.88 571.44L207.31 571.42L207.81 571.37L208.38 571.27L208.98 571.1L209.62 570.85L210.28 570.51L210.94 570.06L211.59 569.49L211.59 569.49L212.16 568.84L212.61 568.18L212.95 567.53L213.2 566.89L213.37 566.28L213.47 565.72L213.53 565.22L213.54 564.79L213.53 564.36L213.47 563.86L213.37 563.3L213.2 562.69L212.95 562.05L212.61 561.4L212.16 560.74L211.59 560.1L210.94 559.53L210.28 559.08L209.63 558.73L208.99 558.48L208.38 558.32L207.81 558.21L207.31 558.16L206.88 558.15L206.45 558.16L205.95 558.21Z" id="auSR41SMi"></path><path d="M434.6 531.59L435.26 531.63L435.92 531.67L436.58 531.73L437.23 531.8L437.88 531.88L438.53 531.98L439.17 532.09L439.81 532.21L440.45 532.34L441.09 532.48L441.72 532.64L442.34 532.81L442.97 532.99L443.58 533.19L444.2 533.39L444.81 533.61L445.41 533.84L446.01 534.08L446.61 534.33L447.2 534.6L447.79 534.87L448.37 535.16L448.94 535.46L449.51 535.77L450.07 536.1L450.63 536.43L451.18 536.77L451.73 537.13L452.27 537.5L452.8 537.88L453.32 538.27L453.84 538.67L454.36 539.08L454.86 539.5L455.36 539.93L455.85 540.38L456.33 540.83L456.81 541.3L456.81 541.3L457.28 541.78L457.73 542.26L458.18 542.75L458.61 543.24L459.04 543.75L459.45 544.26L459.85 544.78L460.24 545.3L460.62 545.83L460.99 546.37L461.34 546.91L461.69 547.46L462.02 548.02L462.35 548.58L462.66 549.15L462.96 549.72L463.25 550.3L463.53 550.89L463.79 551.48L464.04 552.07L464.29 552.67L464.52 553.27L464.73 553.88L464.94 554.5L465.13 555.11L465.32 555.73L465.49 556.36L465.64 556.99L465.79 557.62L465.92 558.26L466.04 558.9L466.15 559.54L466.25 560.19L466.33 560.84L466.4 561.49L466.46 562.15L466.5 562.8L466.54 563.46L466.55 564.13L466.56 564.79L466.55 565.46L466.54 566.12L466.5 566.78L466.46 567.44L466.4 568.09L466.33 568.74L466.25 569.39L466.15 570.04L466.04 570.68L465.92 571.32L465.79 571.96L465.64 572.59L465.49 573.22L465.32 573.85L465.13 574.47L464.94 575.09L464.73 575.7L464.51 576.31L464.28 576.91L464.04 577.51L463.79 578.11L463.52 578.7L463.25 579.28L462.96 579.86L462.66 580.43L462.35 581L462.02 581.56L461.69 582.12L461.34 582.67L460.98 583.21L460.62 583.75L460.24 584.28L459.85 584.81L459.44 585.33L459.03 585.84L458.61 586.34L458.17 586.84L457.73 587.33L457.27 587.81L456.81 588.28L456.33 588.75L455.85 589.2L455.36 589.65L454.86 590.08L454.36 590.5L453.84 590.91L453.33 591.31L452.8 591.7L452.27 592.08L451.73 592.45L451.18 592.81L450.63 593.15L450.07 593.48L449.51 593.81L448.94 594.12L448.37 594.42L447.79 594.71L447.2 594.98L446.61 595.25L446.02 595.5L445.42 595.74L444.81 595.97L444.2 596.19L443.59 596.39L442.97 596.59L442.34 596.77L441.72 596.94L441.09 597.1L440.45 597.24L439.81 597.38L439.17 597.5L438.53 597.6L437.88 597.7L437.23 597.78L436.58 597.85L435.92 597.91L435.26 597.96L434.6 597.99L433.93 598.01L433.27 598.01L432.6 598.01L431.94 597.99L431.28 597.96L430.62 597.91L429.96 597.85L429.31 597.78L428.66 597.7L428.01 597.6L427.36 597.5L426.72 597.38L426.09 597.24L425.45 597.1L424.82 596.94L424.19 596.77L423.57 596.59L422.95 596.39L422.34 596.19L421.73 595.97L421.12 595.74L420.52 595.5L419.93 595.25L419.33 594.98L418.75 594.71L418.17 594.42L417.59 594.12L417.03 593.81L416.46 593.48L415.9 593.15L415.35 592.8L414.81 592.45L414.27 592.08L413.74 591.7L413.21 591.31L412.69 590.91L412.18 590.5L411.67 590.08L411.18 589.64L410.69 589.2L410.2 588.75L409.73 588.28L409.26 587.81L408.81 587.32L408.36 586.84L407.93 586.34L407.5 585.83L407.09 585.32L406.69 584.81L406.3 584.28L405.92 583.75L405.55 583.21L405.2 582.67L404.85 582.12L404.51 581.56L404.19 581L403.88 580.43L403.58 579.86L403.29 579.28L403.01 578.7L402.75 578.11L402.5 577.51L402.25 576.91L402.02 576.31L401.8 575.7L401.6 575.09L401.4 574.47L401.22 573.85L401.05 573.22L400.89 572.59L400.75 571.96L400.62 571.32L400.5 570.68L400.39 570.04L400.29 569.39L400.21 568.74L400.14 568.09L400.08 567.44L400.03 566.78L400 566.12L399.98 565.46L399.98 564.79L399.98 564.13L400 563.46L400.03 562.8L400.08 562.15L400.14 561.49L400.21 560.84L400.29 560.19L400.39 559.54L400.5 558.9L400.62 558.26L400.75 557.62L400.89 556.99L401.05 556.36L401.22 555.73L401.4 555.11L401.6 554.49L401.81 553.88L402.02 553.27L402.25 552.67L402.5 552.07L402.75 551.48L403.01 550.89L403.29 550.3L403.58 549.72L403.88 549.15L404.19 548.58L404.52 548.02L404.85 547.46L405.2 546.91L405.55 546.37L405.92 545.83L406.3 545.3L406.69 544.77L407.09 544.26L407.51 543.74L407.93 543.24L408.36 542.74L408.81 542.25L409.26 541.77L409.73 541.3L410.21 540.83L410.69 540.38L411.18 539.93L411.68 539.5L412.18 539.08L412.69 538.67L413.21 538.27L413.74 537.88L414.27 537.5L414.81 537.13L415.35 536.78L415.91 536.43L416.46 536.1L417.03 535.77L417.6 535.46L418.17 535.16L418.75 534.88L419.34 534.6L419.93 534.33L420.52 534.08L421.12 533.84L421.73 533.61L422.34 533.39L422.95 533.19L423.57 532.99L424.19 532.81L424.82 532.64L425.45 532.48L426.09 532.34L426.72 532.21L427.36 532.09L428.01 531.98L428.66 531.88L429.31 531.8L429.96 531.73L430.62 531.67L431.28 531.63L431.94 531.59L432.6 531.57L433.27 531.57L433.93 531.57L434.6 531.59ZM432.34 558.21L431.77 558.32L431.17 558.48L430.53 558.73L429.87 559.07L429.21 559.52L428.56 560.09L427.99 560.74L427.54 561.4L427.2 562.05L426.95 562.69L426.78 563.3L426.68 563.86L426.62 564.36L426.61 564.79L426.62 565.22L426.68 565.72L426.78 566.28L426.95 566.89L427.2 567.53L427.54 568.18L427.99 568.84L428.56 569.49L429.21 570.06L429.87 570.51L430.52 570.85L431.16 571.1L431.77 571.27L432.34 571.37L432.84 571.42L433.27 571.44L433.7 571.42L434.2 571.37L434.76 571.27L435.37 571.1L436.01 570.85L436.67 570.51L437.33 570.06L437.97 569.49L438.55 568.84L439 568.18L439.34 567.53L439.59 566.89L439.76 566.28L439.86 565.72L439.91 565.22L439.93 564.79L439.91 564.36L439.86 563.86L439.76 563.3L439.59 562.69L439.34 562.05L439 561.4L438.55 560.74L437.98 560.1L437.97 560.09L437.33 559.52L436.67 559.07L436.01 558.73L435.37 558.48L434.76 558.32L434.2 558.21L433.7 558.16L433.27 558.15L432.84 558.16L432.34 558.21Z" id="a20syHPwNt"></path><path d="M226.86 578.08C219.5 578.08 213.54 572.13 213.54 564.79C213.54 557.45 219.5 551.5 226.86 551.5C245.5 551.5 394.65 551.5 413.29 551.5C420.65 551.5 426.61 557.45 426.61 564.79C426.61 572.13 420.65 578.08 413.29 578.08C376.01 578.08 245.5 578.08 226.86 578.08Z" id="b2ulcPkLE"></path><path d="M211.64 557.03C205.53 552.95 203.9 544.69 208 538.6C214.77 528.51 268.95 447.87 275.72 437.79C279.82 431.69 288.09 430.06 294.2 434.15C300.31 438.24 301.94 446.49 297.84 452.59C291.07 462.67 236.89 543.32 230.12 553.4C227.55 557.22 223.34 559.28 219.04 559.28C216.49 559.28 213.92 558.56 211.64 557.03Z" id="a76SjMl1w"></path><path d="M410.03 553.4C403.26 543.32 349.08 462.67 342.31 452.59C338.21 446.49 339.84 438.24 345.95 434.15C352.05 430.05 360.33 431.68 364.43 437.79C371.2 447.87 425.38 528.51 432.15 538.6C436.25 544.69 434.62 552.95 428.51 557.03C426.23 558.56 423.66 559.28 421.11 559.28C416.81 559.28 412.6 557.22 410.03 553.4Z" id="afTHYn4fN"></path><path d="M306.71 564.79C306.71 553.49 306.71 463.13 306.71 451.83C306.71 444.49 312.67 438.54 320.02 438.54C327.38 438.54 333.34 444.49 333.34 451.83C333.34 463.13 333.34 553.49 333.34 564.79C333.34 572.13 327.38 578.08 320.02 578.08C312.67 578.08 306.71 572.13 306.71 564.79Z" id="a3D6sbAgR"></path><path d="M266.76 558.15C266.76 548.18 266.76 468.44 266.76 458.48C266.76 451.14 272.72 445.19 280.07 445.19C287.43 445.19 293.39 451.14 293.39 458.48C293.39 468.44 293.39 548.18 293.39 558.15C293.39 565.49 287.43 571.44 280.07 571.44C272.72 571.44 266.76 565.49 266.76 558.15Z" id="aqNXC2Vf2"></path><path d="M346.66 564.79C346.66 554.16 346.66 469.11 346.66 458.48C346.66 451.14 352.62 445.19 359.97 445.19C367.33 445.19 373.29 451.14 373.29 458.48C373.29 469.11 373.29 554.16 373.29 564.79C373.29 572.13 367.33 578.08 359.97 578.08C352.62 578.08 346.66 572.13 346.66 564.79Z" id="gXe1jCI58"></path><path d="M386.61 564.79C386.61 560.14 386.61 522.93 386.61 518.28C386.61 510.94 392.57 504.99 399.92 504.99C407.28 504.99 413.24 510.94 413.24 518.28C413.24 522.93 413.24 560.14 413.24 564.79C413.24 572.13 407.28 578.08 399.92 578.08C392.57 578.08 386.61 572.13 386.61 564.79Z" id="b1oH00nUB"></path><path d="M226.8 564.79C226.8 560.14 226.8 522.93 226.8 518.28C226.8 510.94 232.77 504.99 240.12 504.99C247.48 504.99 253.44 510.94 253.44 518.28C253.44 522.93 253.44 560.14 253.44 564.79C253.44 572.13 247.48 578.08 240.12 578.08C232.77 578.08 226.8 572.13 226.8 564.79Z" id="ekWpBv4pH"></path><path d="M234.6 258.81L238.31 259.03L241.99 259.35L245.62 259.77L249.2 260.28L252.72 260.9L256.17 261.62L259.54 262.45L262.82 263.38L266.02 264.41L269.11 265.55L272.09 266.8L274.95 268.16L277.69 269.62L280.29 271.2L282.75 272.89L285.06 274.69L287.21 276.6L289.2 278.63L289.9 279.44L290.57 280.31L291.21 281.21L291.82 282.17L292.4 283.16L292.95 284.19L293.47 285.25L293.96 286.35L294.43 287.48L294.87 288.63L295.29 289.81L295.68 291.01L296.04 292.23L296.39 293.47L296.71 294.73L297.01 295.99L297.29 297.26L297.54 298.54L297.78 299.83L298 301.11L298.2 302.4L298.39 303.68L298.55 304.95L298.71 306.22L298.84 307.47L298.96 308.71L299.07 309.93L299.17 311.13L299.25 312.31L299.32 313.47L299.38 314.6L299.43 315.7L299.48 316.76L299.51 317.8L299.53 318.79L299.55 319.74L299.56 320.65L299.57 321.52L299.57 322.33L299.56 323.1L299.63 326.24L299.65 329.25L299.63 332.13L299.57 334.89L299.48 337.52L299.35 340.03L299.19 342.43L299 344.71L298.77 346.88L298.52 348.95L298.24 350.9L297.94 352.76L297.62 354.52L297.27 356.18L296.91 357.75L296.53 359.22L296.13 360.61L295.71 361.92L295.29 363.14L294.86 364.29L294.41 365.36L293.96 366.35L293.51 367.28L293.05 368.13L292.59 368.93L292.13 369.66L291.67 370.34L291.22 370.96L290.77 371.52L290.33 372.04L289.89 372.51L289.47 372.93L289.06 373.32L288.67 373.67L288.29 373.98L287.93 374.26L287.58 374.51L287.26 374.74L286.96 374.94L286.69 375.12L285.52 375.86L284.27 376.6L282.96 377.32L281.58 378.02L280.13 378.71L278.63 379.38L277.06 380.04L275.44 380.69L273.76 381.32L272.02 381.93L270.23 382.53L268.39 383.11L266.5 383.67L264.57 384.22L262.59 384.75L260.57 385.26L258.5 385.76L256.4 386.23L254.26 386.69L252.08 387.13L249.87 387.55L247.63 387.95L245.35 388.33L243.05 388.7L240.73 389.04L238.38 389.36L236.01 389.66L233.62 389.95L231.2 390.21L228.78 390.44L226.34 390.66L223.88 390.86L221.42 391.03L218.95 391.18L216.47 391.31L213.98 391.42L211.49 391.5L209 391.56L206.52 391.6L204.03 391.61L201.77 391.6L199.51 391.57L197.26 391.52L195.02 391.45L192.79 391.35L190.56 391.24L188.35 391.11L186.16 390.95L183.98 390.77L181.82 390.57L179.67 390.35L177.55 390.1L175.44 389.84L173.36 389.55L171.31 389.24L169.28 388.9L167.27 388.54L165.29 388.16L163.35 387.75L161.43 387.32L159.55 386.87L157.7 386.39L155.89 385.88L154.12 385.36L152.38 384.8L150.68 384.22L149.03 383.62L147.42 382.99L145.85 382.34L144.32 381.65L142.85 380.95L141.42 380.21L140.05 379.45L138.72 378.67L137.45 377.85L136.23 377.01L135.07 376.14L133.97 375.25L132.92 374.32L131.93 373.37L131.28 372.69L130.64 372L130.02 371.3L129.41 370.59L128.83 369.87L128.26 369.15L127.71 368.41L127.18 367.66L126.66 366.9L126.17 366.14L125.69 365.36L125.23 364.58L124.79 363.79L124.37 362.98L123.97 362.17L123.58 361.36L123.22 360.53L122.87 359.69L122.54 358.85L122.23 358L121.94 357.14L121.66 356.28L121.41 355.4L121.17 354.52L120.96 353.63L120.76 352.73L120.58 351.83L120.42 350.92L120.28 350L120.15 349.08L120.05 348.15L119.97 347.21L119.9 346.27L119.86 345.32L119.83 344.36L119.82 343.4L119.83 342.43L119.87 341.46L119.92 340.48L119.99 339.49L120.17 337.66L120.41 335.83L120.72 334L121.09 332.17L121.52 330.34L122.01 328.52L122.55 326.71L123.15 324.9L123.8 323.1L124.5 321.31L125.24 319.53L126.04 317.75L126.88 316L127.76 314.25L128.69 312.52L129.66 310.8L130.66 309.1L131.7 307.41L132.78 305.75L133.89 304.1L135.03 302.47L136.2 300.87L137.39 299.29L138.62 297.73L139.86 296.19L141.13 294.68L142.42 293.2L143.73 291.75L145.06 290.32L146.4 288.92L147.76 287.56L149.12 286.22L150.5 284.92L151.89 283.66L153.28 282.43L154.68 281.23L156.08 280.07L157.48 278.95L158.88 277.87L160.28 276.83L162.72 275.14L165.31 273.53L168.03 271.99L170.89 270.53L173.85 269.15L176.93 267.86L180.12 266.64L183.39 265.5L186.76 264.45L190.2 263.48L193.71 262.6L197.28 261.8L200.91 261.1L204.58 260.47L208.29 259.94L212.02 259.5L215.78 259.15L219.55 258.9L223.33 258.73L227.1 258.66L230.86 258.69L234.6 258.81ZM225.41 285.11L223.94 285.15L222.47 285.21L221 285.28L219.53 285.38L218.06 285.48L216.59 285.61L215.12 285.75L213.66 285.91L212.2 286.09L210.74 286.28L209.29 286.49L207.85 286.71L206.41 286.95L204.99 287.21L203.57 287.48L202.16 287.77L200.77 288.08L199.39 288.4L198.02 288.74L196.67 289.1L195.33 289.47L194.01 289.86L192.71 290.27L191.43 290.69L190.17 291.13L188.92 291.58L187.7 292.05L186.5 292.54L185.33 293.04L184.18 293.56L183.06 294.09L181.96 294.65L180.89 295.21L179.85 295.8L178.84 296.4L177.86 297.01L176.91 297.65L175.99 298.29L174.8 299.18L173.63 300.09L172.46 301.02L171.32 301.98L170.18 302.95L169.07 303.94L167.98 304.96L166.9 305.99L165.84 307.03L164.8 308.09L163.78 309.16L162.79 310.25L161.81 311.35L160.86 312.46L159.94 313.58L159.03 314.71L158.16 315.85L157.3 316.99L156.48 318.14L155.68 319.29L154.91 320.44L154.17 321.6L153.45 322.76L152.77 323.92L152.12 325.08L151.5 326.24L150.91 327.39L150.36 328.54L149.83 329.69L149.35 330.82L148.9 331.95L148.48 333.08L148.1 334.19L147.76 335.29L147.46 336.39L147.19 337.46L146.96 338.53L146.78 339.58L146.64 340.61L146.53 341.63L146.5 342.04L146.48 342.44L146.46 342.84L146.45 343.23L146.45 343.62L146.46 344L146.47 344.38L146.49 344.76L146.51 345.13L146.55 345.49L146.59 345.85L146.63 346.21L146.69 346.56L146.75 346.91L146.82 347.26L146.89 347.6L146.98 347.93L147.07 348.27L147.16 348.59L147.27 348.92L147.38 349.24L147.5 349.56L147.62 349.87L147.76 350.18L147.9 350.49L148.04 350.79L148.2 351.09L148.36 351.39L148.53 351.68L148.71 351.97L148.89 352.26L149.09 352.54L149.29 352.82L149.49 353.1L149.71 353.38L149.93 353.65L150.16 353.92L150.4 354.18L150.64 354.45L150.9 354.71L152.05 355.72L153.44 356.67L155.06 357.57L156.9 358.42L158.95 359.21L161.2 359.95L163.62 360.63L166.22 361.26L168.98 361.83L171.89 362.36L174.94 362.83L178.11 363.24L181.39 363.6L184.78 363.91L188.25 364.17L191.81 364.37L195.43 364.52L199.11 364.62L202.83 364.67L206.58 364.67L210.35 364.61L214.14 364.5L217.91 364.34L221.68 364.13L225.41 363.87L229.11 363.56L232.76 363.2L236.35 362.79L239.86 362.32L243.29 361.81L246.63 361.25L249.85 360.63L252.96 359.97L255.93 359.26L258.76 358.49L261.44 357.68L263.94 356.82L266.27 355.91L268.42 354.96L270.35 353.95L270.48 353.57L270.61 353.16L270.73 352.72L270.85 352.24L270.97 351.74L271.08 351.21L271.2 350.65L271.31 350.07L271.41 349.46L271.52 348.82L271.62 348.16L271.72 347.48L271.82 346.78L271.91 346.06L272 345.31L272.09 344.55L272.17 343.77L272.25 342.98L272.33 342.17L272.4 341.34L272.47 340.51L272.54 339.66L272.6 338.79L272.65 337.92L272.71 337.04L272.76 336.15L272.8 335.25L272.84 334.35L272.87 333.44L272.9 332.52L272.93 331.6L272.95 330.68L272.97 329.76L272.98 328.84L272.98 327.92L272.98 327L272.98 326.08L272.97 325.17L272.95 324.26L272.93 323.35L272.93 322.51L272.93 321.66L272.92 320.81L272.9 319.95L272.88 319.1L272.85 318.24L272.81 317.39L272.77 316.54L272.72 315.69L272.67 314.84L272.61 314L272.55 313.17L272.48 312.34L272.41 311.52L272.33 310.71L272.25 309.92L272.17 309.13L272.08 308.35L271.98 307.59L271.89 306.84L271.78 306.1L271.68 305.38L271.57 304.68L271.46 304L271.34 303.33L271.22 302.69L271.1 302.06L270.97 301.46L270.85 300.88L270.72 300.33L270.58 299.8L270.45 299.29L270.31 298.81L270.18 298.37L270.03 297.95L269.89 297.56L269.75 297.2L269.6 296.87L269.46 296.57L269.31 296.31L268.76 295.76L268.18 295.21L267.57 294.68L266.92 294.17L266.24 293.66L265.53 293.18L264.79 292.71L264.02 292.25L263.23 291.8L262.4 291.37L261.55 290.96L260.67 290.56L259.76 290.17L258.83 289.8L257.88 289.44L256.9 289.1L255.9 288.77L254.88 288.45L253.83 288.15L252.77 287.86L251.69 287.59L250.58 287.33L249.46 287.09L248.32 286.86L247.17 286.64L246 286.44L244.81 286.25L243.61 286.08L242.39 285.92L241.16 285.77L239.92 285.64L238.67 285.52L237.41 285.42L236.13 285.33L234.85 285.25L233.56 285.19L232.26 285.14L230.95 285.1L229.64 285.08L228.32 285.08L226.87 285.08L225.41 285.11Z" id="f11AXUnjKy"></path><path d="M419.6 258.89L423.37 259.15L427.13 259.5L430.86 259.94L434.57 260.47L438.24 261.09L441.87 261.8L445.44 262.6L448.95 263.48L452.4 264.45L455.76 265.5L459.04 266.64L462.22 267.85L465.3 269.15L468.27 270.53L471.12 271.99L473.84 273.53L476.43 275.14L478.87 276.83L480.27 277.87L481.67 278.95L483.08 280.07L484.48 281.23L485.87 282.43L487.27 283.66L488.65 284.92L490.03 286.22L491.4 287.56L492.75 288.92L494.09 290.32L495.42 291.75L496.73 293.2L498.02 294.68L499.29 296.19L500.54 297.73L501.76 299.29L502.96 300.87L504.13 302.47L505.27 304.1L506.37 305.75L507.45 307.41L508.49 309.1L509.5 310.8L510.46 312.52L511.39 314.25L512.27 316L513.11 317.75L513.91 319.53L514.66 321.31L515.36 323.1L516 324.9L516.6 326.71L517.14 328.52L517.63 330.34L518.06 332.17L518.43 334L518.74 335.83L518.98 337.66L519.17 339.49L519.24 340.48L519.29 341.46L519.32 342.43L519.33 343.4L519.32 344.36L519.3 345.32L519.25 346.27L519.19 347.21L519.1 348.15L519 349.08L518.88 350L518.73 350.92L518.57 351.83L518.39 352.73L518.2 353.63L517.98 354.52L517.74 355.4L517.49 356.28L517.22 357.14L516.92 358L516.61 358.85L516.28 359.69L515.94 360.53L515.57 361.36L515.18 362.17L514.78 362.98L514.36 363.79L513.92 364.58L513.46 365.36L512.98 366.14L512.49 366.9L511.97 367.66L511.44 368.41L510.89 369.15L510.33 369.87L509.74 370.59L509.14 371.3L508.51 372L507.88 372.69L507.22 373.37L506.05 374.5L504.81 375.57L503.5 376.61L502.14 377.6L500.71 378.54L499.23 379.45L497.7 380.31L496.11 381.13L494.48 381.91L492.8 382.66L491.08 383.36L489.32 384.03L487.52 384.66L485.69 385.25L483.83 385.82L481.94 386.34L480.02 386.84L478.09 387.31L476.13 387.74L474.16 388.14L472.18 388.52L470.18 388.87L468.18 389.19L466.17 389.48L464.16 389.75L462.15 390L460.14 390.22L458.14 390.42L456.15 390.6L454.18 390.76L452.21 390.9L450.27 391.02L448.35 391.12L446.45 391.21L444.57 391.28L442.73 391.34L440.92 391.38L439.14 391.41L437.41 391.42L435.71 391.43L435.56 391.43L435.41 391.43L435.26 391.43L435.1 391.43L434.95 391.43L434.8 391.43L434.65 391.43L434.51 391.43L434.36 391.42L434.21 391.42L434.06 391.42L433.91 391.42L433.76 391.42L433.62 391.42L433.47 391.42L433.32 391.42L433.18 391.42L433.03 391.41L432.89 391.41L432.74 391.41L432.6 391.41L432.45 391.41L432.31 391.41L432.17 391.4L432.03 391.4L431.88 391.4L431.74 391.4L431.6 391.4L431.46 391.39L431.32 391.39L431.18 391.39L431.04 391.39L430.9 391.39L430.76 391.38L430.62 391.38L430.48 391.38L430.35 391.37L430.21 391.37L430.07 391.37L429.94 391.37L427.94 391.32L425.92 391.25L423.88 391.17L421.81 391.08L419.72 390.97L417.62 390.84L415.49 390.7L413.36 390.54L411.22 390.36L409.07 390.16L406.91 389.95L404.75 389.72L402.59 389.47L400.43 389.21L398.27 388.92L396.12 388.62L393.98 388.3L391.85 387.96L389.73 387.6L387.62 387.21L385.54 386.81L383.48 386.39L381.43 385.95L379.42 385.49L377.43 385.01L375.47 384.51L373.54 383.98L371.64 383.44L369.79 382.87L367.97 382.28L366.19 381.67L364.46 381.04L362.77 380.38L361.14 379.7L359.55 378.99L358.02 378.27L356.54 377.52L355.12 376.74L353.76 375.94L352.46 375.12L352.19 374.94L351.89 374.74L351.57 374.51L351.23 374.26L350.87 373.98L350.49 373.67L350.09 373.32L349.68 372.93L349.26 372.5L348.83 372.03L348.38 371.51L347.94 370.94L347.48 370.32L347.02 369.64L346.56 368.91L346.1 368.11L345.64 367.24L345.19 366.31L344.74 365.31L344.3 364.23L343.86 363.08L343.44 361.84L343.03 360.53L342.63 359.13L342.25 357.64L341.88 356.06L341.54 354.38L341.21 352.61L340.91 350.73L340.63 348.75L340.38 346.67L340.16 344.48L339.96 342.17L339.8 339.75L339.67 337.21L339.58 334.55L339.52 331.77L339.51 328.86L339.53 325.82L339.59 322.65L339.59 321.91L339.59 321.13L339.59 320.29L339.6 319.41L339.62 318.48L339.65 317.52L339.68 316.51L339.72 315.47L339.77 314.39L339.83 313.28L339.9 312.14L339.98 310.98L340.08 309.79L340.19 308.58L340.31 307.36L340.45 306.12L340.6 304.87L340.77 303.6L340.95 302.33L341.15 301.06L341.37 299.78L341.61 298.5L341.87 297.23L342.14 295.96L342.44 294.7L342.77 293.45L343.11 292.22L343.48 291L343.87 289.8L344.28 288.62L344.72 287.47L345.19 286.35L345.68 285.25L346.2 284.19L346.75 283.16L347.33 282.17L347.94 281.21L348.58 280.31L349.25 279.44L349.95 278.63L351.94 276.6L354.09 274.69L356.4 272.89L358.86 271.2L361.46 269.62L364.2 268.15L367.06 266.8L370.04 265.55L373.13 264.41L376.33 263.37L379.61 262.44L382.98 261.62L386.43 260.9L389.95 260.28L393.53 259.76L397.16 259.34L400.84 259.03L404.55 258.81L408.29 258.68L412.05 258.66L415.82 258.73L419.6 258.89ZM405.21 285.2L402.51 285.36L399.86 285.58L397.26 285.86L394.71 286.2L392.22 286.6L389.81 287.06L387.47 287.59L385.22 288.18L383.05 288.83L380.99 289.55L379.03 290.32L377.18 291.16L375.45 292.07L373.84 293.03L372.37 294.06L371.03 295.15L369.84 296.31L369.7 296.57L369.55 296.86L369.41 297.19L369.26 297.55L369.12 297.94L368.98 298.37L368.84 298.82L368.71 299.3L368.57 299.8L368.44 300.34L368.31 300.89L368.18 301.48L368.06 302.08L367.94 302.71L367.82 303.35L367.7 304.02L367.59 304.7L367.48 305.4L367.37 306.12L367.27 306.85L367.17 307.59L367.08 308.35L366.99 309.12L366.9 309.9L366.82 310.69L366.74 311.49L366.67 312.29L366.6 313.1L366.54 313.92L366.48 314.74L366.43 315.56L366.38 316.38L366.34 317.21L366.3 318.03L366.27 318.85L366.25 319.67L366.23 320.49L366.22 321.3L366.22 322.1L366.22 322.9L366.2 323.83L366.19 324.77L366.18 325.72L366.17 326.66L366.17 327.61L366.18 328.55L366.19 329.5L366.21 330.44L366.23 331.38L366.25 332.32L366.28 333.25L366.32 334.18L366.36 335.1L366.4 336.02L366.45 336.92L366.51 337.81L366.56 338.7L366.62 339.57L366.69 340.43L366.76 341.28L366.83 342.12L366.91 342.93L366.99 343.74L367.07 344.52L367.16 345.29L367.25 346.03L367.34 346.76L367.44 347.47L367.54 348.15L367.64 348.81L367.74 349.45L367.85 350.06L367.96 350.65L368.07 351.21L368.19 351.74L368.31 352.25L368.43 352.72L368.55 353.16L368.67 353.57L368.8 353.95L370.74 354.96L372.88 355.92L375.21 356.82L377.72 357.68L380.4 358.5L383.23 359.26L386.2 359.97L389.31 360.63L392.53 361.25L395.86 361.81L399.29 362.32L402.81 362.79L406.4 363.2L410.05 363.56L413.74 363.87L417.48 364.14L421.25 364.35L425.02 364.5L428.81 364.61L432.58 364.67L436.33 364.67L440.05 364.62L443.73 364.52L447.35 364.37L450.91 364.17L454.38 363.91L457.77 363.6L461.05 363.24L464.22 362.82L467.27 362.35L470.18 361.83L472.93 361.26L475.53 360.63L477.96 359.95L480.2 359.21L482.25 358.42L484.09 357.57L485.71 356.67L487.11 355.72L488.26 354.71L488.51 354.45L488.75 354.18L488.99 353.92L489.22 353.65L489.44 353.38L489.66 353.1L489.87 352.82L490.06 352.54L490.26 352.26L490.44 351.97L490.62 351.68L490.79 351.39L490.95 351.09L491.11 350.79L491.26 350.49L491.4 350.18L491.53 349.87L491.66 349.56L491.77 349.24L491.89 348.92L491.99 348.59L492.09 348.27L492.18 347.93L492.26 347.6L492.33 347.26L492.4 346.91L492.46 346.56L492.52 346.21L492.57 345.85L492.6 345.49L492.64 345.13L492.66 344.76L492.68 344.38L492.69 344L492.7 343.62L492.7 343.23L492.69 342.84L492.67 342.44L492.65 342.04L492.62 341.63L492.52 340.61L492.37 339.58L492.19 338.53L491.96 337.46L491.7 336.39L491.39 335.29L491.05 334.19L490.67 333.08L490.26 331.95L489.8 330.82L489.32 329.69L488.8 328.54L488.24 327.39L487.65 326.24L487.03 325.08L486.38 323.92L485.7 322.76L484.99 321.6L484.24 320.44L483.47 319.29L482.68 318.14L481.85 316.99L481 315.85L480.12 314.71L479.22 313.58L478.29 312.46L477.34 311.35L476.36 310.25L475.37 309.16L474.35 308.09L473.31 307.03L472.25 305.99L471.18 304.96L470.08 303.94L468.97 302.95L467.84 301.98L466.69 301.02L465.53 300.09L464.35 299.18L463.16 298.29L461.38 297.07L459.49 295.91L457.49 294.8L455.38 293.75L453.19 292.76L450.9 291.84L448.53 290.97L446.09 290.16L443.58 289.4L441.01 288.71L438.39 288.08L435.71 287.51L433 287L430.26 286.55L427.49 286.15L424.7 285.82L421.9 285.55L419.09 285.34L416.28 285.19L413.49 285.1L410.7 285.07L407.94 285.11L405.21 285.2Z" id="g1SprkQHov"></path><path d="M440.71 562.19C434.35 558.51 432.18 550.38 435.87 544.03C441.01 535.19 482.09 464.53 487.23 455.7C490.92 449.36 499.06 447.2 505.43 450.88C511.79 454.56 513.95 462.69 510.26 469.04C505.13 477.87 464.05 548.53 458.91 557.37C456.44 561.61 451.97 563.99 447.38 563.99C445.11 563.99 442.81 563.41 440.71 562.19Z" id="a27Ff73Ovj"></path><path d="M170.61 138.88C165.21 133.9 164.88 125.49 169.87 120.1C200.95 86.54 244.16 64.29 291.54 57.47C298.83 56.42 305.57 61.46 306.62 68.72C307.67 75.99 302.62 82.73 295.34 83.77C253.99 89.73 216.38 109.04 189.44 138.14C186.81 140.97 183.24 142.41 179.65 142.41C176.42 142.41 173.18 141.24 170.61 138.88Z" id="f1WNd1qWlJ"></path><path d="M140.91 193.15C134.14 190.29 130.98 182.49 133.85 175.73C136.68 169.05 139.93 162.47 143.5 156.17C147.11 149.78 155.23 147.52 161.64 151.14C168.04 154.75 170.3 162.85 166.68 169.25C163.61 174.67 160.81 180.34 158.37 186.1C156.22 191.16 151.29 194.21 146.1 194.21C144.37 194.21 142.61 193.86 140.91 193.15Z" id="aujFHyDYg"></path><path d="M181.24 557.37C176.1 548.53 135.02 477.87 129.89 469.04C126.2 462.69 128.36 454.56 134.72 450.88C141.08 447.19 149.23 449.35 152.92 455.7C158.06 464.53 199.14 535.19 204.28 544.03C207.97 550.38 205.8 558.51 199.44 562.19C197.34 563.41 195.04 563.99 192.77 563.99C188.18 563.99 183.71 561.61 181.24 557.37Z" id="c5aQTu5a6x"></path><path d="M493.98 553.04C492.96 545.77 498.05 539.06 505.34 538.05C550.55 531.79 608.49 510.89 615.06 507.48C621.58 504.09 629.62 506.62 633.02 513.13C636.42 519.64 633.88 527.66 627.36 531.06C616.64 536.62 555.88 557.89 508.99 564.38C508.37 564.46 507.76 564.5 507.15 564.5C500.6 564.5 494.9 559.69 493.98 553.04Z" id="aAD5sIGLg"></path><path d="M133.31 564.38C85.31 557.74 22.45 535.56 12.8 530.56C6.28 527.17 3.74 519.14 7.14 512.63C10.53 506.12 18.57 503.59 25.1 506.98C31.52 510.31 91.61 531.78 136.97 538.05C144.25 539.06 149.34 545.77 148.33 553.04C147.41 559.69 141.7 564.51 135.16 564.51C134.55 564.51 133.93 564.46 133.31 564.38Z" id="gymbNBfWk"></path><path d="M541.03 304.58C538.88 299.98 488.25 195.8 351.22 245.06C344.32 247.54 336.68 243.97 334.18 237.06C331.69 230.16 335.27 222.55 342.2 220.06C502.76 162.32 564.61 292.15 565.23 293.47C568.29 300.14 565.36 308.03 558.67 311.09C556.88 311.91 554.99 312.3 553.13 312.3C548.09 312.3 543.28 309.43 541.03 304.58Z" id="akv8D4JV"></path><path d="M81.48 311.09C74.79 308.03 71.86 300.14 74.92 293.47C75.53 292.15 137.38 162.33 297.95 220.06C304.88 222.55 308.46 230.16 305.97 237.06C303.48 243.97 295.83 247.54 288.93 245.06C151.1 195.5 101.19 300.07 99.13 304.55C96.89 309.42 92.06 312.3 87.02 312.3C85.16 312.3 83.28 311.91 81.48 311.09Z" id="aKvPpXdDi"></path><path d="M23.45 594.23C5.43 584.87 -11.48 561.45 10.22 503C14.45 489.27 35.6 420.6 73.66 297.01C73.66 274.29 73.66 261.66 73.66 259.14C73.66 134.17 167.5 29.17 291.89 14.91C299.2 14.09 305.82 19.3 306.66 26.59C307.5 33.88 302.24 40.47 294.93 41.31C183.98 54.04 100.29 147.68 100.29 259.14C100.29 261.93 100.29 275.88 100.29 301C61.31 427.54 39.65 497.85 35.32 511.91C29.82 526.65 18.85 561.89 35.73 570.66C97.5 602.74 243.51 611.3 320.04 611.3C396.56 611.3 542.55 602.74 604.32 570.66C621.15 561.91 610.17 526.66 604.66 511.91C604.64 511.86 604.56 511.62 604.41 511.18L539.51 300.95L539.8 265.88C539.64 262.15 539.56 260.08 539.54 259.66C539.53 147.67 455.98 54.03 345.19 41.31C337.89 40.48 332.64 33.89 333.48 26.59C334.32 19.3 340.89 14.09 348.23 14.91C472.48 29.16 566.17 134.16 566.17 259.14C566.18 259.56 566.27 261.67 566.43 265.47L566.18 297.06C604.32 420.62 625.52 489.27 629.76 503C651.47 561.47 634.61 584.89 616.62 594.23C550.29 628.69 398.99 637.88 320.04 637.88C241.09 637.88 89.78 628.69 23.45 594.23Z" id="ghS9CYQVz"></path></defs><g><g><use xlink:href="#aGQiecvvZ" opacity="1" fill="#19ec21" fill-opacity="1"></use><g><use xlink:href="#aGQiecvvZ" opacity="1" fill-opacity="0" stroke="#000000" stroke-width="1" stroke-opacity="0"></use></g></g><g><use xlink:href="#fmgL3GScF" opacity="1" fill="#19ec21" fill-opacity="1"></use><g><use xlink:href="#fmgL3GScF" opacity="1" fill-opacity="0" stroke="#000000" stroke-width="1" stroke-opacity="0"></use></g></g><g><use xlink:href="#afXg1H8n" opacity="1" fill="#19ec21" fill-opacity="1"></use><g><use xlink:href="#afXg1H8n" opacity="1" fill-opacity="0" stroke="#000000" stroke-width="1" stroke-opacity="0"></use></g></g><g><use xlink:href="#a2aTtFRxaa" opacity="1" fill="#19ec21" fill-opacity="1"></use><g><use xlink:href="#a2aTtFRxaa" opacity="1" fill-opacity="0" stroke="#000000" stroke-width="1" stroke-opacity="0"></use></g></g><g><use xlink:href="#auSR41SMi" opacity="1" fill="#19ec21" fill-opacity="1"></use><g><use xlink:href="#auSR41SMi" opacity="1" fill-opacity="0" stroke="#000000" stroke-width="1" stroke-opacity="0"></use></g></g><g><use xlink:href="#a20syHPwNt" opacity="1" fill="#19ec21" fill-opacity="1"></use><g><use xlink:href="#a20syHPwNt" opacity="1" fill-opacity="0" stroke="#000000" stroke-width="1" stroke-opacity="0"></use></g></g><g><use xlink:href="#b2ulcPkLE" opacity="1" fill="#19ec21" fill-opacity="1"></use><g><use xlink:href="#b2ulcPkLE" opacity="1" fill-opacity="0" stroke="#000000" stroke-width="1" stroke-opacity="0"></use></g></g><g><use xlink:href="#a76SjMl1w" opacity="1" fill="#19ec21" fill-opacity="1"></use><g><use xlink:href="#a76SjMl1w" opacity="1" fill-opacity="0" stroke="#000000" stroke-width="1" stroke-opacity="0"></use></g></g><g><use xlink:href="#afTHYn4fN" opacity="1" fill="#19ec21" fill-opacity="1"></use><g><use xlink:href="#afTHYn4fN" opacity="1" fill-opacity="0" stroke="#000000" stroke-width="1" stroke-opacity="0"></use></g></g><g><use xlink:href="#a3D6sbAgR" opacity="1" fill="#19ec21" fill-opacity="1"></use><g><use xlink:href="#a3D6sbAgR" opacity="1" fill-opacity="0" stroke="#000000" stroke-width="1" stroke-opacity="0"></use></g></g><g><use xlink:href="#aqNXC2Vf2" opacity="1" fill="#19ec21" fill-opacity="1"></use><g><use xlink:href="#aqNXC2Vf2" opacity="1" fill-opacity="0" stroke="#000000" stroke-width="1" stroke-opacity="0"></use></g></g><g><use xlink:href="#gXe1jCI58" opacity="1" fill="#19ec21" fill-opacity="1"></use><g><use xlink:href="#gXe1jCI58" opacity="1" fill-opacity="0" stroke="#000000" stroke-width="1" stroke-opacity="0"></use></g></g><g><use xlink:href="#b1oH00nUB" opacity="1" fill="#19ec21" fill-opacity="1"></use><g><use xlink:href="#b1oH00nUB" opacity="1" fill-opacity="0" stroke="#000000" stroke-width="1" stroke-opacity="0"></use></g></g><g><use xlink:href="#ekWpBv4pH" opacity="1" fill="#19ec21" fill-opacity="1"></use><g><use xlink:href="#ekWpBv4pH" opacity="1" fill-opacity="0" stroke="#000000" stroke-width="1" stroke-opacity="0"></use></g></g><g><use xlink:href="#f11AXUnjKy" opacity="1" fill="#19ec21" fill-opacity="1"></use><g><use xlink:href="#f11AXUnjKy" opacity="1" fill-opacity="0" stroke="#000000" stroke-width="1" stroke-opacity="0"></use></g></g><g><use xlink:href="#g1SprkQHov" opacity="1" fill="#19ec21" fill-opacity="1"></use><g><use xlink:href="#g1SprkQHov" opacity="1" fill-opacity="0" stroke="#000000" stroke-width="1" stroke-opacity="0"></use></g></g><g><use xlink:href="#a27Ff73Ovj" opacity="1" fill="#19ec21" fill-opacity="1"></use><g><use xlink:href="#a27Ff73Ovj" opacity="1" fill-opacity="0" stroke="#000000" stroke-width="1" stroke-opacity="0"></use></g></g><g><use xlink:href="#f1WNd1qWlJ" opacity="1" fill="#19ec21" fill-opacity="1"></use><g><use xlink:href="#f1WNd1qWlJ" opacity="1" fill-opacity="0" stroke="#000000" stroke-width="1" stroke-opacity="0"></use></g></g><g><use xlink:href="#aujFHyDYg" opacity="1" fill="#19ec21" fill-opacity="1"></use><g><use xlink:href="#aujFHyDYg" opacity="1" fill-opacity="0" stroke="#000000" stroke-width="1" stroke-opacity="0"></use></g></g><g><use xlink:href="#c5aQTu5a6x" opacity="1" fill="#19ec21" fill-opacity="1"></use><g><use xlink:href="#c5aQTu5a6x" opacity="1" fill-opacity="0" stroke="#000000" stroke-width="1" stroke-opacity="0"></use></g></g><g><use xlink:href="#aAD5sIGLg" opacity="1" fill="#19ec21" fill-opacity="1"></use><g><use xlink:href="#aAD5sIGLg" opacity="1" fill-opacity="0" stroke="#000000" stroke-width="1" stroke-opacity="0"></use></g></g><g><use xlink:href="#gymbNBfWk" opacity="1" fill="#19ec21" fill-opacity="1"></use><g><use xlink:href="#gymbNBfWk" opacity="1" fill-opacity="0" stroke="#000000" stroke-width="1" stroke-opacity="0"></use></g></g><g><use xlink:href="#akv8D4JV" opacity="1" fill="#19ec21" fill-opacity="1"></use><g><use xlink:href="#akv8D4JV" opacity="1" fill-opacity="0" stroke="#000000" stroke-width="1" stroke-opacity="0"></use></g></g><g><use xlink:href="#aKvPpXdDi" opacity="1" fill="#19ec21" fill-opacity="1"></use><g><use xlink:href="#aKvPpXdDi" opacity="1" fill-opacity="0" stroke="#000000" stroke-width="1" stroke-opacity="0"></use></g></g><g><use xlink:href="#ghS9CYQVz" opacity="1" fill="#19ec21" fill-opacity="1"></use><g><use xlink:href="#ghS9CYQVz" opacity="1" fill-opacity="0" stroke="#000000" stroke-width="1" stroke-opacity="0"></use></g></g></g></svg>