<?xml version="1.0" encoding="UTF-8" standalone="no"?>
<!DOCTYPE svg PUBLIC "-//W3C//DTD SVG 1.1//EN" "http://www.w3.org/Graphics/SVG/1.1/DTD/svg11.dtd">
<svg version="1.1" xmlns="http://www.w3.org/2000/svg" xmlns:xlink="http://www.w3.org/1999/xlink" preserveAspectRatio="xMidYMid meet" viewBox="0 0 640 640" width="640" height="640"><defs><path d="M380.46 0.71L390.69 1.59L400.8 2.8L410.77 4.35L420.61 6.22L430.3 8.41L439.83 10.91L449.2 13.71L458.4 16.81L467.42 20.2L476.25 23.87L484.88 27.82L493.31 32.04L501.53 36.52L509.52 41.26L517.28 46.24L524.81 51.47L532.09 56.93L539.12 62.62L545.88 68.53L552.37 74.65L558.59 80.99L564.51 87.52L570.14 94.24L575.47 101.15L580.49 108.24L585.18 115.5L589.55 122.93L593.58 130.51L597.27 138.25L600.6 146.13L603.57 154.15L606.17 162.3L608.4 170.58L610.24 178.97L611.68 187.47L612.72 196.07L613.35 204.77L613.57 213.56L613.25 298.92L637.65 393.98L637.99 394.89L638.3 395.79L638.58 396.7L638.84 397.62L639.07 398.54L639.28 399.46L639.46 400.38L639.61 401.3L639.74 402.23L639.84 403.16L639.92 404.08L639.97 405.01L640 405.94L640 406.87L639.97 407.79L639.92 408.72L639.85 409.64L639.75 410.57L639.62 411.49L639.47 412.4L639.29 413.32L639.09 414.23L638.87 415.13L638.61 416.04L638.34 416.93L638.04 417.83L637.71 418.71L637.36 419.59L636.99 420.47L636.59 421.34L636.16 422.2L635.71 423.05L635.24 423.9L634.74 424.74L634.22 425.57L633.68 426.39L633.11 427.2L632.51 428L631.9 428.79L631.26 429.57L630.58 430.36L629.88 431.13L629.16 431.88L628.42 432.62L627.66 433.34L626.88 434.04L626.08 434.73L625.27 435.4L624.44 436.05L623.59 436.68L622.72 437.3L621.84 437.9L620.95 438.47L620.03 439.04L619.11 439.58L618.17 440.1L617.21 440.6L616.24 441.09L615.26 441.55L614.26 442L613.26 442.42L612.24 442.83L611.21 443.21L610.17 443.58L609.12 443.92L608.05 444.25L606.98 444.55L605.9 444.83L604.81 445.09L603.72 445.33L602.61 445.54L601.5 445.74L600.38 445.91L599.25 446.06L598.12 446.19L596.99 446.29L595.84 446.37L594.7 446.43L593.55 446.47L592.39 446.48L592.34 446.48L578.46 446.46L577.19 446.88L575.83 447.47L574.38 448.24L572.84 449.18L571.21 450.31L569.49 451.61L567.68 453.08L565.79 454.74L563.81 456.57L561.73 458.57L559.57 460.75L557.32 463.11L554.99 465.65L552.56 468.36L550.05 471.24L547.45 474.3L544.76 477.54L541.98 480.95L539.11 484.53L536.16 488.29L533.12 492.23L530 496.34L526.78 500.62L523.48 505.08L520.09 509.72L516.62 514.52L513.05 519.5L509.4 524.66L505.67 529.99L501.85 535.49L497.94 541.17L493.94 547.02L489.86 553.04L485.7 559.23L481.44 565.6L477.11 572.14L472.68 578.86L468.17 585.75L463.57 592.8L458.89 600.04L458.34 600.89L457.79 601.74L457.25 602.58L456.71 603.42L456.18 604.24L455.65 605.05L455.13 605.86L454.61 606.66L454.1 607.45L453.6 608.23L453.1 609L452.61 609.76L452.12 610.51L451.64 611.25L451.17 611.98L450.7 612.71L450.23 613.42L449.78 614.12L449.33 614.81L448.88 615.49L448.44 616.16L448.01 616.82L447.59 617.47L447.17 618.11L446.76 618.74L446.35 619.35L445.95 619.96L445.56 620.55L445.18 621.13L444.8 621.7L444.43 622.26L444.06 622.8L443.7 623.34L443.35 623.86L443.01 624.37L442.68 624.86L442.35 625.35L442.03 625.82L441.71 626.28L441.41 626.72L440.97 627.33L440.52 627.93L440.05 628.51L439.57 629.09L439.07 629.65L438.55 630.19L438.01 630.73L437.47 631.25L436.9 631.76L436.32 632.25L435.73 632.74L435.12 633.2L434.5 633.66L433.86 634.1L433.21 634.52L432.55 634.94L431.88 635.33L431.2 635.72L430.5 636.08L429.8 636.43L429.08 636.77L428.35 637.09L427.62 637.4L426.87 637.69L426.11 637.96L425.35 638.22L424.58 638.46L423.8 638.68L423.01 638.89L422.22 639.08L421.42 639.25L420.61 639.41L419.8 639.54L418.98 639.66L418.15 639.77L417.32 639.85L416.49 639.92L415.65 639.96L414.81 639.99L413.97 640L375.54 640L374.88 639.99L374.24 639.96L373.6 639.9L372.96 639.83L372.34 639.73L371.72 639.61L371.12 639.48L370.52 639.32L369.94 639.14L369.36 638.95L368.8 638.74L368.24 638.51L367.7 638.26L367.18 638L366.66 637.72L366.17 637.42L365.68 637.11L365.21 636.79L364.75 636.45L364.32 636.09L363.89 635.72L363.49 635.34L363.1 634.94L362.73 634.54L362.38 634.11L362.05 633.68L361.73 633.24L361.44 632.79L361.17 632.32L360.92 631.85L360.68 631.36L360.48 630.87L360.29 630.37L360.13 629.86L359.99 629.34L359.88 628.82L359.79 628.29L359.72 627.75L359.68 627.2L359.67 626.65L359.65 626.1L359.62 625.56L359.55 625.02L359.46 624.49L359.34 623.97L359.21 623.45L359.04 622.94L358.86 622.44L358.65 621.95L358.42 621.46L358.17 620.99L357.89 620.52L357.6 620.07L357.29 619.63L356.95 619.2L356.6 618.78L356.23 618.37L355.84 617.97L355.44 617.59L355.01 617.22L354.57 616.86L354.12 616.52L353.65 616.2L353.16 615.88L352.66 615.59L352.15 615.31L351.62 615.04L351.08 614.8L350.53 614.57L349.97 614.36L349.39 614.16L348.81 613.99L348.21 613.83L347.61 613.69L346.99 613.58L346.37 613.48L345.74 613.4L345.1 613.35L344.45 613.32L343.8 613.3L296.19 613.3L295.54 613.32L294.89 613.35L294.25 613.4L293.62 613.48L293 613.58L292.39 613.69L291.78 613.83L291.18 613.99L290.6 614.16L290.02 614.36L289.46 614.57L288.91 614.8L288.37 615.04L287.84 615.31L287.33 615.59L286.83 615.88L286.34 616.2L285.87 616.52L285.42 616.86L284.98 617.22L284.56 617.59L284.15 617.97L283.76 618.37L283.39 618.78L283.04 619.2L282.71 619.63L282.39 620.07L282.1 620.52L281.83 620.99L281.57 621.46L281.34 621.95L281.14 622.44L280.95 622.94L280.79 623.45L280.65 623.97L280.53 624.49L280.44 625.02L280.38 625.56L280.34 626.1L280.32 626.65L280.31 627.2L280.27 627.75L280.21 628.29L280.12 628.82L280 629.34L279.86 629.86L279.7 630.37L279.52 630.87L279.31 631.36L279.08 631.85L278.83 632.32L278.55 632.79L278.26 633.24L277.95 633.68L277.61 634.11L277.26 634.54L276.89 634.94L276.5 635.34L276.1 635.72L275.68 636.09L275.24 636.45L274.78 636.79L274.31 637.11L273.83 637.42L273.33 637.72L272.81 638L272.29 638.26L271.75 638.51L271.2 638.74L270.63 638.95L270.06 639.14L269.47 639.32L268.88 639.48L268.27 639.61L267.65 639.73L267.03 639.83L266.4 639.9L265.76 639.96L265.11 639.99L264.46 640L226.02 640L225.18 639.99L224.34 639.96L223.5 639.92L222.67 639.85L221.84 639.77L221.02 639.66L220.2 639.54L219.38 639.41L218.58 639.25L217.78 639.08L216.98 638.89L216.19 638.68L215.41 638.46L214.64 638.22L213.88 637.96L213.12 637.69L212.38 637.4L211.64 637.09L210.91 636.77L210.2 636.43L209.49 636.08L208.79 635.72L208.11 635.33L207.44 634.94L206.78 634.53L206.13 634.1L205.5 633.66L204.87 633.21L204.27 632.74L203.67 632.26L203.09 631.76L202.53 631.25L201.98 630.73L201.44 630.2L200.93 629.65L200.42 629.09L199.94 628.52L199.47 627.93L199.02 627.34L198.59 626.73L198.28 626.28L197.97 625.83L197.65 625.35L197.32 624.87L196.98 624.37L196.64 623.86L196.29 623.34L195.93 622.81L195.57 622.26L195.19 621.7L194.82 621.13L194.43 620.55L194.04 619.96L193.64 619.35L193.24 618.74L192.82 618.11L192.4 617.47L191.98 616.82L191.55 616.16L191.11 615.49L190.67 614.81L190.22 614.12L189.76 613.42L189.3 612.71L188.83 611.98L188.35 611.25L187.87 610.51L187.38 609.76L186.89 609L186.39 608.23L185.89 607.45L185.38 606.66L184.86 605.86L184.34 605.05L183.81 604.24L183.28 603.42L182.74 602.58L182.2 601.74L181.65 600.89L181.1 600.04L176.42 592.8L171.82 585.75L167.31 578.86L162.89 572.14L158.55 565.6L154.3 559.23L150.13 553.04L146.05 547.02L142.05 541.17L138.15 535.49L134.32 529.99L130.59 524.66L126.94 519.5L123.38 514.52L119.9 509.71L116.51 505.08L113.21 500.62L110 496.34L106.87 492.23L103.83 488.29L100.88 484.53L98.01 480.94L95.24 477.53L92.55 474.3L89.95 471.24L87.43 468.35L85.01 465.64L82.67 463.11L80.42 460.75L78.26 458.57L76.19 456.56L74.2 454.73L72.31 453.08L70.5 451.61L68.78 450.31L67.16 449.18L65.62 448.24L64.17 447.47L62.81 446.87L61.53 446.46L47.63 446.47L47.6 446.47L46.44 446.45L45.29 446.42L44.14 446.36L43 446.28L41.86 446.17L40.73 446.05L39.6 445.9L38.49 445.72L37.37 445.53L36.27 445.31L35.17 445.08L34.08 444.82L33 444.53L31.93 444.23L30.87 443.91L29.82 443.56L28.78 443.2L27.75 442.81L26.73 442.41L25.72 441.98L24.73 441.54L23.75 441.07L22.78 440.59L21.82 440.08L20.88 439.56L19.95 439.02L19.04 438.46L18.14 437.88L17.26 437.28L16.4 436.67L15.55 436.03L14.72 435.38L13.91 434.71L13.11 434.03L12.33 433.33L11.57 432.61L10.83 431.87L10.12 431.12L9.42 430.35L8.74 429.56L8.1 428.78L7.48 427.99L6.89 427.19L6.32 426.37L5.77 425.55L5.25 424.72L4.76 423.89L4.28 423.04L3.84 422.19L3.41 421.32L3.01 420.46L2.64 419.58L2.29 418.7L1.96 417.81L1.66 416.92L1.39 416.02L1.13 415.12L0.91 414.21L0.71 413.3L0.53 412.39L0.38 411.47L0.25 410.55L0.15 409.63L0.08 408.71L0.02 407.78L0 406.85L0 405.93L0.03 405L0.08 404.07L0.16 403.14L0.26 402.22L0.39 401.29L0.54 400.37L0.72 399.44L0.93 398.52L1.16 397.61L1.42 396.69L1.7 395.78L2.02 394.87L2.35 393.97L26.74 298.92L26.43 213.6L26.64 204.81L27.27 196.11L28.31 187.5L29.76 179L31.59 170.6L33.82 162.33L36.42 154.17L39.39 146.15L42.73 138.27L46.41 130.53L50.44 122.94L54.81 115.51L59.5 108.25L64.52 101.16L69.85 94.25L75.48 87.52L81.41 80.99L87.62 74.66L94.11 68.54L100.88 62.63L107.9 56.94L115.18 51.47L122.71 46.25L130.47 41.26L138.47 36.52L146.68 32.04L155.11 27.82L163.74 23.87L172.57 20.2L181.59 16.81L190.79 13.71L200.16 10.91L209.69 8.41L219.38 6.22L229.22 4.35L239.2 2.8L249.3 1.59L259.53 0.71L269.88 0.18L280.32 0L359.67 0L370.12 0.18L380.46 0.71ZM271.18 26.85L262.13 27.32L253.18 28.08L244.34 29.15L235.61 30.5L227 32.14L218.52 34.05L210.18 36.24L201.98 38.69L193.93 41.4L186.04 44.37L178.31 47.58L170.76 51.04L163.39 54.73L156.2 58.65L149.2 62.8L142.41 67.16L135.82 71.73L129.45 76.51L123.31 81.49L117.39 86.66L111.71 92.02L106.27 97.56L101.08 103.27L96.16 109.15L91.5 115.2L87.11 121.4L83 127.76L79.18 134.26L75.65 140.89L72.42 147.66L69.51 154.56L66.91 161.58L64.63 168.71L62.69 175.95L61.08 183.29L59.81 190.73L58.9 198.26L58.35 205.87L58.16 213.56L58.49 300.28L58.49 300.35L58.49 300.42L58.49 300.49L58.49 300.57L58.48 300.64L58.48 300.71L58.48 300.78L58.48 300.85L58.47 300.93L58.47 301L58.46 301.07L58.46 301.14L58.45 301.21L58.45 301.29L58.44 301.36L58.43 301.43L58.43 301.5L58.42 301.57L58.41 301.64L58.4 301.72L58.39 301.79L58.38 301.86L58.37 301.93L58.36 302L58.35 302.07L58.34 302.14L58.33 302.22L58.32 302.29L58.3 302.36L58.29 302.43L58.28 302.5L58.26 302.57L58.25 302.64L58.23 302.71L58.22 302.78L58.2 302.85L58.18 302.92L58.17 303L58.15 303.07L58.13 303.14L33.18 400.35L33.17 400.39L33.16 400.43L33.15 400.47L33.14 400.52L33.13 400.56L33.12 400.6L33.11 400.64L33.09 400.68L33.08 400.72L33.07 400.76L33.06 400.8L33.05 400.84L33.03 400.89L33.02 400.93L33.01 400.97L32.99 401.01L32.98 401.05L32.97 401.09L32.95 401.13L32.94 401.17L32.93 401.21L32.91 401.25L32.9 401.29L32.88 401.33L32.87 401.37L32.85 401.42L32.84 401.46L32.82 401.5L32.81 401.54L32.79 401.58L32.78 401.62L32.76 401.66L32.75 401.7L32.73 401.74L32.72 401.78L32.7 401.82L32.68 401.86L32.67 401.9L32.65 401.94L32.63 401.98L32.51 402.29L32.39 402.6L32.28 402.92L32.19 403.23L32.1 403.54L32.02 403.86L31.95 404.17L31.89 404.49L31.83 404.81L31.79 405.12L31.76 405.44L31.73 405.75L31.72 406.07L31.71 406.39L31.71 406.7L31.72 407.02L31.74 407.33L31.77 407.64L31.81 407.96L31.86 408.27L31.91 408.58L31.98 408.89L32.05 409.19L32.13 409.5L32.22 409.81L32.32 410.11L32.43 410.41L32.55 410.71L32.68 411.01L32.81 411.31L32.95 411.6L33.11 411.89L33.27 412.18L33.44 412.47L33.62 412.75L33.8 413.03L34 413.31L34.21 413.59L34.42 413.86L34.64 414.13L34.87 414.4L35.1 414.66L35.35 414.91L35.59 415.16L35.85 415.41L36.11 415.64L36.37 415.87L36.64 416.1L36.92 416.31L37.2 416.53L37.49 416.73L37.78 416.93L38.08 417.13L38.38 417.31L38.69 417.49L39 417.67L39.32 417.83L39.64 417.99L39.96 418.15L40.29 418.3L40.63 418.44L40.96 418.57L41.31 418.7L41.65 418.82L42 418.93L42.35 419.04L42.71 419.14L43.07 419.23L43.43 419.32L43.79 419.39L44.16 419.47L44.53 419.53L44.91 419.59L45.29 419.63L45.66 419.68L46.05 419.71L46.43 419.74L46.82 419.76L47.21 419.77L47.6 419.77L47.69 419.77L62.12 419.76L65.38 421.85L68.66 424.05L71.97 426.36L75.29 428.77L78.64 431.29L82 433.91L85.39 436.65L88.8 439.49L92.22 442.44L95.67 445.5L99.15 448.67L102.64 451.94L106.15 455.32L109.69 458.81L113.24 462.41L116.82 466.11L120.42 469.92L124.03 473.84L127.67 477.87L131.34 482L135.02 486.24L138.72 490.59L142.45 495.05L146.19 499.61L149.96 504.29L153.74 509.07L157.55 513.96L161.38 518.95L165.23 524.05L169.11 529.27L173 534.58L176.91 540.01L180.85 545.54L184.8 551.19L188.78 556.93L192.78 562.79L196.8 568.76L200.84 574.83L204.9 581.01L208.99 587.29L209.53 588.13L210.06 588.96L210.59 589.78L211.12 590.59L211.63 591.4L212.15 592.19L212.66 592.98L213.16 593.76L213.66 594.53L214.15 595.29L214.64 596.04L215.12 596.78L215.59 597.51L216.06 598.24L216.52 598.95L216.98 599.65L217.43 600.35L217.88 601.03L218.32 601.71L218.75 602.37L219.18 603.03L219.6 603.67L220.01 604.3L220.42 604.93L220.82 605.54L221.22 606.14L221.61 606.73L221.99 607.31L222.37 607.88L222.74 608.43L223.1 608.98L223.45 609.51L223.8 610.03L224.14 610.54L224.48 611.04L224.81 611.52L225.13 611.99L225.44 612.45L225.75 612.9L226.05 613.34L251.3 613.32L251.81 612.16L252.36 611.02L252.96 609.9L253.59 608.79L254.26 607.71L254.97 606.64L255.71 605.6L256.5 604.57L257.31 603.57L258.17 602.59L259.05 601.63L259.97 600.69L260.92 599.78L261.91 598.9L262.92 598.04L263.97 597.2L265.05 596.39L266.15 595.61L267.28 594.86L268.44 594.13L269.63 593.44L270.84 592.77L272.07 592.14L273.34 591.53L274.62 590.96L275.93 590.42L277.26 589.91L278.61 589.44L279.98 589L281.37 588.6L282.78 588.23L284.21 587.9L285.65 587.6L287.11 587.34L288.59 587.12L290.08 586.94L291.59 586.8L293.11 586.69L294.65 586.63L296.19 586.61L343.8 586.61L345.35 586.63L346.88 586.69L348.4 586.8L349.91 586.94L351.4 587.12L352.88 587.34L354.34 587.6L355.78 587.89L357.21 588.23L358.62 588.6L360.01 589L361.38 589.44L362.73 589.91L364.06 590.42L365.37 590.96L366.65 591.53L367.91 592.14L369.15 592.77L370.36 593.44L371.55 594.13L372.7 594.85L373.84 595.61L374.94 596.39L376.02 597.2L377.06 598.03L378.08 598.89L379.06 599.78L380.01 600.69L380.93 601.62L381.82 602.58L382.67 603.56L383.49 604.56L384.27 605.59L385.02 606.63L385.73 607.7L386.4 608.78L387.03 609.89L387.62 611.01L388.17 612.15L388.69 613.3L413.97 613.3L414.27 612.87L414.57 612.43L414.88 611.97L415.2 611.5L415.53 611.01L415.86 610.52L416.2 610.01L416.55 609.49L416.91 608.96L417.27 608.42L417.64 607.86L418.01 607.3L418.39 606.72L418.78 606.13L419.17 605.53L419.58 604.92L419.98 604.3L420.4 603.67L420.82 603.02L421.24 602.37L421.68 601.71L422.12 601.03L422.56 600.35L423.01 599.65L423.47 598.95L423.93 598.24L424.4 597.51L424.88 596.78L425.36 596.04L425.84 595.29L426.33 594.52L426.83 593.76L427.34 592.98L427.84 592.19L428.36 591.4L428.88 590.59L429.4 589.78L429.93 588.96L430.47 588.13L431.01 587.29L437.06 577.94L442.95 568.91L448.67 560.19L454.22 551.79L459.62 543.68L464.87 535.88L469.96 528.38L474.91 521.17L479.71 514.25L484.37 507.61L488.9 501.26L493.29 495.18L497.56 489.37L501.7 483.83L505.73 478.55L509.63 473.54L513.42 468.77L517.1 464.26L520.68 460L524.15 455.97L527.52 452.18L530.8 448.63L533.99 445.31L537.09 442.21L540.11 439.33L543.05 436.67L545.91 434.22L548.69 431.98L551.41 429.94L554.07 428.11L556.66 426.46L559.2 425.01L561.68 423.75L564.11 422.67L566.5 421.76L568.84 421.03L571.15 420.47L573.41 420.08L575.65 419.84L577.86 419.76L592.38 419.78L592.41 419.78L592.79 419.78L593.18 419.77L593.57 419.75L593.95 419.72L594.33 419.69L594.71 419.65L595.09 419.6L595.46 419.54L595.83 419.48L596.2 419.41L596.57 419.33L596.93 419.24L597.29 419.15L597.64 419.05L598 418.95L598.34 418.83L598.69 418.71L599.03 418.58L599.37 418.45L599.7 418.31L600.03 418.16L600.36 418.01L600.68 417.85L600.99 417.68L601.3 417.51L601.61 417.33L601.91 417.14L602.21 416.95L602.5 416.75L602.79 416.54L603.07 416.33L603.35 416.11L603.62 415.89L603.89 415.65L604.14 415.42L604.4 415.18L604.65 414.93L604.89 414.67L605.12 414.41L605.35 414.15L605.58 413.88L605.79 413.6L605.99 413.33L606.19 413.05L606.38 412.77L606.56 412.48L606.73 412.19L606.89 411.9L607.04 411.61L607.19 411.32L607.32 411.02L607.45 410.72L607.57 410.42L607.68 410.12L607.78 409.82L607.87 409.51L607.95 409.2L608.02 408.9L608.09 408.59L608.14 408.28L608.19 407.96L608.23 407.65L608.26 407.34L608.28 407.02L608.29 406.71L608.29 406.39L608.28 406.08L608.27 405.76L608.24 405.45L608.21 405.13L608.17 404.81L608.11 404.5L608.05 404.18L607.98 403.87L607.9 403.55L607.81 403.24L607.72 402.92L607.61 402.61L607.49 402.3L607.37 401.99L607.35 401.95L607.33 401.91L607.32 401.86L607.3 401.82L607.29 401.78L607.27 401.74L607.25 401.7L607.24 401.66L607.22 401.62L607.21 401.58L607.19 401.54L607.18 401.5L607.16 401.46L607.15 401.42L607.13 401.38L607.12 401.34L607.1 401.3L607.09 401.26L607.07 401.22L607.06 401.18L607.05 401.14L607.03 401.1L607.02 401.06L607.01 401.01L606.99 400.97L606.98 400.93L606.97 400.89L606.96 400.85L606.94 400.81L606.93 400.77L606.92 400.73L606.91 400.69L606.89 400.65L606.88 400.6L606.87 400.56L606.86 400.52L606.85 400.48L606.84 400.44L606.83 400.4L606.82 400.36L581.86 303.14L581.84 303.07L581.82 303L581.81 302.93L581.79 302.86L581.78 302.79L581.76 302.71L581.75 302.64L581.73 302.57L581.72 302.5L581.7 302.43L581.69 302.36L581.68 302.29L581.66 302.22L581.65 302.15L581.64 302.07L581.63 302L581.62 301.93L581.61 301.86L581.6 301.79L581.59 301.72L581.58 301.64L581.57 301.57L581.57 301.5L581.56 301.43L581.55 301.36L581.55 301.29L581.54 301.21L581.54 301.14L581.53 301.07L581.53 301L581.52 300.93L581.52 300.85L581.51 300.78L581.51 300.71L581.51 300.64L581.51 300.57L581.51 300.49L581.5 300.42L581.5 300.35L581.5 300.28L581.83 213.52L581.64 205.83L581.09 198.22L580.18 190.7L578.92 183.26L577.31 175.92L575.36 168.68L573.08 161.55L570.48 154.54L567.57 147.64L564.34 140.88L560.82 134.24L556.99 127.74L552.89 121.39L548.5 115.19L543.84 109.14L538.91 103.26L533.72 97.55L528.29 92.01L522.6 86.65L516.69 81.48L510.54 76.51L504.17 71.73L497.58 67.16L490.79 62.79L483.79 58.65L476.61 54.73L469.23 51.04L461.68 47.58L453.95 44.37L446.06 41.4L438.01 38.69L429.81 36.24L421.47 34.05L412.99 32.14L404.39 30.5L395.66 29.15L386.81 28.08L377.86 27.32L368.81 26.85L359.67 26.7L280.32 26.7L271.18 26.85Z" id="d9j05bBwN6"></path><path d="M533.48 479.11C425.37 468.31 363.33 336.77 360.74 331.17C357.57 324.3 361.61 316.58 369.78 313.9C377.94 311.2 387.13 314.62 390.32 321.49C390.89 322.7 448.02 443.69 537.21 452.59C545.92 453.47 552.14 460.1 551.11 467.42C550.15 474.21 543.3 479.2 535.37 479.2C534.74 479.2 534.11 479.16 533.48 479.11Z" id="iz0N68ZSp"></path><path d="M453.49 560.7C451.12 553.6 456.04 546.23 464.49 544.25C468.54 543.29 488.82 538.51 525.32 529.92C521.84 492.09 519.91 471.08 519.52 466.88C518.85 459.53 525.38 453.11 534.12 452.54C542.88 451.97 550.49 457.47 551.17 464.82C551.85 472.22 557.3 531.46 557.98 538.86C558.32 542.57 556.81 546.23 553.8 548.96C551.39 551.16 548.18 552.59 544.71 553.06C537.55 554.75 480.21 568.26 473.04 569.95C471.62 570.29 470.18 570.45 468.76 570.45C461.82 570.45 455.45 566.59 453.49 560.7Z" id="c4b7OxQvsB"></path><path d="M167.54 571.12C160.15 569.28 101.08 554.6 93.69 552.76C90.85 552.11 88.26 550.8 86.23 548.96C83.22 546.23 81.67 542.57 82.01 538.86C82.69 531.46 88.14 472.22 88.82 464.82C89.5 457.47 97.02 451.95 105.87 452.54C114.61 453.11 121.14 459.53 120.47 466.88C120.08 471.1 118.14 492.18 114.65 530.14C151.78 539.37 172.4 544.49 176.53 545.52C184.93 547.61 189.74 555.03 187.25 562.1C185.21 567.9 178.89 571.67 172.04 571.67C170.55 571.67 169.04 571.49 167.54 571.12Z" id="b18iFah38k"></path><path d="M451.49 259.75L453.73 259.94L455.94 260.21L458.12 260.54L460.28 260.95L462.39 261.43L464.48 261.98L466.53 262.59L468.54 263.27L470.51 264.01L472.45 264.82L474.33 265.68L476.18 266.6L477.98 267.58L479.72 268.62L481.42 269.71L483.07 270.85L484.66 272.05L486.2 273.29L487.68 274.58L489.1 275.92L490.46 277.31L491.75 278.74L492.99 280.21L494.15 281.72L495.25 283.27L496.28 284.86L497.23 286.48L498.11 288.14L498.92 289.84L499.65 291.56L500.3 293.31L500.87 295.1L501.36 296.91L501.76 298.74L502.07 300.6L502.3 302.48L502.44 304.39L502.49 306.31L502.44 308.23L502.3 310.14L502.07 312.02L501.76 313.88L501.36 315.71L500.87 317.52L500.3 319.31L499.65 321.06L498.92 322.78L498.11 324.48L497.23 326.14L496.28 327.76L495.25 329.35L494.15 330.9L492.99 332.41L491.75 333.88L490.46 335.31L489.1 336.69L487.68 338.03L486.2 339.33L484.66 340.57L483.07 341.77L481.42 342.91L479.72 344L477.98 345.04L476.18 346.02L474.33 346.94L472.45 347.8L470.51 348.61L468.54 349.35L466.53 350.03L464.48 350.64L462.39 351.19L460.28 351.67L458.12 352.08L455.94 352.41L453.73 352.68L451.49 352.87L449.23 352.99L446.95 353.03L444.82 353.03L442.77 352.56L442.55 352.51L442.03 352.39L441.22 352.21L440.13 351.96L438.77 351.66L437.16 351.31L435.31 350.9L433.23 350.45L430.94 349.95L428.44 349.42L425.75 348.85L422.88 348.25L419.85 347.62L416.66 346.96L413.33 346.29L409.86 345.59L406.29 344.88L402.6 344.16L398.83 343.44L394.97 342.71L391.04 341.98L387.06 341.25L383.04 340.54L378.99 339.83L374.91 339.14L370.84 338.47L366.76 337.82L362.71 337.19L358.68 336.6L354.7 336.03L350.78 335.51L346.92 335.02L343.15 334.58L339.46 334.18L335.88 333.84L332.42 333.55L329.09 333.32L325.9 333.15L322.87 333.04L320 333.01L317.13 333.04L314.09 333.15L310.9 333.32L307.57 333.55L304.11 333.84L300.53 334.18L296.85 334.58L293.07 335.02L289.21 335.51L285.29 336.03L281.31 336.6L277.28 337.19L273.23 337.82L269.16 338.47L265.08 339.14L261.01 339.83L256.95 340.54L252.93 341.25L248.95 341.98L245.02 342.71L241.17 343.44L237.39 344.16L233.71 344.88L230.13 345.59L226.67 346.29L223.33 346.96L220.14 347.62L217.11 348.25L214.24 348.85L211.55 349.42L209.05 349.95L206.76 350.45L204.68 350.9L202.83 351.31L201.22 351.66L199.87 351.96L198.78 352.21L197.96 352.39L197.44 352.51L197.22 352.56L195.17 353.03L193.05 353.03L190.76 352.99L188.5 352.87L186.26 352.68L184.05 352.41L181.87 352.08L179.72 351.67L177.6 351.19L175.51 350.64L173.46 350.03L171.45 349.35L169.48 348.61L167.55 347.8L165.66 346.94L163.81 346.02L162.02 345.04L160.27 344L158.57 342.91L156.92 341.77L155.33 340.57L153.79 339.33L152.31 338.03L150.89 336.69L149.53 335.31L148.24 333.88L147.01 332.41L145.84 330.9L144.74 329.35L143.72 327.76L142.76 326.14L141.88 324.48L141.07 322.78L140.34 321.06L139.69 319.31L139.12 317.52L138.64 315.71L138.24 313.88L137.92 312.02L137.69 310.14L137.55 308.23L137.51 306.31L137.55 304.39L137.69 302.48L137.92 300.6L138.24 298.74L138.64 296.91L139.12 295.1L139.69 293.31L140.34 291.56L141.07 289.84L141.88 288.14L142.76 286.48L143.72 284.86L144.74 283.27L145.84 281.72L147.01 280.21L148.24 278.74L149.53 277.31L150.89 275.92L152.31 274.58L153.79 273.29L155.33 272.05L156.92 270.85L158.57 269.71L160.27 268.62L162.02 267.58L163.81 266.6L165.66 265.68L167.55 264.82L169.48 264.01L171.45 263.27L173.46 262.59L175.51 261.98L177.6 261.43L179.72 260.95L181.87 260.54L184.05 260.21L186.26 259.94L188.5 259.75L190.76 259.63L193.05 259.59L195.88 259.81L196.1 259.84L196.63 259.92L197.45 260.04L198.55 260.21L199.91 260.41L201.53 260.65L203.4 260.92L205.49 261.22L207.81 261.56L210.33 261.92L213.04 262.3L215.93 262.7L218.99 263.13L222.21 263.57L225.57 264.02L229.06 264.49L232.67 264.96L236.39 265.45L240.2 265.93L244.09 266.42L248.06 266.91L252.08 267.4L256.14 267.88L260.23 268.36L264.35 268.82L268.47 269.27L272.59 269.71L276.69 270.13L280.76 270.53L284.79 270.91L288.76 271.26L292.66 271.59L296.49 271.89L300.22 272.15L303.85 272.38L307.36 272.58L310.75 272.73L313.99 272.85L317.08 272.92L320 272.94L322.92 272.92L326.01 272.85L329.25 272.73L332.63 272.58L336.15 272.38L339.78 272.15L343.51 271.89L347.34 271.59L351.24 271.26L355.22 270.91L359.24 270.53L363.31 270.13L367.41 269.71L371.53 269.27L375.65 268.82L379.77 268.36L383.86 267.88L387.93 267.4L391.95 266.91L395.91 266.42L399.8 265.93L403.61 265.45L407.33 264.96L410.94 264.49L414.43 264.02L417.79 263.57L421.01 263.13L424.07 262.7L426.96 262.3L429.67 261.92L432.19 261.56L434.5 261.22L436.6 260.92L438.46 260.65L440.08 260.41L441.45 260.21L442.54 260.04L443.36 259.92L443.89 259.84L444.11 259.81L446.95 259.59L449.23 259.63L451.49 259.75ZM445.84 286.67L444.32 286.89L442.59 287.14L440.65 287.43L438.52 287.74L436.2 288.07L433.71 288.42L431.06 288.8L428.24 289.19L425.28 289.6L422.19 290.02L418.96 290.46L415.63 290.9L412.18 291.36L408.64 291.82L405.01 292.28L401.3 292.75L397.53 293.22L393.69 293.68L389.81 294.14L385.89 294.6L381.95 295.05L377.98 295.49L374.01 295.92L370.03 296.33L366.07 296.73L362.13 297.11L358.22 297.48L354.34 297.82L350.52 298.14L346.76 298.43L343.07 298.7L339.46 298.94L335.93 299.14L332.51 299.31L329.19 299.45L326 299.55L322.93 299.62L320 299.64L317.07 299.62L314 299.55L310.8 299.45L307.48 299.31L304.06 299.14L300.54 298.94L296.92 298.7L293.23 298.43L289.47 298.14L285.65 297.82L281.78 297.48L277.86 297.11L273.92 296.73L269.96 296.33L265.99 295.92L262.01 295.49L258.05 295.05L254.1 294.6L250.18 294.14L246.3 293.68L242.47 293.22L238.69 292.75L234.98 292.28L231.35 291.82L227.81 291.36L224.37 290.9L221.03 290.46L217.81 290.02L214.71 289.6L211.75 289.19L208.94 288.8L206.28 288.42L203.79 288.07L201.47 287.74L199.34 287.43L197.4 287.14L195.67 286.89L194.16 286.67L192.87 286.47L191.81 286.31L190.87 286.37L189.94 286.46L189.03 286.57L188.13 286.72L187.23 286.89L186.36 287.09L185.49 287.32L184.64 287.58L183.81 287.86L182.99 288.17L182.18 288.5L181.4 288.85L180.63 289.23L179.88 289.64L179.15 290.06L178.44 290.51L177.75 290.98L177.09 291.47L176.44 291.98L175.82 292.51L175.22 293.06L174.65 293.62L174.1 294.21L173.57 294.81L173.07 295.43L172.6 296.06L172.16 296.71L171.75 297.38L171.36 298.06L171 298.75L170.68 299.46L170.39 300.18L170.12 300.91L169.89 301.65L169.7 302.4L169.54 303.17L169.41 303.94L169.32 304.72L169.26 305.51L169.24 306.31L169.26 307.1L169.32 307.87L169.4 308.64L169.53 309.4L169.68 310.16L169.87 310.9L170.1 311.63L170.35 312.35L170.64 313.06L170.95 313.76L171.3 314.44L171.67 315.11L172.07 315.77L172.5 316.41L172.96 317.04L173.44 317.65L173.95 318.25L174.48 318.83L175.04 319.39L175.63 319.94L176.23 320.47L176.86 320.98L177.51 321.46L178.18 321.93L178.87 322.38L179.58 322.81L180.31 323.22L181.05 323.6L181.82 323.96L182.6 324.3L183.4 324.61L184.21 324.9L185.04 325.17L185.89 325.41L186.74 325.62L187.61 325.81L188.5 325.96L189.39 326.1L190.3 326.2L191.21 326.27L192.42 326L193.85 325.68L195.49 325.32L197.34 324.92L199.38 324.47L201.6 323.99L204 323.48L206.56 322.94L209.28 322.36L212.14 321.77L215.14 321.15L218.27 320.51L221.52 319.86L224.88 319.19L228.34 318.51L231.89 317.83L235.52 317.14L239.22 316.44L242.99 315.75L246.81 315.06L250.67 314.38L254.56 313.7L258.49 313.04L262.43 312.39L266.37 311.76L270.31 311.15L274.24 310.56L278.15 310L282.03 309.47L285.87 308.97L289.66 308.5L293.39 308.07L297.05 307.68L300.63 307.33L304.13 307.03L307.53 306.78L310.83 306.58L314.01 306.43L317.07 306.34L320 306.31L322.92 306.34L325.98 306.43L329.16 306.58L332.46 306.78L335.86 307.03L339.36 307.33L342.94 307.68L346.61 308.07L350.34 308.5L354.12 308.97L357.96 309.47L361.84 310L365.75 310.56L369.68 311.15L373.62 311.76L377.57 312.39L381.51 313.04L385.43 313.7L389.33 314.38L393.19 315.06L397.01 315.75L400.77 316.44L404.47 317.14L408.1 317.83L411.65 318.51L415.11 319.19L418.47 319.86L421.72 320.51L424.85 321.15L427.85 321.77L430.72 322.36L433.43 322.94L436 323.48L438.39 323.99L440.62 324.47L442.65 324.92L444.5 325.32L446.14 325.68L447.57 326L448.78 326.27L449.7 326.2L450.6 326.1L451.5 325.96L452.38 325.81L453.25 325.62L454.11 325.41L454.95 325.17L455.78 324.9L456.59 324.61L457.39 324.3L458.17 323.96L458.94 323.6L459.69 323.22L460.42 322.81L461.13 322.38L461.82 321.93L462.49 321.46L463.14 320.98L463.76 320.47L464.37 319.94L464.95 319.39L465.51 318.83L466.04 318.25L466.55 317.65L467.03 317.04L467.49 316.41L467.92 315.77L468.32 315.11L468.7 314.44L469.04 313.76L469.36 313.06L469.64 312.35L469.9 311.63L470.12 310.9L470.31 310.16L470.46 309.4L470.59 308.64L470.68 307.87L470.73 307.1L470.75 306.31L470.73 305.51L470.67 304.72L470.58 303.94L470.46 303.17L470.29 302.4L470.1 301.65L469.87 300.91L469.61 300.18L469.31 299.46L468.99 298.75L468.63 298.06L468.25 297.38L467.83 296.71L467.39 296.06L466.92 295.43L466.42 294.81L465.9 294.21L465.35 293.62L464.77 293.06L464.17 292.51L463.55 291.98L462.91 291.47L462.24 290.98L461.55 290.51L460.84 290.06L460.11 289.64L459.36 289.23L458.59 288.85L457.81 288.5L457.01 288.17L456.19 287.86L455.35 287.58L454.5 287.32L453.64 287.09L452.76 286.89L451.87 286.72L450.96 286.57L450.05 286.46L449.12 286.37L448.19 286.31L447.13 286.47L445.84 286.67Z" id="d2q8A2o7W1"></path><path d="M94.09 475.81C87.55 470.91 86.97 462.47 92.8 456.97C107.85 442.77 116.21 429.07 115.16 420.33C114.87 417.87 113.8 414.58 108.19 411.06C67.16 387.74 42.3 348.45 42.3 306.31C42.3 236.39 109.92 179.51 193.05 179.51C193.14 179.51 193.62 179.53 194.47 179.56C205.53 180.43 211.67 180.92 212.9 181.01C250.19 186.71 301.74 192.86 320 192.86C338.25 192.86 389.8 186.71 427.09 181.01C427.19 181 427.66 180.95 428.5 180.85C439.57 180.05 445.72 179.6 446.95 179.51C530.07 179.51 597.7 236.39 597.7 306.31C597.7 348.45 572.83 387.74 531.19 411.42C526.2 414.58 525.13 417.84 524.83 420.3C523.77 428.88 531.89 442.37 546.55 456.36C552.34 461.89 551.71 470.33 545.13 475.2C538.55 480.08 528.53 479.53 522.73 474.01C507.86 459.81 490.68 438.49 493.27 417.54C494.63 406.48 501.39 396.84 512.81 389.67C546.32 370.6 565.96 339.57 565.96 306.31C565.96 251.31 512.95 206.52 447.63 206.21C446.08 206.32 433.62 207.27 432.06 207.39C400.83 212.14 343.43 219.55 320 219.55C296.57 219.55 239.17 212.14 207.93 207.39C206.37 207.27 193.92 206.32 192.36 206.21C127.05 206.52 74.03 251.31 74.03 306.31C74.03 339.57 93.67 370.6 126.57 389.3C138.65 396.87 145.4 406.54 146.74 417.65C149.28 438.85 131.7 460.39 116.49 474.73C113.36 477.69 109.01 479.2 104.64 479.2C100.88 479.2 97.11 478.08 94.09 475.81Z" id="b9GieZKlyT"></path><path d="M474.62 377.22C470.42 370.74 473.27 362.64 480.96 359.11C504.03 348.54 518.35 328.31 518.35 306.31C518.35 273.38 486.69 246.56 447.63 246.25C446.92 246.3 441.26 246.73 440.55 246.78C432.25 248.04 354.53 259.59 320 259.59C285.46 259.59 207.75 248.04 199.44 246.78C198.73 246.73 193.07 246.3 192.37 246.25C153.31 246.56 121.64 273.38 121.64 306.31C121.64 328.31 135.97 348.54 159.03 359.11C166.73 362.64 169.57 370.74 165.37 377.22C161.18 383.69 151.53 386.08 143.85 382.55C110.57 367.31 89.9 338.09 89.9 306.31C89.9 258.47 136.17 219.55 193.05 219.55C193.14 219.55 193.62 219.57 194.47 219.61C200.43 220.09 203.74 220.36 204.4 220.41C235.99 225.24 295.31 232.9 320 232.9C344.68 232.9 404 225.24 435.59 220.41C435.69 220.4 436.16 220.35 437 220.25C442.97 219.83 446.28 219.6 446.95 219.55C503.82 219.55 550.09 258.47 550.09 306.31C550.09 338.09 529.42 367.31 496.15 382.55C493.74 383.66 491.13 384.18 488.57 384.18C482.94 384.18 477.5 381.66 474.62 377.22Z" id="b6SGn4x7aX"></path><path d="M88.92 467.67C87.73 460.37 93.8 453.64 102.48 452.63C190.5 442.43 245.1 322.84 245.64 321.63C248.73 314.73 257.91 311.26 266.08 313.84C274.28 316.44 278.43 324.13 275.34 331.03C272.87 336.56 213.56 466.7 106.81 479.07C106.08 479.16 105.34 479.2 104.62 479.2C96.82 479.2 90.02 474.35 88.92 467.67Z" id="aal4wxs7s"></path></defs><g><g><g><use xlink:href="#d9j05bBwN6" opacity="1" fill="#f20a15" fill-opacity="1"></use><g><use xlink:href="#d9j05bBwN6" opacity="1" fill-opacity="0" stroke="#000000" stroke-width="1" stroke-opacity="0"></use></g></g><g><use xlink:href="#iz0N68ZSp" opacity="1" fill="#f20a15" fill-opacity="1"></use><g><use xlink:href="#iz0N68ZSp" opacity="1" fill-opacity="0" stroke="#000000" stroke-width="1" stroke-opacity="0"></use></g></g><g><use xlink:href="#c4b7OxQvsB" opacity="1" fill="#f20a15" fill-opacity="1"></use><g><use xlink:href="#c4b7OxQvsB" opacity="1" fill-opacity="0" stroke="#000000" stroke-width="1" stroke-opacity="0"></use></g></g><g><use xlink:href="#b18iFah38k" opacity="1" fill="#f20a15" fill-opacity="1"></use><g><use xlink:href="#b18iFah38k" opacity="1" fill-opacity="0" stroke="#000000" stroke-width="1" stroke-opacity="0"></use></g></g><g><use xlink:href="#d2q8A2o7W1" opacity="1" fill="#f20a15" fill-opacity="1"></use><g><use xlink:href="#d2q8A2o7W1" opacity="1" fill-opacity="0" stroke="#000000" stroke-width="1" stroke-opacity="0"></use></g></g><g><use xlink:href="#b9GieZKlyT" opacity="1" fill="#f20a15" fill-opacity="1"></use><g><use xlink:href="#b9GieZKlyT" opacity="1" fill-opacity="0" stroke="#000000" stroke-width="1" stroke-opacity="0"></use></g></g><g><use xlink:href="#b6SGn4x7aX" opacity="1" fill="#f20a15" fill-opacity="1"></use><g><use xlink:href="#b6SGn4x7aX" opacity="1" fill-opacity="0" stroke="#000000" stroke-width="1" stroke-opacity="0"></use></g></g><g><use xlink:href="#aal4wxs7s" opacity="1" fill="#f20a15" fill-opacity="1"></use><g><use xlink:href="#aal4wxs7s" opacity="1" fill-opacity="0" stroke="#000000" stroke-width="1" stroke-opacity="0"></use></g></g></g></g></svg>