<?xml version="1.0" encoding="UTF-8" standalone="no"?>
<!DOCTYPE svg PUBLIC "-//W3C//DTD SVG 1.1//EN" "http://www.w3.org/Graphics/SVG/1.1/DTD/svg11.dtd">
<svg version="1.1" xmlns="http://www.w3.org/2000/svg" xmlns:xlink="http://www.w3.org/1999/xlink" preserveAspectRatio="xMidYMid meet" viewBox="0 0 640 640" width="640" height="640"><defs><path d="M69.16 506.84L70.43 507.04L71.66 507.33L72.87 507.69L74.04 508.12L75.18 508.63L76.28 509.2L77.33 509.83L78.35 510.53L79.32 511.29L80.24 512.11L81.1 512.97L81.92 513.89L82.67 514.86L83.37 515.88L84.01 516.94L84.58 518.04L85.08 519.18L85.51 520.35L85.87 521.56L86.16 522.8L86.36 524.06L86.49 525.36L86.53 526.67L86.49 527.98L86.36 529.27L86.16 530.54L85.87 531.78L85.51 532.98L85.08 534.16L84.58 535.3L84.01 536.4L83.37 537.46L82.67 538.47L81.92 539.44L81.1 540.36L80.24 541.23L79.32 542.05L78.35 542.8L77.33 543.5L76.28 544.14L75.18 544.71L74.04 545.21L72.87 545.65L71.66 546.01L70.43 546.29L69.16 546.5L67.87 546.63L66.56 546.67L65.25 546.63L63.96 546.5L62.7 546.29L61.46 546.01L60.26 545.65L59.08 545.21L57.95 544.71L56.85 544.14L55.79 543.5L54.78 542.8L53.81 542.05L52.89 541.23L52.02 540.36L51.21 539.44L50.45 538.47L49.75 537.46L49.12 536.4L48.55 535.3L48.05 534.16L47.61 532.98L47.25 531.78L46.97 530.54L46.76 529.27L46.64 527.98L46.59 526.67L46.64 525.36L46.76 524.06L46.97 522.8L47.25 521.56L47.61 520.35L48.05 519.18L48.55 518.04L49.12 516.94L49.75 515.88L50.45 514.86L51.21 513.89L52.02 512.97L52.89 512.11L53.81 511.29L54.78 510.53L55.79 509.83L56.85 509.2L57.95 508.63L59.08 508.12L60.26 507.69L61.46 507.33L62.7 507.04L63.96 506.84L65.25 506.71L66.56 506.67L67.87 506.71L69.16 506.84ZM63.97 520.53L62.84 521.14L61.86 521.96L61.04 522.94L60.43 524.08L60.04 525.33L59.91 526.67L60.04 528.01L60.43 529.26L61.04 530.39L61.86 531.38L62.84 532.2L63.97 532.81L65.22 533.2L66.56 533.34L67.9 533.2L69.15 532.81L70.28 532.2L71.27 531.38L72.08 530.39L72.69 529.26L73.08 528.01L73.22 526.67L73.08 525.33L72.69 524.08L72.08 522.94L71.27 521.96L70.28 521.14L69.15 520.53L67.9 520.14L66.56 520L65.22 520.14L63.97 520.53Z" id="a4dBxlbNQQ"></path><path d="M142.38 26.85L143.64 27.05L144.88 27.34L146.09 27.7L147.26 28.13L148.4 28.64L149.49 29.21L150.55 29.84L151.57 30.54L152.53 31.3L153.45 32.11L154.32 32.98L155.13 33.9L155.89 34.87L156.59 35.89L157.22 36.95L157.79 38.05L158.3 39.19L158.73 40.36L159.09 41.57L159.37 42.81L159.58 44.07L159.71 45.36L159.75 46.68L159.71 47.99L159.58 49.28L159.37 50.55L159.09 51.78L158.73 52.99L158.3 54.17L157.79 55.31L157.22 56.41L156.59 57.47L155.89 58.48L155.13 59.45L154.32 60.37L153.45 61.24L152.53 62.06L151.57 62.81L150.55 63.51L149.49 64.15L148.4 64.72L147.26 65.22L146.09 65.66L144.88 66.02L143.64 66.3L142.38 66.51L141.09 66.63L139.78 66.68L138.47 66.63L137.18 66.51L135.92 66.3L134.68 66.02L133.48 65.66L132.3 65.22L131.17 64.72L130.07 64.15L129.01 63.51L127.99 62.81L127.03 62.06L126.11 61.24L125.24 60.37L124.43 59.45L123.67 58.48L122.97 57.47L122.34 56.41L121.77 55.31L121.26 54.17L120.83 52.99L120.47 51.78L120.19 50.55L119.98 49.28L119.85 47.99L119.81 46.68L119.85 45.36L119.98 44.07L120.19 42.81L120.47 41.57L120.83 40.36L121.26 39.19L121.77 38.05L122.34 36.95L122.97 35.89L123.67 34.87L124.43 33.9L125.24 32.98L126.11 32.11L127.03 31.3L127.99 30.54L129.01 29.84L130.07 29.21L131.17 28.64L132.3 28.13L133.48 27.7L134.68 27.34L135.92 27.05L137.18 26.85L138.47 26.72L139.78 26.68L141.09 26.72L142.38 26.85ZM137.19 40.53L136.06 41.15L135.08 41.96L134.26 42.95L133.65 44.08L133.26 45.33L133.12 46.68L133.26 48.02L133.65 49.27L134.26 50.4L135.08 51.39L136.06 52.2L137.19 52.82L138.44 53.21L139.78 53.34L141.12 53.21L142.37 52.82L143.5 52.2L144.48 51.39L145.3 50.4L145.91 49.27L146.3 48.02L146.44 46.68L146.3 45.33L145.91 44.08L145.3 42.95L144.48 41.96L143.5 41.15L142.37 40.53L141.12 40.15L139.78 40.01L138.44 40.15L137.19 40.53Z" id="g2IzjiQrI3"></path><path d="M595 26.85L596.27 27.05L597.5 27.34L598.71 27.7L599.88 28.13L601.02 28.64L602.12 29.21L603.18 29.84L604.19 30.54L605.16 31.3L606.08 32.11L606.94 32.98L607.76 33.9L608.51 34.87L609.21 35.89L609.85 36.95L610.42 38.05L610.92 39.19L611.35 40.36L611.71 41.57L612 42.81L612.2 44.07L612.33 45.36L612.37 46.68L612.33 47.99L612.2 49.28L612 50.55L611.71 51.78L611.35 52.99L610.92 54.17L610.42 55.31L609.85 56.41L609.21 57.47L608.51 58.48L607.76 59.45L606.94 60.37L606.08 61.24L605.16 62.06L604.19 62.81L603.18 63.51L602.12 64.15L601.02 64.72L599.88 65.22L598.71 65.66L597.5 66.02L596.27 66.3L595 66.51L593.71 66.63L592.4 66.68L591.09 66.63L589.8 66.51L588.54 66.3L587.3 66.02L586.1 65.66L584.93 65.22L583.79 64.72L582.69 64.15L581.63 63.51L580.62 62.81L579.65 62.06L578.73 61.24L577.86 60.37L577.05 59.45L576.29 58.48L575.6 57.47L574.96 56.41L574.39 55.31L573.89 54.17L573.45 52.99L573.09 51.78L572.81 50.55L572.6 49.28L572.48 47.99L572.44 46.68L572.48 45.36L572.6 44.07L572.81 42.81L573.09 41.57L573.45 40.36L573.89 39.19L574.39 38.05L574.96 36.95L575.6 35.89L576.29 34.87L577.05 33.9L577.86 32.98L578.73 32.11L579.65 31.3L580.62 30.54L581.63 29.84L582.69 29.21L583.79 28.64L584.93 28.13L586.1 27.7L587.3 27.34L588.54 27.05L589.8 26.85L591.09 26.72L592.4 26.68L593.71 26.72L595 26.85ZM589.82 40.53L588.69 41.15L587.7 41.96L586.89 42.95L586.27 44.08L585.88 45.33L585.75 46.68L585.88 48.02L586.27 49.27L586.89 50.4L587.7 51.39L588.69 52.2L589.82 52.82L591.06 53.21L592.4 53.34L593.74 53.21L594.99 52.82L596.12 52.2L597.11 51.39L597.92 50.4L598.54 49.27L598.92 48.02L599.06 46.68L598.92 45.33L598.54 44.08L597.92 42.95L597.11 41.96L596.12 41.15L594.99 40.53L593.74 40.15L592.4 40.01L591.06 40.15L589.82 40.53Z" id="agssw74Qy"></path><path d="M187.16 270.07C183.48 263.69 185.66 255.54 192.03 251.86C220.85 235.19 451.43 101.86 480.25 85.19C486.61 81.52 494.76 83.69 498.43 90.07C502.11 96.45 499.93 104.61 493.56 108.29C464.74 124.96 234.16 258.29 205.34 274.95C203.25 276.17 200.96 276.74 198.7 276.74C194.1 276.74 189.62 274.35 187.16 270.07Z" id="a1eaqUWW7S"></path><path d="M432.69 519.87C427.73 516.58 387.98 490.3 383.01 487.01C376.87 482.96 375.18 474.69 379.24 468.54C383.29 462.4 391.55 460.7 397.68 464.76C400.53 466.65 414.81 476.09 440.5 493.08L564.59 421.31C562.75 390.54 561.72 373.44 561.52 370.02C561.08 362.67 566.67 356.35 574.01 355.92C581.3 355.41 587.66 361.07 588.1 368.42C588.45 374.37 591.31 421.99 591.66 427.94C591.97 432.99 589.4 437.76 585.03 440.29C571.19 448.29 460.52 512.29 446.69 520.29C444.62 521.48 442.32 522.07 440.03 522.07C437.47 522.07 434.91 521.34 432.69 519.87Z" id="bYdyzVkVn"></path><path d="M451.6 507.15C446.02 502.37 445.36 493.95 450.14 488.36C454.92 482.75 463.32 482.11 468.91 486.89C483.89 499.72 505.43 501.72 522.51 491.83C539.59 481.96 548.64 462.29 545.04 442.89C543.69 435.65 548.47 428.69 555.69 427.35C562.91 425.96 569.87 430.77 571.22 438.02C576.88 468.51 562.66 499.42 535.83 514.93C524.45 521.51 511.81 524.74 499.24 524.74C482.14 524.74 465.16 518.77 451.6 507.15Z" id="d3q7sEOS5Y"></path><path d="M211.22 80.88C204.96 77.02 203 68.81 206.85 62.53C210.69 56.25 218.89 54.31 225.16 58.15C239.78 67.16 258.07 67.41 272.9 58.83C287.74 50.26 296.66 34.26 296.2 17.09C295.99 9.73 301.79 3.6 309.14 3.4C316.26 3.1 322.61 9.01 322.81 16.37C323.54 43.33 309.52 68.45 286.21 81.92C274.87 88.49 262.23 91.76 249.61 91.76C236.29 91.76 223 88.13 211.22 80.88Z" id="k6Se39a19"></path><path d="M355.66 67.49L356.17 67.54L356.68 67.6L357.19 67.69L357.69 67.79L358.18 67.91L358.67 68.06L359.16 68.22L359.64 68.4L360.11 68.59L360.58 68.81L361.03 69.04L361.48 69.29L361.92 69.56L362.35 69.85L362.77 70.16L363.18 70.48L363.58 70.82L363.96 71.17L364.33 71.54L364.69 71.93L365.04 72.34L365.37 72.76L365.68 73.2L365.98 73.65L366.27 74.12L386.24 108.77L386.37 109L386.49 109.23L386.61 109.46L386.73 109.7L386.84 109.94L386.94 110.18L387.04 110.42L387.14 110.66L387.23 110.91L387.32 111.16L387.4 111.4L387.48 111.65L387.55 111.91L387.61 112.16L387.67 112.41L387.73 112.66L387.78 112.92L387.83 113.18L387.87 113.43L387.91 113.69L387.94 113.95L387.96 114.21L387.99 114.47L388 114.73L388.01 114.99L388.02 115.25L388.02 115.51L388.02 115.77L388.01 116.03L387.99 116.29L387.97 116.55L387.95 116.81L387.92 117.07L387.88 117.33L387.84 117.59L387.8 117.85L387.75 118.11L387.69 118.37L387.63 118.63L387.57 118.88L387.49 119.14L387.42 119.39L387.34 119.64L387.25 119.89L387.16 120.14L387.07 120.38L386.97 120.63L386.86 120.87L386.75 121.11L386.64 121.34L386.52 121.57L386.4 121.8L386.27 122.03L386.14 122.26L386.01 122.48L385.87 122.7L385.73 122.92L385.58 123.13L385.43 123.34L385.27 123.55L385.11 123.75L384.95 123.96L384.78 124.16L384.61 124.35L384.43 124.54L384.25 124.73L384.07 124.92L383.88 125.1L383.69 125.28L383.5 125.45L383.3 125.62L383.1 125.79L382.89 125.95L382.68 126.11L382.47 126.27L382.26 126.42L382.04 126.56L381.82 126.71L381.59 126.85L381.36 126.98L323.72 160.31L323.56 160.4L323.4 160.49L323.24 160.58L323.08 160.66L322.92 160.74L322.76 160.82L322.6 160.89L322.44 160.96L322.28 161.04L322.11 161.1L321.95 161.17L321.78 161.23L321.62 161.3L321.46 161.35L321.29 161.41L321.12 161.47L320.96 161.52L320.79 161.57L320.62 161.62L320.46 161.66L320.29 161.7L320.12 161.74L319.95 161.78L319.78 161.82L319.62 161.85L319.45 161.88L319.28 161.91L319.11 161.94L318.94 161.97L318.77 161.99L318.6 162.01L318.43 162.03L318.26 162.05L318.09 162.06L317.92 162.07L317.75 162.08L317.58 162.09L317.41 162.09L317.24 162.1L317.07 162.1L316.73 162.09L316.39 162.08L316.04 162.06L315.7 162.03L315.36 161.99L315.02 161.94L314.68 161.88L314.34 161.82L314.01 161.74L313.68 161.66L313.35 161.57L313.02 161.47L312.69 161.36L312.37 161.24L312.05 161.12L311.73 160.98L311.42 160.84L311.11 160.69L310.8 160.53L310.5 160.37L310.2 160.2L309.91 160.01L309.62 159.82L309.33 159.63L309.05 159.42L308.78 159.21L308.51 158.99L308.24 158.76L307.98 158.52L307.73 158.28L307.48 158.03L307.24 157.77L307 157.5L306.77 157.23L306.55 156.95L306.33 156.66L306.12 156.36L305.92 156.06L305.72 155.75L305.53 155.43L285.56 120.79L285.43 120.56L285.31 120.33L285.19 120.09L285.07 119.86L284.96 119.62L284.86 119.38L284.76 119.14L284.66 118.89L284.57 118.65L284.48 118.4L284.4 118.15L284.33 117.9L284.25 117.65L284.19 117.4L284.13 117.15L284.07 116.89L284.02 116.64L283.97 116.38L283.93 116.12L283.89 115.87L283.86 115.61L283.84 115.35L283.82 115.09L283.8 114.83L283.79 114.57L283.78 114.31L283.78 114.05L283.78 113.79L283.79 113.53L283.81 113.27L283.83 113L283.85 112.74L283.88 112.48L283.92 112.22L283.96 111.96L284 111.7L284.05 111.45L284.11 111.19L284.17 110.93L284.24 110.67L284.31 110.42L284.38 110.16L284.46 109.91L284.55 109.66L284.64 109.42L284.73 109.17L284.83 108.93L284.94 108.69L285.05 108.45L285.16 108.21L285.28 107.98L285.4 107.75L285.53 107.52L285.66 107.3L285.79 107.08L285.93 106.86L286.08 106.64L286.22 106.43L286.38 106.21L286.53 106.01L286.69 105.8L286.86 105.6L287.02 105.4L287.2 105.21L287.37 105.01L287.55 104.83L287.73 104.64L287.92 104.46L288.11 104.28L288.31 104.11L288.5 103.94L288.7 103.77L288.91 103.61L289.12 103.45L289.33 103.29L289.54 103.14L289.76 102.99L289.98 102.85L290.21 102.71L290.44 102.57L348.08 69.24L348.56 68.98L349.05 68.73L349.54 68.51L350.04 68.31L350.54 68.13L351.05 67.98L351.55 67.84L352.07 67.73L352.58 67.63L353.09 67.56L353.61 67.5L354.12 67.47L354.64 67.46L355.15 67.46L355.66 67.49ZM321.93 130.55L356.52 110.55L349.87 99.01L315.28 119.01L321.93 130.55Z" id="b1mBa6m01"></path><path d="M171.37 233.01C167.69 226.64 169.87 218.48 176.24 214.8C181.34 211.85 206.85 197.1 252.76 170.55L246.1 159.01C208.28 180.88 187.26 193.03 183.06 195.46C176.69 199.14 168.55 196.96 164.87 190.58C161.2 184.2 163.38 176.05 169.74 172.36C177.2 168.05 236.86 133.55 244.32 129.24C247.38 127.47 251 126.99 254.42 127.91C257.83 128.82 260.74 131.06 262.5 134.12C264.5 137.59 280.48 165.3 282.47 168.76C286.15 175.14 283.97 183.3 277.6 186.98C268.8 192.07 198.36 232.81 189.55 237.9C187.46 239.11 185.17 239.68 182.91 239.68C178.31 239.68 173.84 237.29 171.37 233.01Z" id="i2wFNMTW"></path><path d="M327.01 512.68C323.85 507.32 298.53 464.49 295.36 459.14C291.61 452.8 293.71 444.63 300.03 440.88C306.37 437.13 314.53 439.23 318.27 445.56C319.93 448.37 328.24 462.43 343.21 487.75L608.5 334.34C528.63 195.78 484.25 118.8 475.38 103.41C454.93 67.94 421.92 42.57 382.42 31.96C342.93 21.38 301.66 26.81 266.25 47.29C230.84 67.76 205.5 100.83 194.92 140.39C184.34 179.95 189.77 221.27 210.21 256.74C217.23 268.9 273.32 366.22 280.33 378.38C284.01 384.76 281.83 392.91 275.46 396.6C269.1 400.27 260.95 398.09 257.28 391.72C250.27 379.55 194.17 282.24 187.16 270.07C163.15 228.44 156.78 179.93 169.2 133.49C181.63 87.05 211.36 48.23 252.94 24.19C294.51 0.15 342.95 -6.23 389.31 6.21C435.68 18.65 474.43 48.43 498.43 90.07C512.41 114.32 624.24 308.31 638.21 332.56C641.89 338.94 639.71 347.09 633.34 350.77C604.52 367.44 373.94 500.77 345.12 517.44C343.03 518.65 340.74 519.22 338.48 519.22C333.93 519.22 329.5 516.88 327.01 512.68Z" id="b3ysFdh0zK"></path><path d="M586.6 533.36L587.02 533.4L587.44 533.44L587.86 533.5L588.27 533.58L588.68 533.66L589.09 533.76L589.49 533.87L589.88 533.99L590.27 534.13L590.66 534.28L591.04 534.43L591.41 534.6L591.78 534.78L592.15 534.98L592.5 535.18L592.85 535.39L593.2 535.62L593.53 535.85L593.86 536.1L594.18 536.35L594.49 536.62L594.8 536.89L595.1 537.17L595.38 537.47L595.66 537.77L595.93 538.08L596.19 538.4L596.44 538.73L596.69 539.07L596.92 539.41L597.14 539.77L597.35 540.13L597.55 540.5L597.74 540.87L597.92 541.26L598.08 541.65L598.24 542.04L598.38 542.45L625 622.45L625.1 622.75L625.19 623.06L625.27 623.37L625.35 623.68L625.41 623.99L625.47 624.3L625.53 624.61L625.57 624.93L625.61 625.24L625.64 625.55L625.66 625.87L625.68 626.18L625.68 626.49L625.68 626.81L625.68 627.12L625.66 627.43L625.64 627.74L625.61 628.06L625.58 628.37L625.53 628.68L625.48 628.98L625.42 629.29L625.36 629.6L625.29 629.9L625.21 630.2L625.12 630.51L625.03 630.8L624.93 631.1L624.82 631.4L624.7 631.69L624.58 631.98L624.45 632.27L624.32 632.55L624.17 632.83L624.03 633.11L623.87 633.39L623.7 633.66L623.53 633.93L623.36 634.2L623.17 634.46L622.98 634.72L622.79 634.97L622.58 635.22L622.38 635.46L622.17 635.7L621.95 635.93L621.73 636.15L621.5 636.37L621.27 636.59L621.03 636.79L620.79 637L620.55 637.19L620.3 637.38L620.04 637.57L619.78 637.74L619.52 637.91L619.26 638.08L618.99 638.24L618.72 638.39L618.44 638.54L618.16 638.68L617.88 638.81L617.59 638.93L617.3 639.05L617.01 639.17L616.72 639.27L616.42 639.37L616.12 639.46L615.82 639.55L615.51 639.62L615.21 639.69L614.9 639.76L614.59 639.81L614.28 639.86L613.96 639.9L613.65 639.94L613.33 639.97L613.01 639.98L612.69 640L612.37 640L426 640L425.68 640L425.36 639.98L425.04 639.97L424.72 639.94L424.41 639.9L424.09 639.86L423.78 639.81L423.47 639.76L423.16 639.69L422.86 639.62L422.55 639.55L422.25 639.46L421.95 639.37L421.65 639.27L421.36 639.17L421.07 639.05L420.78 638.93L420.49 638.81L420.21 638.68L419.93 638.54L419.66 638.39L419.38 638.24L419.11 638.08L418.85 637.91L418.59 637.74L418.33 637.57L418.08 637.38L417.83 637.19L417.58 637L417.34 636.79L417.1 636.59L416.87 636.37L416.64 636.15L416.42 635.93L416.21 635.7L415.99 635.46L415.79 635.22L415.58 634.97L415.39 634.72L415.2 634.46L415.01 634.2L414.84 633.93L414.67 633.66L414.5 633.39L414.35 633.11L414.2 632.83L414.05 632.55L413.92 632.27L413.79 631.98L413.67 631.69L413.55 631.4L413.44 631.1L413.34 630.8L413.25 630.51L413.16 630.2L413.08 629.9L413.01 629.6L412.95 629.29L412.89 628.98L412.84 628.68L412.79 628.37L412.76 628.06L412.73 627.74L412.71 627.43L412.69 627.12L412.69 626.81L412.69 626.49L412.69 626.18L412.71 625.87L412.73 625.55L412.76 625.24L412.8 624.93L412.84 624.61L412.9 624.3L412.96 623.99L413.02 623.68L413.1 623.37L413.18 623.06L413.27 622.75L413.37 622.45L439.99 542.45L440.14 542.04L440.29 541.65L440.46 541.26L440.63 540.87L440.82 540.5L441.02 540.13L441.23 539.77L441.45 539.41L441.68 539.07L441.93 538.73L442.18 538.4L442.44 538.08L442.71 537.77L442.99 537.47L443.28 537.17L443.57 536.89L443.88 536.62L444.19 536.35L444.51 536.1L444.84 535.85L445.18 535.62L445.52 535.39L445.87 535.18L446.22 534.98L446.59 534.78L446.96 534.6L447.33 534.43L447.71 534.28L448.1 534.13L448.49 533.99L448.88 533.87L449.28 533.76L449.69 533.66L450.1 533.58L450.51 533.5L450.93 533.44L451.35 533.4L451.77 533.36L452.19 533.34L452.62 533.34L585.75 533.34L586.18 533.34L586.6 533.36ZM444.47 613.33L593.9 613.33L576.15 560L462.22 560L444.47 613.33Z" id="bI0sSJa53"></path><path d="M280.42 533.36L280.84 533.4L281.26 533.44L281.67 533.5L282.09 533.58L282.5 533.66L282.9 533.76L283.3 533.87L283.7 533.99L284.09 534.13L284.47 534.28L284.85 534.43L285.23 534.6L285.6 534.78L285.96 534.98L286.32 535.18L286.67 535.39L287.01 535.62L287.35 535.85L287.67 536.1L287.99 536.35L288.31 536.62L288.61 536.89L288.91 537.17L289.2 537.47L289.48 537.77L289.75 538.08L290.01 538.4L290.26 538.73L290.5 539.07L290.73 539.41L290.95 539.77L291.16 540.13L291.36 540.5L291.55 540.87L291.73 541.26L291.9 541.65L292.05 542.04L292.19 542.45L318.82 622.45L318.91 622.75L319 623.06L319.09 623.37L319.16 623.68L319.23 623.99L319.29 624.3L319.34 624.61L319.39 624.93L319.42 625.24L319.45 625.55L319.48 625.87L319.49 626.18L319.5 626.49L319.5 626.81L319.49 627.12L319.48 627.43L319.46 627.74L319.43 628.06L319.39 628.37L319.35 628.68L319.3 628.98L319.24 629.29L319.17 629.6L319.1 629.9L319.02 630.2L318.94 630.51L318.84 630.8L318.74 631.1L318.63 631.4L318.52 631.69L318.4 631.98L318.27 632.27L318.13 632.55L317.99 632.83L317.84 633.11L317.68 633.39L317.52 633.66L317.35 633.93L317.17 634.2L316.99 634.46L316.8 634.72L316.6 634.97L316.4 635.22L316.19 635.46L315.98 635.7L315.76 635.93L315.54 636.15L315.31 636.37L315.08 636.59L314.85 636.79L314.6 637L314.36 637.19L314.11 637.38L313.86 637.57L313.6 637.74L313.34 637.91L313.07 638.08L312.8 638.24L312.53 638.39L312.25 638.54L311.97 638.68L311.69 638.81L311.41 638.93L311.12 639.05L310.82 639.17L310.53 639.27L310.23 639.37L309.93 639.46L309.63 639.55L309.33 639.62L309.02 639.69L308.71 639.76L308.4 639.81L308.09 639.86L307.78 639.9L307.46 639.94L307.14 639.97L306.83 639.98L306.51 640L306.19 640L119.81 640L119.49 640L119.17 639.98L118.85 639.97L118.54 639.94L118.22 639.9L117.91 639.86L117.6 639.81L117.29 639.76L116.98 639.69L116.67 639.62L116.37 639.55L116.06 639.46L115.76 639.37L115.47 639.27L115.17 639.17L114.88 639.05L114.59 638.93L114.31 638.81L114.02 638.68L113.75 638.54L113.47 638.39L113.2 638.24L112.93 638.08L112.66 637.91L112.4 637.74L112.14 637.57L111.89 637.38L111.64 637.19L111.39 637L111.15 636.79L110.92 636.59L110.69 636.37L110.46 636.15L110.24 635.93L110.02 635.7L109.81 635.46L109.6 635.22L109.4 634.97L109.2 634.72L109.01 634.46L108.83 634.2L108.65 633.93L108.48 633.66L108.32 633.39L108.16 633.11L108.01 632.83L107.87 632.55L107.73 632.27L107.6 631.98L107.48 631.69L107.37 631.4L107.26 631.1L107.16 630.8L107.06 630.51L106.98 630.2L106.9 629.9L106.82 629.6L106.76 629.29L106.7 628.98L106.65 628.68L106.61 628.37L106.57 628.06L106.54 627.74L106.52 627.43L106.51 627.12L106.5 626.81L106.5 626.49L106.51 626.18L106.52 625.87L106.55 625.55L106.58 625.24L106.61 624.93L106.66 624.61L106.71 624.3L106.77 623.99L106.84 623.68L106.91 623.37L106.99 623.06L107.08 622.75L107.18 622.45L133.81 542.45L133.95 542.04L134.1 541.65L134.27 541.26L134.45 540.87L134.64 540.5L134.84 540.13L135.05 539.77L135.27 539.41L135.5 539.07L135.74 538.73L135.99 538.4L136.25 538.08L136.52 537.77L136.8 537.47L137.09 537.17L137.39 536.89L137.69 536.62L138 536.35L138.32 536.1L138.65 535.85L138.99 535.62L139.33 535.39L139.68 535.18L140.04 534.98L140.4 534.78L140.77 534.6L141.14 534.43L141.52 534.28L141.91 534.13L142.3 533.99L142.7 533.87L143.1 533.76L143.5 533.66L143.91 533.58L144.32 533.5L144.74 533.44L145.16 533.4L145.58 533.36L146.01 533.34L146.44 533.34L279.56 533.34L279.99 533.34L280.42 533.36ZM138.28 613.33L287.72 613.33L269.97 560L156.03 560L138.28 613.33Z" id="d6sp27IeIa"></path><path d="M532.5 546.67C532.5 540.92 532.5 494.91 532.5 489.16C532.5 481.79 538.46 475.82 545.81 475.82C553.16 475.82 559.12 481.79 559.12 489.16C559.12 494.91 559.12 540.92 559.12 546.67C559.12 554.03 553.16 560 545.81 560C538.46 560 532.5 554.03 532.5 546.67Z" id="e17ROW8XZt"></path><path d="M479.25 546.67C479.25 543.11 479.25 514.61 479.25 511.05C479.25 503.69 485.21 497.72 492.56 497.72C499.91 497.72 505.87 503.69 505.87 511.05C505.87 514.61 505.87 543.11 505.87 546.67C505.87 554.03 499.91 560 492.56 560C485.21 560 479.25 554.03 479.25 546.67Z" id="a40xILETxV"></path><path d="M381.27 206.71L382.19 206.76L383.11 206.82L384.03 206.9L384.95 207L385.86 207.12L386.76 207.25L387.67 207.4L388.56 207.57L389.46 207.76L390.35 207.96L391.23 208.18L392.11 208.42L392.98 208.68L393.84 208.95L394.7 209.24L395.56 209.54L396.4 209.87L397.24 210.2L398.08 210.56L398.9 210.93L399.72 211.32L400.54 211.73L401.34 212.15L402.14 212.58L402.93 213.04L403.71 213.51L404.48 213.99L405.24 214.49L405.99 215.01L406.74 215.54L407.48 216.09L408.2 216.65L408.92 217.23L409.63 217.82L410.32 218.43L411.01 219.05L411.69 219.69L412.35 220.35L413 221.01L413.64 221.69L414.26 222.38L414.87 223.07L415.46 223.78L416.04 224.5L416.6 225.23L417.15 225.96L417.68 226.71L418.2 227.46L418.7 228.23L419.18 229L419.65 229.78L420.1 230.57L420.54 231.37L420.96 232.17L421.36 232.99L421.75 233.81L422.12 234.64L422.48 235.47L422.81 236.31L423.14 237.16L423.44 238.02L423.73 238.88L424 239.74L424.26 240.62L424.49 241.5L424.71 242.38L424.92 243.27L425.1 244.16L425.27 245.06L425.42 245.97L425.56 246.88L425.67 247.79L425.77 248.7L425.85 249.62L425.92 250.55L425.96 251.48L425.99 252.41L426 253.34L425.99 254.27L425.96 255.2L425.92 256.13L425.85 257.06L425.77 257.98L425.67 258.89L425.56 259.81L425.42 260.71L425.27 261.62L425.1 262.52L424.92 263.41L424.71 264.3L424.49 265.18L424.26 266.06L424 266.94L423.73 267.8L423.44 268.66L423.14 269.52L422.81 270.37L422.48 271.21L422.12 272.04L421.75 272.87L421.36 273.69L420.96 274.51L420.54 275.31L420.1 276.11L419.65 276.9L419.18 277.68L418.7 278.45L418.2 279.22L417.68 279.97L417.15 280.72L416.6 281.45L416.04 282.18L415.46 282.9L414.87 283.61L414.26 284.3L413.64 284.99L413 285.67L412.35 286.33L411.69 286.99L411.01 287.63L410.32 288.25L409.63 288.86L408.92 289.45L408.2 290.03L407.48 290.59L406.74 291.14L406 291.67L405.24 292.19L404.48 292.69L403.71 293.17L402.93 293.64L402.14 294.1L401.34 294.53L400.54 294.95L399.73 295.36L398.91 295.75L398.08 296.12L397.25 296.48L396.41 296.81L395.56 297.14L394.71 297.44L393.85 297.73L392.98 298L392.11 298.26L391.23 298.5L390.35 298.72L389.46 298.92L388.57 299.11L387.67 299.28L386.77 299.43L385.86 299.56L384.95 299.68L384.03 299.78L383.11 299.86L382.19 299.92L381.27 299.97L380.34 300L379.4 300.01L378.47 300L377.54 299.97L376.62 299.92L375.69 299.86L374.78 299.78L373.86 299.68L372.95 299.56L372.04 299.43L371.14 299.28L370.24 299.11L369.35 298.92L368.46 298.72L367.58 298.5L366.7 298.26L365.83 298L364.96 297.73L364.1 297.44L363.25 297.14L362.4 296.81L361.56 296.48L360.73 296.12L359.9 295.75L359.08 295.36L358.27 294.95L357.47 294.53L356.67 294.1L355.88 293.64L355.1 293.17L354.33 292.69L353.57 292.19L352.81 291.67L352.07 291.14L351.33 290.59L350.6 290.03L349.89 289.45L349.18 288.86L348.48 288.25L347.8 287.63L347.12 286.99L346.46 286.33L345.8 285.67L345.17 284.99L344.54 284.3L343.94 283.61L343.34 282.9L342.77 282.18L342.2 281.45L341.66 280.72L341.13 279.97L340.61 279.22L340.11 278.45L339.63 277.68L339.16 276.9L338.71 276.11L338.27 275.31L337.85 274.51L337.45 273.69L337.06 272.87L336.69 272.04L336.33 271.21L336 270.37L335.67 269.52L335.37 268.66L335.08 267.8L334.81 266.94L334.55 266.06L334.32 265.18L334.1 264.3L333.89 263.41L333.71 262.52L333.54 261.62L333.39 260.71L333.25 259.81L333.14 258.89L333.04 257.98L332.96 257.06L332.89 256.13L332.85 255.2L332.82 254.27L332.81 253.34L332.82 252.41L332.85 251.48L332.89 250.55L332.96 249.62L333.04 248.7L333.14 247.79L333.25 246.88L333.39 245.97L333.54 245.06L333.71 244.16L333.89 243.27L334.1 242.38L334.32 241.5L334.55 240.62L334.81 239.74L335.08 238.88L335.37 238.02L335.67 237.16L336 236.31L336.33 235.47L336.69 234.64L337.06 233.81L337.45 232.99L337.85 232.17L338.27 231.37L338.71 230.57L339.16 229.78L339.63 229L340.11 228.23L340.61 227.46L341.13 226.71L341.66 225.96L342.21 225.23L342.77 224.5L343.34 223.78L343.94 223.07L344.55 222.38L345.17 221.69L345.81 221.01L346.46 220.35L347.12 219.69L347.8 219.05L348.49 218.43L349.18 217.82L349.89 217.23L350.61 216.65L351.33 216.09L352.07 215.54L352.81 215.01L353.57 214.49L354.33 213.99L355.1 213.51L355.88 213.04L356.67 212.58L357.47 212.15L358.27 211.73L359.08 211.32L359.9 210.93L360.73 210.56L361.56 210.2L362.4 209.87L363.25 209.54L364.1 209.24L364.96 208.95L365.83 208.68L366.7 208.42L367.58 208.18L368.46 207.96L369.35 207.76L370.24 207.57L371.14 207.4L372.04 207.25L372.95 207.12L373.86 207L374.78 206.9L375.69 206.82L376.62 206.76L377.54 206.71L378.47 206.68L379.4 206.67L380.34 206.68L381.27 206.71ZM378.13 233.38L377.5 233.43L376.87 233.5L376.25 233.59L375.63 233.7L375.02 233.82L374.41 233.97L373.81 234.13L373.22 234.32L372.63 234.52L372.05 234.74L371.47 234.98L370.91 235.23L370.35 235.51L369.8 235.8L369.26 236.11L368.73 236.43L368.2 236.78L367.69 237.14L367.19 237.52L366.7 237.91L366.21 238.33L365.74 238.75L365.29 239.2L364.84 239.66L364.41 240.13L364 240.61L363.61 241.1L363.23 241.61L362.87 242.12L362.52 242.64L362.2 243.18L361.89 243.72L361.6 244.27L361.32 244.83L361.07 245.4L360.83 245.97L360.61 246.55L360.41 247.14L360.23 247.74L360.06 248.34L359.92 248.95L359.79 249.56L359.68 250.18L359.59 250.81L359.53 251.43L359.48 252.07L359.45 252.7L359.44 253.34L359.45 253.98L359.48 254.61L359.53 255.25L359.59 255.87L359.68 256.5L359.79 257.12L359.92 257.73L360.06 258.34L360.23 258.94L360.41 259.54L360.61 260.13L360.83 260.71L361.07 261.28L361.32 261.85L361.6 262.41L361.89 262.96L362.2 263.5L362.52 264.04L362.87 264.56L363.23 265.07L363.6 265.58L364 266.07L364.41 266.55L364.84 267.02L365.28 267.48L366.21 268.35L367.2 269.15L368.22 269.87L369.29 270.53L370.39 271.11L371.53 271.61L372.69 272.05L373.88 272.41L375.09 272.7L376.31 272.92L377.55 273.06L378.78 273.14L380.03 273.14L381.27 273.06L382.5 272.92L383.72 272.7L384.93 272.41L386.12 272.05L387.28 271.61L388.42 271.11L389.52 270.53L390.59 269.87L391.61 269.15L392.59 268.35L393.52 267.48L393.97 267.02L394.4 266.55L394.81 266.07L395.2 265.58L395.58 265.07L395.94 264.56L396.29 264.04L396.61 263.5L396.92 262.96L397.21 262.41L397.49 261.85L397.74 261.28L397.98 260.71L398.2 260.13L398.4 259.54L398.58 258.94L398.75 258.34L398.89 257.73L399.02 257.12L399.13 256.5L399.22 255.87L399.28 255.25L399.33 254.61L399.36 253.98L399.37 253.34L399.36 252.7L399.33 252.07L399.28 251.43L399.22 250.81L399.13 250.18L399.02 249.56L398.89 248.95L398.75 248.34L398.58 247.74L398.4 247.14L398.2 246.55L397.98 245.97L397.74 245.4L397.49 244.83L397.21 244.27L396.92 243.72L396.61 243.18L396.29 242.64L395.94 242.12L395.58 241.61L395.2 241.1L394.81 240.61L394.4 240.13L393.97 239.66L393.53 239.2L393.52 239.2L393.06 238.75L392.59 238.33L392.11 237.91L391.62 237.52L391.12 237.14L390.61 236.78L390.08 236.43L389.55 236.11L389.01 235.8L388.46 235.51L387.9 235.23L387.34 234.98L386.76 234.74L386.18 234.52L385.59 234.32L385 234.13L384.4 233.97L383.79 233.82L383.18 233.7L382.56 233.59L381.94 233.5L381.31 233.43L380.68 233.38L380.04 233.35L379.4 233.34L378.77 233.35L378.13 233.38Z" id="bpor52d1l"></path><path d="M50.41 186.83L52.29 187.02L54.14 187.29L55.97 187.62L57.78 188.03L59.56 188.51L61.31 189.06L63.02 189.67L64.71 190.35L66.37 191.09L67.99 191.89L69.57 192.75L71.12 193.68L72.63 194.66L74.09 195.69L75.52 196.78L76.9 197.92L78.24 199.12L79.52 200.36L80.77 201.65L81.96 202.99L83.1 204.37L84.19 205.8L85.22 207.27L86.2 208.78L87.12 210.33L87.98 211.91L88.78 213.54L89.52 215.19L90.2 216.89L90.81 218.61L91.35 220.36L91.83 222.14L92.24 223.95L92.58 225.78L92.84 227.64L93.03 229.52L93.15 231.42L93.19 233.34L93.15 235.26L93.03 237.16L92.84 239.04L92.58 240.9L92.24 242.73L91.83 244.54L91.35 246.32L90.81 248.07L90.2 249.8L89.52 251.49L88.78 253.14L87.98 254.77L87.12 256.35L86.2 257.9L85.22 259.41L84.19 260.88L83.1 262.31L81.96 263.69L80.77 265.03L79.52 266.32L78.24 267.56L76.9 268.76L75.52 269.9L74.09 270.99L72.63 272.02L71.12 273L69.57 273.93L67.99 274.79L66.37 275.59L64.71 276.33L63.02 277.01L61.31 277.62L59.56 278.17L57.78 278.65L55.97 279.06L54.14 279.39L52.29 279.66L50.41 279.85L48.51 279.97L46.59 280.01L44.68 279.97L42.78 279.85L40.9 279.66L39.05 279.39L37.22 279.06L35.41 278.65L33.63 278.17L31.88 277.62L30.16 277.01L28.47 276.33L26.82 275.59L25.2 274.79L23.61 273.93L22.07 273L20.56 272.02L19.09 270.99L17.67 269.9L16.29 268.76L14.95 267.56L13.66 266.32L12.42 265.03L11.23 263.69L10.09 262.31L9 260.88L7.97 259.41L6.99 257.9L6.07 256.35L5.21 254.77L4.41 253.14L3.67 251.49L2.99 249.8L2.38 248.07L1.83 246.32L1.36 244.54L0.95 242.73L0.61 240.9L0.35 239.04L0.15 237.16L0.04 235.26L0 233.34L0.04 231.42L0.15 229.52L0.35 227.64L0.61 225.78L0.95 223.95L1.36 222.14L1.83 220.36L2.38 218.61L2.99 216.89L3.67 215.19L4.41 213.54L5.21 211.91L6.07 210.33L6.99 208.78L7.97 207.27L9 205.8L10.09 204.37L11.23 202.99L12.42 201.65L13.66 200.36L14.95 199.12L16.29 197.92L17.67 196.78L19.09 195.69L20.56 194.66L22.07 193.68L23.61 192.75L25.2 191.89L26.82 191.09L28.47 190.35L30.16 189.67L31.88 189.06L33.63 188.51L35.41 188.03L37.22 187.62L39.05 187.29L40.9 187.02L42.78 186.83L44.68 186.71L46.59 186.67L48.51 186.71L50.41 186.83ZM43.99 213.51L42.73 213.72L41.49 214L40.29 214.36L39.12 214.8L37.98 215.3L36.88 215.87L35.82 216.51L34.81 217.2L33.84 217.96L32.92 218.78L32.05 219.65L31.24 220.57L30.48 221.54L29.79 222.55L29.15 223.61L28.58 224.71L28.08 225.85L27.64 227.03L27.28 228.23L27 229.47L26.79 230.74L26.67 232.03L26.62 233.34L26.67 234.65L26.79 235.94L27 237.21L27.28 238.45L27.64 239.66L28.08 240.83L28.58 241.97L29.15 243.07L29.79 244.13L30.48 245.14L31.24 246.11L32.05 247.03L32.92 247.9L33.84 248.72L34.81 249.48L35.82 250.17L36.88 250.81L37.98 251.38L39.12 251.89L40.29 252.32L41.49 252.68L42.73 252.96L43.99 253.17L45.28 253.3L46.59 253.34L47.9 253.3L49.19 253.17L50.46 252.96L51.69 252.68L52.9 252.32L54.07 251.89L55.21 251.38L56.31 250.81L57.37 250.17L58.38 249.48L59.35 248.72L60.27 247.9L61.13 247.03L61.95 246.11L62.7 245.14L63.4 244.13L64.04 243.07L64.61 241.97L65.11 240.83L65.54 239.66L65.9 238.45L66.19 237.21L66.39 235.94L66.52 234.65L66.56 233.34L66.52 232.03L66.39 230.74L66.19 229.47L65.9 228.23L65.54 227.03L65.11 225.85L64.61 224.71L64.04 223.61L63.4 222.55L62.7 221.54L61.95 220.57L61.13 219.65L60.27 218.78L59.35 217.96L58.38 217.2L57.37 216.51L56.31 215.87L55.21 215.3L54.07 214.8L52.9 214.36L51.69 214L50.46 213.72L49.19 213.51L47.9 213.38L46.59 213.34L45.28 213.38L43.99 213.51Z" id="e6Vsjx6oc"></path><path d="M106.5 386.67C106.5 379.31 112.46 373.34 119.81 373.34C130.82 373.34 139.78 364.37 139.78 353.34C139.78 345.98 145.74 340.01 153.09 340.01C160.44 340.01 166.41 345.98 166.41 353.34C166.41 379.07 145.5 400 119.81 400C112.46 400 106.5 394.03 106.5 386.67Z" id="c3e92y12"></path><path d="M139.78 353.34C139.78 345.98 145.74 340.01 153.09 340.01C160.44 340.01 166.41 345.98 166.41 353.34C166.41 364.37 175.36 373.34 186.37 373.34C193.73 373.34 199.69 379.31 199.69 386.67C199.69 394.03 193.73 400 186.37 400C160.68 400 139.78 379.07 139.78 353.34Z" id="a3omsafdOb"></path><path d="M139.78 420C139.78 408.98 130.82 400 119.81 400C112.46 400 106.5 394.03 106.5 386.67C106.5 379.31 112.46 373.34 119.81 373.34C145.5 373.34 166.41 394.28 166.41 420C166.41 427.37 160.44 433.34 153.09 433.34C145.74 433.34 139.78 427.37 139.78 420Z" id="c4v5JAdJzD"></path><path d="M139.78 420C139.78 394.28 160.68 373.34 186.37 373.34C193.73 373.34 199.69 379.31 199.69 386.67C199.69 394.03 193.73 400 186.37 400C175.36 400 166.41 408.98 166.41 420C166.41 427.37 160.44 433.34 153.09 433.34C145.74 433.34 139.78 427.37 139.78 420Z" id="cbbATq8sI"></path><path d="M173.28 558.34C166.85 554.78 164.51 546.67 168.06 540.22C185.19 509.16 322.18 260.64 339.3 229.58C342.86 223.14 350.95 220.79 357.39 224.35C363.83 227.91 366.17 236.02 362.61 242.47C345.49 273.53 208.5 522.05 191.37 553.11C188.95 557.51 184.39 560 179.7 560C177.53 560 175.32 559.47 173.28 558.34Z" id="eAAhNWAK0"></path><path d="M246.42 558.29C240 554.68 237.73 546.56 241.33 540.14C256.76 512.64 380.16 292.67 395.58 265.18C399.18 258.76 407.31 256.46 413.71 260.08C420.12 263.69 422.39 271.82 418.79 278.24C403.37 305.73 279.97 525.7 264.54 553.2C262.1 557.55 257.58 560 252.92 560C250.72 560 248.48 559.45 246.42 558.29Z" id="a42Gap2Zvx"></path><path d="M372.21 346.4C364.88 345.83 359.4 339.41 359.97 332.08C360.54 324.73 366.95 319.23 374.28 319.82C387.54 320.86 400.65 317.92 412.25 311.33C444.17 293.18 455.41 252.42 437.3 220.44C433.67 214.04 435.91 205.9 442.31 202.27C448.7 198.64 456.83 200.88 460.46 207.28C485.81 252.04 470.08 309.13 425.39 334.52C411.29 342.53 395.55 346.68 379.49 346.68C377.07 346.69 374.64 346.59 372.21 346.4Z" id="b5wfV8lwE"></path></defs><g><g><g><use xlink:href="#a4dBxlbNQQ" opacity="1" fill="#30affc" fill-opacity="1"></use><g><use xlink:href="#a4dBxlbNQQ" opacity="1" fill-opacity="0" stroke="#000000" stroke-width="1" stroke-opacity="0"></use></g></g><g><use xlink:href="#g2IzjiQrI3" opacity="1" fill="#30affc" fill-opacity="1"></use><g><use xlink:href="#g2IzjiQrI3" opacity="1" fill-opacity="0" stroke="#000000" stroke-width="1" stroke-opacity="0"></use></g></g><g><use xlink:href="#agssw74Qy" opacity="1" fill="#30affc" fill-opacity="1"></use><g><use xlink:href="#agssw74Qy" opacity="1" fill-opacity="0" stroke="#000000" stroke-width="1" stroke-opacity="0"></use></g></g><g><use xlink:href="#a1eaqUWW7S" opacity="1" fill="#30affc" fill-opacity="1"></use><g><use xlink:href="#a1eaqUWW7S" opacity="1" fill-opacity="0" stroke="#000000" stroke-width="1" stroke-opacity="0"></use></g></g><g><use xlink:href="#bYdyzVkVn" opacity="1" fill="#30affc" fill-opacity="1"></use><g><use xlink:href="#bYdyzVkVn" opacity="1" fill-opacity="0" stroke="#000000" stroke-width="1" stroke-opacity="0"></use></g></g><g><use xlink:href="#d3q7sEOS5Y" opacity="1" fill="#30affc" fill-opacity="1"></use><g><use xlink:href="#d3q7sEOS5Y" opacity="1" fill-opacity="0" stroke="#000000" stroke-width="1" stroke-opacity="0"></use></g></g><g><use xlink:href="#k6Se39a19" opacity="1" fill="#30affc" fill-opacity="1"></use><g><use xlink:href="#k6Se39a19" opacity="1" fill-opacity="0" stroke="#000000" stroke-width="1" stroke-opacity="0"></use></g></g><g><use xlink:href="#b1mBa6m01" opacity="1" fill="#30affc" fill-opacity="1"></use><g><use xlink:href="#b1mBa6m01" opacity="1" fill-opacity="0" stroke="#000000" stroke-width="1" stroke-opacity="0"></use></g></g><g><use xlink:href="#i2wFNMTW" opacity="1" fill="#30affc" fill-opacity="1"></use><g><use xlink:href="#i2wFNMTW" opacity="1" fill-opacity="0" stroke="#000000" stroke-width="1" stroke-opacity="0"></use></g></g><g><use xlink:href="#b3ysFdh0zK" opacity="1" fill="#30affc" fill-opacity="1"></use><g><use xlink:href="#b3ysFdh0zK" opacity="1" fill-opacity="0" stroke="#000000" stroke-width="1" stroke-opacity="0"></use></g></g><g><use xlink:href="#bI0sSJa53" opacity="1" fill="#30affc" fill-opacity="1"></use><g><use xlink:href="#bI0sSJa53" opacity="1" fill-opacity="0" stroke="#000000" stroke-width="1" stroke-opacity="0"></use></g></g><g><use xlink:href="#d6sp27IeIa" opacity="1" fill="#30affc" fill-opacity="1"></use><g><use xlink:href="#d6sp27IeIa" opacity="1" fill-opacity="0" stroke="#000000" stroke-width="1" stroke-opacity="0"></use></g></g><g><use xlink:href="#e17ROW8XZt" opacity="1" fill="#30affc" fill-opacity="1"></use><g><use xlink:href="#e17ROW8XZt" opacity="1" fill-opacity="0" stroke="#000000" stroke-width="1" stroke-opacity="0"></use></g></g><g><use xlink:href="#a40xILETxV" opacity="1" fill="#30affc" fill-opacity="1"></use><g><use xlink:href="#a40xILETxV" opacity="1" fill-opacity="0" stroke="#000000" stroke-width="1" stroke-opacity="0"></use></g></g><g><use xlink:href="#bpor52d1l" opacity="1" fill="#30affc" fill-opacity="1"></use><g><use xlink:href="#bpor52d1l" opacity="1" fill-opacity="0" stroke="#000000" stroke-width="1" stroke-opacity="0"></use></g></g><g><use xlink:href="#e6Vsjx6oc" opacity="1" fill="#30affc" fill-opacity="1"></use><g><use xlink:href="#e6Vsjx6oc" opacity="1" fill-opacity="0" stroke="#000000" stroke-width="1" stroke-opacity="0"></use></g></g><g><use xlink:href="#c3e92y12" opacity="1" fill="#30affc" fill-opacity="1"></use><g><use xlink:href="#c3e92y12" opacity="1" fill-opacity="0" stroke="#000000" stroke-width="1" stroke-opacity="0"></use></g></g><g><use xlink:href="#a3omsafdOb" opacity="1" fill="#30affc" fill-opacity="1"></use><g><use xlink:href="#a3omsafdOb" opacity="1" fill-opacity="0" stroke="#000000" stroke-width="1" stroke-opacity="0"></use></g></g><g><use xlink:href="#c4v5JAdJzD" opacity="1" fill="#30affc" fill-opacity="1"></use><g><use xlink:href="#c4v5JAdJzD" opacity="1" fill-opacity="0" stroke="#000000" stroke-width="1" stroke-opacity="0"></use></g></g><g><use xlink:href="#cbbATq8sI" opacity="1" fill="#30affc" fill-opacity="1"></use><g><use xlink:href="#cbbATq8sI" opacity="1" fill-opacity="0" stroke="#000000" stroke-width="1" stroke-opacity="0"></use></g></g><g><use xlink:href="#eAAhNWAK0" opacity="1" fill="#30affc" fill-opacity="1"></use><g><use xlink:href="#eAAhNWAK0" opacity="1" fill-opacity="0" stroke="#000000" stroke-width="1" stroke-opacity="0"></use></g></g><g><use xlink:href="#a42Gap2Zvx" opacity="1" fill="#30affc" fill-opacity="1"></use><g><use xlink:href="#a42Gap2Zvx" opacity="1" fill-opacity="0" stroke="#000000" stroke-width="1" stroke-opacity="0"></use></g></g><g><use xlink:href="#b5wfV8lwE" opacity="1" fill="#30affc" fill-opacity="1"></use><g><use xlink:href="#b5wfV8lwE" opacity="1" fill-opacity="0" stroke="#000000" stroke-width="1" stroke-opacity="0"></use></g></g></g></g></svg>